<?xml version="1.0" encoding="utf-8"?>
<!-- Generator: Adobe Illustrator 16.0.0, SVG Export Plug-In . SVG Version: 6.00 Build 0)  -->
<!DOCTYPE svg PUBLIC "-//W3C//DTD SVG 1.1//EN" "http://www.w3.org/Graphics/SVG/1.1/DTD/svg11.dtd">
<svg version="1.1" xmlns="http://www.w3.org/2000/svg" xmlns:xlink="http://www.w3.org/1999/xlink" x="0px" y="0px"
	 width="841.89px" height="595.28px" viewBox="0 0 841.89 595.28" enable-background="new 0 0 841.89 595.28" xml:space="preserve">
<g id="rounded_rectangle">
	<path fill-rule="evenodd" clip-rule="evenodd" d="M295.899,167.28h248.64c3.375,0,6.138,2.761,6.138,6.137v248.641
		c0,3.375-2.763,6.138-6.138,6.138h-248.64c-3.376,0-6.137-2.763-6.137-6.138V173.417
		C289.762,170.041,292.522,167.28,295.899,167.28L295.899,167.28z"/>
</g>
<g id="schematics">
	<path fill="#636466" d="M537.122,174.052c1.858,0,3.547,0.756,4.765,1.975c1.221,1.221,1.976,2.907,1.976,4.766
		c0,1.86-0.755,3.547-1.976,4.767c-1.218,1.219-2.906,1.975-4.765,1.975c-0.838,0-1.643-0.155-2.384-0.435l-12.787,15.2
		c0.595,1.004,0.936,2.176,0.936,3.426c0,1.859-0.755,3.544-1.975,4.765c-1.221,1.219-2.905,1.974-4.765,1.974
		c-1.86,0-3.547-0.755-4.766-1.974c-0.702-0.704-1.251-1.562-1.59-2.518h-29.239c-0.146,0.413-0.331,0.808-0.552,1.18l12.784,15.198
		c0.743-0.281,1.548-0.436,2.387-0.436c1.859,0,3.547,0.757,4.766,1.977c1.221,1.219,1.976,2.906,1.976,4.766
		c0,1.859-0.755,3.544-1.976,4.764c-1.219,1.219-2.906,1.975-4.766,1.975s-3.547-0.756-4.768-1.975
		c-1.218-1.22-1.975-2.905-1.975-4.764c0-1.25,0.341-2.422,0.936-3.428l-12.787-15.198c-0.739,0.281-1.543,0.434-2.384,0.434
		c-1.857,0-3.544-0.756-4.762-1.976c-0.704-0.703-1.253-1.562-1.593-2.518h-7.399h-6.225h-19.942l-17.195,20.438h29.787
		c0.339-0.958,0.887-1.816,1.591-2.519c1.22-1.22,2.905-1.977,4.765-1.977s3.546,0.757,4.767,1.977
		c0.703,0.703,1.25,1.561,1.59,2.519h14.617h1.032l0.68,0.807l16.882,20.067c0.741-0.282,1.545-0.436,2.384-0.436
		c1.859,0,3.547,0.757,4.766,1.976c1.221,1.219,1.976,2.905,1.976,4.764s-0.755,3.547-1.976,4.766
		c-1.219,1.22-2.906,1.976-4.766,1.976s-3.547-0.756-4.768-1.976c-1.218-1.219-1.975-2.906-1.975-4.766
		c0-1.25,0.344-2.422,0.936-3.426l-16.201-19.258h-13.587c-0.339,0.957-0.887,1.814-1.59,2.518
		c-1.221,1.219-2.907,1.975-4.767,1.975s-3.545-0.756-4.765-1.975c-0.702-0.704-1.252-1.561-1.591-2.518h-61.316H372.74
		c-0.339,0.957-0.888,1.814-1.591,2.518c-1.22,1.219-2.906,1.975-4.765,1.975c-0.838,0-1.643-0.155-2.385-0.435l-12.788,15.201
		c0.595,1.004,0.938,2.176,0.938,3.426c0,1.859-0.757,3.547-1.977,4.766c-1.219,1.22-2.904,1.976-4.764,1.976
		s-3.545-0.756-4.765-1.976c-1.219-1.219-1.975-2.906-1.975-4.766s0.756-3.545,1.975-4.764c1.22-1.219,2.905-1.976,4.765-1.976
		c0.84,0,1.644,0.154,2.384,0.435l12.788-15.199c-0.595-1.003-0.938-2.176-0.938-3.425c0-1.86,0.757-3.547,1.978-4.766
		c1.219-1.22,2.904-1.977,4.765-1.977c1.859,0,3.545,0.757,4.765,1.977c0.703,0.703,1.251,1.561,1.591,2.519h12.809h25.684
		l20.298-24.124l0.678-0.809h1.033h20.974h6.225h7.399c0.342-0.958,0.889-1.816,1.593-2.518c1.218-1.221,2.904-1.976,4.762-1.976
		c1.86,0,3.549,0.755,4.768,1.976c0.703,0.702,1.252,1.561,1.591,2.518h29.239c0.339-0.957,0.888-1.815,1.59-2.518
		c1.219-1.22,2.905-1.976,4.766-1.976c0.837,0,1.642,0.154,2.382,0.436l12.789-15.201c-0.594-1.004-0.936-2.176-0.936-3.426
		c0-1.859,0.755-3.545,1.975-4.766C533.578,174.808,535.263,174.052,537.122,174.052L537.122,174.052z M522.504,228.411h21.4v4.494
		h-21.402c-0.339,0.957-0.886,1.814-1.589,2.518c-1.22,1.219-2.906,1.975-4.766,1.975c-1.86,0-3.547-0.756-4.767-1.975
		c-1.22-1.22-1.975-2.905-1.975-4.764c0-1.86,0.755-3.547,1.975-4.766c1.22-1.22,2.906-1.977,4.767-1.977
		c1.859,0,3.546,0.757,4.766,1.977C521.616,226.595,522.164,227.453,522.504,228.411L522.504,228.411z M412.266,198.985
		c0.838,0,1.641,0.154,2.382,0.436l13.78-16.38H372.74c-0.339,0.958-0.888,1.815-1.591,2.519c-1.22,1.219-2.906,1.974-4.765,1.974
		s-3.546-0.755-4.765-1.974c-1.22-1.221-1.978-2.906-1.978-4.766c0-1.859,0.757-3.544,1.978-4.766
		c1.219-1.218,2.906-1.974,4.765-1.974s3.545,0.755,4.765,1.974c0.703,0.705,1.252,1.563,1.591,2.52h74.125
		c0.339-0.956,0.889-1.814,1.591-2.52c1.22-1.218,2.905-1.974,4.765-1.974s3.545,0.755,4.764,1.974
		c1.221,1.222,1.977,2.907,1.977,4.766c0,1.86-0.756,3.545-1.977,4.766c-1.219,1.219-2.904,1.974-4.764,1.974
		s-3.545-0.755-4.765-1.974c-0.702-0.703-1.252-1.561-1.591-2.519h-12.592L418.07,202.3c0.596,1.004,0.936,2.176,0.936,3.426
		c0,1.859-0.755,3.544-1.977,4.765c-1.218,1.219-2.904,1.974-4.764,1.974c-1.86,0-3.546-0.755-4.766-1.974
		c-0.703-0.704-1.25-1.562-1.589-2.518h-33.17c-0.339,0.957-0.888,1.814-1.591,2.518c-1.22,1.219-2.906,1.974-4.765,1.974
		s-3.546-0.755-4.765-1.974c-1.22-1.221-1.978-2.906-1.978-4.765c0-1.25,0.343-2.421,0.938-3.425l-16.203-19.26h-18.912
		L309.263,202.3c0.594,1.004,0.936,2.176,0.936,3.426c0,1.859-0.755,3.544-1.975,4.765c-1.22,1.219-2.908,1.974-4.767,1.974
		s-3.544-0.755-4.764-1.974c-1.22-1.221-1.976-2.906-1.976-4.765c0-1.86,0.755-3.547,1.976-4.766
		c1.22-1.221,2.905-1.976,4.764-1.976c0.839,0,1.643,0.154,2.384,0.435l16.882-20.064l0.679-0.808h1.031h0.996h18.982h0.997h1.033
		l0.679,0.808l16.881,20.066c0.742-0.282,1.545-0.436,2.384-0.436c1.859,0,3.545,0.756,4.765,1.976
		c0.703,0.703,1.252,1.561,1.591,2.518h33.17c0.339-0.957,0.887-1.815,1.589-2.518C408.72,199.741,410.405,198.985,412.266,198.985
		L412.266,198.985z M303.458,174.052c1.859,0,3.547,0.756,4.767,1.975c1.219,1.221,1.975,2.907,1.975,4.766
		c0,1.86-0.755,3.547-1.975,4.767c-1.22,1.219-2.908,1.975-4.767,1.975s-3.544-0.755-4.764-1.975
		c-1.22-1.22-1.976-2.907-1.976-4.767c0-1.859,0.755-3.545,1.976-4.766C299.914,174.808,301.598,174.052,303.458,174.052
		L303.458,174.052z M345.409,223.915c1.86,0,3.545,0.757,4.764,1.977c1.22,1.219,1.977,2.906,1.977,4.766
		c0,1.859-0.757,3.544-1.977,4.764c-1.219,1.219-2.904,1.975-4.764,1.975s-3.545-0.756-4.765-1.975
		c-0.703-0.704-1.252-1.561-1.59-2.518h-42.52v-4.495h42.52c0.146-0.412,0.332-0.806,0.551-1.178l-12.787-15.199
		c-0.742,0.28-1.545,0.434-2.385,0.434c-1.86,0-3.547-0.756-4.766-1.976c-1.22-1.22-1.976-2.906-1.976-4.765
		c0-1.854,0.755-3.537,1.976-4.758v-0.007c1.219-1.221,2.905-1.976,4.766-1.976c1.861,0,3.546,0.755,4.766,1.976
		c1.219,1.219,1.974,2.905,1.974,4.766c0,1.25-0.341,2.42-0.935,3.425l12.787,15.199
		C343.765,224.069,344.569,223.915,345.409,223.915L345.409,223.915z M495.172,174.054c1.859,0,3.546,0.755,4.766,1.974
		c1.219,1.222,1.975,2.907,1.975,4.766c0,1.86-0.756,3.545-1.975,4.766c-1.22,1.219-2.906,1.974-4.766,1.974
		s-3.545-0.755-4.766-1.974c-1.22-1.221-1.975-2.906-1.975-4.766c0-1.859,0.755-3.544,1.975-4.766
		C491.627,174.809,493.313,174.054,495.172,174.054L495.172,174.054z"/>
	<path fill="#636466" d="M324.292,371.559c-1.86,0-3.545-0.757-4.765-1.977c-0.703-0.701-1.251-1.56-1.59-2.518h-21.403v-4.491
		h21.402c0.338-0.959,0.887-1.818,1.591-2.521c1.219-1.22,2.904-1.977,4.765-1.977c0.839,0,1.642,0.155,2.383,0.436l12.787-15.199
		c-0.594-1.005-0.935-2.178-0.935-3.428c0-1.859,0.755-3.544,1.974-4.765c1.22-1.22,2.906-1.975,4.766-1.975
		c1.86,0,3.545,0.755,4.764,1.975c1.22,1.221,1.976,2.905,1.976,4.765c0,1.86-0.756,3.547-1.976,4.769
		c-1.219,1.218-2.904,1.973-4.764,1.973c-0.838,0-1.642-0.153-2.382-0.434l-12.79,15.199c0.594,1.005,0.937,2.176,0.937,3.426
		c0,1.859-0.756,3.546-1.975,4.765C327.837,370.802,326.152,371.559,324.292,371.559L324.292,371.559z M534.599,396.054
		l-16.884,20.066l-0.679,0.81h-1.032h-0.995h-18.982h-0.997h-1.031l-0.679-0.81l-16.882-20.063
		c-0.739,0.279-1.546,0.434-2.384,0.434c-1.859,0-3.545-0.755-4.765-1.975c-0.704-0.704-1.252-1.563-1.59-2.519h-33.17
		c-0.339,0.956-0.889,1.814-1.591,2.519c-1.22,1.22-2.903,1.975-4.764,1.975c-1.854,0-3.536-0.755-4.76-1.975h-0.008
		c-1.219-1.221-1.974-2.905-1.974-4.766s0.755-3.546,1.974-4.766c1.221-1.219,2.907-1.974,4.768-1.974s3.544,0.755,4.764,1.974
		c0.702,0.703,1.252,1.562,1.591,2.518h33.167c0.339-0.957,0.889-1.814,1.593-2.519c1.22-1.22,2.905-1.975,4.765-1.975
		s3.546,0.755,4.766,1.975c1.219,1.22,1.976,2.906,1.976,4.767c0,1.249-0.343,2.421-0.938,3.425l16.203,19.26h18.912l16.202-19.258
		c-0.596-1.006-0.935-2.178-0.935-3.427c0-1.86,0.756-3.546,1.977-4.766c1.218-1.219,2.904-1.974,4.765-1.974
		c1.858,0,3.544,0.755,4.764,1.974c1.221,1.22,1.976,2.905,1.976,4.766s-0.755,3.545-1.976,4.766
		c-1.22,1.22-2.905,1.975-4.764,1.975C536.144,396.49,535.339,396.336,534.599,396.054L534.599,396.054z M428.173,371.559
		c-0.548,0-1.081-0.066-1.593-0.19l-16.675,19.82l-0.68,0.809h-1.031h-0.996h-18.983h-0.996h-1.031l-0.681-0.809l-16.881-20.064
		c-0.742,0.28-1.544,0.435-2.384,0.435c-1.86,0-3.546-0.756-4.766-1.975c-1.22-1.22-1.976-2.907-1.976-4.767
		c0-1.858,0.756-3.545,1.976-4.765c1.219-1.22,2.906-1.977,4.766-1.977s3.545,0.757,4.766,1.977c1.219,1.22,1.974,2.906,1.974,4.765
		c0,1.25-0.341,2.423-0.936,3.426l16.204,19.259h18.912l15.649-18.601c-0.865-1.134-1.378-2.549-1.378-4.084
		c0-1.858,0.755-3.545,1.974-4.765c1.221-1.22,2.907-1.977,4.766-1.977c1.86,0,3.546,0.757,4.766,1.977
		c0.702,0.702,1.252,1.562,1.591,2.519h33.17c0.338-0.957,0.886-1.816,1.59-2.519c1.22-1.22,2.905-1.977,4.765-1.977
		c0.838,0,1.642,0.155,2.384,0.436l12.787-15.198c-0.595-1.005-0.937-2.179-0.937-3.429c0-1.859,0.755-3.544,1.976-4.765
		c1.219-1.22,2.905-1.975,4.766-1.975c1.859,0,3.547,0.755,4.768,1.975c1.218,1.221,1.973,2.905,1.973,4.765
		c0,1.86-0.755,3.547-1.973,4.769c-1.221,1.218-2.908,1.973-4.768,1.973c-0.838,0-1.643-0.153-2.383-0.434l-12.789,15.199
		c0.596,1.004,0.938,2.176,0.938,3.426c0,1.859-0.757,3.547-1.976,4.767c-1.22,1.219-2.906,1.975-4.766,1.975
		s-3.545-0.756-4.765-1.975c-0.704-0.703-1.254-1.562-1.593-2.521h-33.167c-0.339,0.959-0.887,1.817-1.591,2.521
		C431.719,370.803,430.033,371.559,428.173,371.559L428.173,371.559z M324.292,396.489c-1.86,0-3.545-0.755-4.765-1.975
		c-0.703-0.703-1.251-1.562-1.59-2.518h-21.403v-4.495h21.403c0.338-0.956,0.887-1.814,1.59-2.518
		c1.219-1.219,2.904-1.974,4.765-1.974c1.86,0,3.545,0.755,4.765,1.974c1.219,1.22,1.975,2.905,1.975,4.766
		c0,1.249-0.341,2.421-0.937,3.425l12.788,15.2c0.741-0.281,1.544-0.434,2.384-0.434c1.86,0,3.545,0.755,4.764,1.976
		c0.704,0.703,1.252,1.562,1.591,2.518h30.784l-13.779-16.38c-0.741,0.281-1.544,0.435-2.383,0.435c-1.86,0-3.546-0.755-4.766-1.975
		c-1.22-1.221-1.976-2.904-1.976-4.765s0.756-3.546,1.976-4.766c1.219-1.219,2.906-1.974,4.766-1.974s3.545,0.755,4.766,1.974
		c1.219,1.22,1.974,2.905,1.974,4.766c0,1.251-0.341,2.421-0.936,3.425l16.202,19.26h58.476c0.339-0.958,0.887-1.816,1.59-2.519
		c1.22-1.22,2.904-1.977,4.764-1.977c1.86,0,3.547,0.757,4.766,1.977v0.008c1.22,1.223,1.977,2.905,1.977,4.758
		c0,1.859-0.757,3.546-1.977,4.766c-1.219,1.219-2.905,1.976-4.766,1.976c-1.859,0-3.544-0.757-4.764-1.976
		c-0.703-0.703-1.253-1.562-1.59-2.518h-95.103c-0.339,0.956-0.887,1.813-1.591,2.516c-1.219,1.22-2.904,1.977-4.764,1.977
		c-1.859,0-3.545-0.757-4.766-1.977c-1.219-1.22-1.974-2.904-1.974-4.764c0-1.249,0.341-2.422,0.935-3.427l-12.789-15.2
		C325.933,396.336,325.129,396.489,324.292,396.489L324.292,396.489z M303.317,421.423c-1.859,0-3.547-0.757-4.766-1.976
		c-1.22-1.22-1.977-2.906-1.977-4.766c0-1.86,0.756-3.547,1.977-4.766c1.219-1.22,2.907-1.977,4.766-1.977s3.545,0.757,4.764,1.977
		c1.22,1.219,1.976,2.905,1.976,4.766c0,1.859-0.756,3.546-1.976,4.766C306.862,420.666,305.176,421.423,303.317,421.423
		L303.317,421.423z M345.267,371.559c-1.859,0-3.545-0.757-4.766-1.977c-1.219-1.219-1.974-2.905-1.974-4.765
		c0-1.858,0.755-3.545,1.974-4.765c1.22-1.22,2.906-1.977,4.766-1.977c1.86,0,3.545,0.757,4.764,1.977
		c1.22,1.22,1.976,2.906,1.976,4.765c0,1.859-0.756,3.546-1.976,4.765C348.812,370.802,347.127,371.559,345.267,371.559
		L345.267,371.559z M520.769,369.584c-1.218,1.219-2.904,1.975-4.765,1.975c-0.838,0-1.64-0.154-2.381-0.436l-12.79,15.202
		c0.595,1.005,0.934,2.175,0.934,3.425c0,1.86-0.755,3.544-1.973,4.765c-1.22,1.22-2.905,1.975-4.765,1.975
		c-1.86,0-3.547-0.755-4.768-1.975c-1.219-1.221-1.975-2.904-1.975-4.765s0.756-3.546,1.975-4.766
		c1.221-1.219,2.907-1.974,4.768-1.974c0.839,0,1.641,0.152,2.384,0.434l12.785-15.2c-0.594-1.004-0.936-2.177-0.936-3.427
		c0-1.858,0.755-3.545,1.974-4.765c1.221-1.22,2.907-1.977,4.768-1.977s3.547,0.757,4.765,1.977
		c0.706,0.702,1.254,1.562,1.593,2.521h21.543v4.491h-21.546C522.021,368.022,521.473,368.881,520.769,369.584L520.769,369.584z"/>
</g>
<g id="helix">
	<path fill="#FFFFFF" d="M539.151,260.498c0.426-0.179,0.861-0.342,1.293-0.514c0.84-0.334,1.689-0.656,2.545-0.962
		c2.844-1.016,5.764-1.89,8.764-2.584v-10.026c-2.665,0.548-5.283,1.216-7.851,1.992v-0.006c-1.221,0.37-2.426,0.773-3.624,1.194
		c-0.332,0.116-0.662,0.238-0.993,0.358c-0.845,0.308-1.683,0.628-2.515,0.96c-0.349,0.139-0.7,0.276-1.047,0.419
		c-1.073,0.445-2.141,0.905-3.19,1.39c-0.204,0.094-0.402,0.195-0.604,0.29c-0.9,0.424-1.792,0.861-2.672,1.313
		c-0.389,0.2-0.773,0.406-1.159,0.611c-0.705,0.375-1.404,0.761-2.097,1.154c-0.361,0.206-0.723,0.408-1.079,0.618
		c-1.015,0.595-2.018,1.203-3.001,1.836c-11.16,7.2-20.399,16.858-26.861,28.144c-6.464-11.285-15.702-20.944-26.861-28.144
		c-13.658-8.799-30.189-13.959-47.979-13.959s-34.32,5.16-47.978,13.959c-11.16,7.2-20.397,16.858-26.861,28.143
		c-6.463-11.285-15.702-20.943-26.861-28.143c-0.996-0.641-2.012-1.257-3.039-1.859c-0.318-0.188-0.64-0.368-0.961-0.55
		c-0.747-0.426-1.501-0.841-2.263-1.245c-0.338-0.18-0.675-0.361-1.016-0.536c-0.971-0.499-1.951-0.983-2.944-1.447
		c-0.1-0.047-0.198-0.098-0.298-0.144c-1.09-0.504-2.196-0.981-3.312-1.442c-0.323-0.133-0.649-0.261-0.975-0.39
		c-0.854-0.342-1.714-0.67-2.582-0.986c-0.32-0.117-0.638-0.234-0.959-0.347c-1.201-0.421-2.41-0.826-3.635-1.197v0.006
		c-2.567-0.776-5.185-1.444-7.85-1.992v10.026c3,0.694,5.921,1.569,8.765,2.585c0.854,0.306,1.7,0.626,2.538,0.959
		c0.434,0.172,0.872,0.337,1.301,0.517c0.3,0.126,0.59,0.269,0.888,0.398v42.48c-1.248,0.445-2.372,1.153-3.292,2.074v-0.008
		c-1.598,1.598-2.58,3.799-2.58,6.236c0,2.421,0.982,4.621,2.58,6.211v0.009l0.008,0.007c0.919,0.919,2.041,1.625,3.284,2.066
		v14.606c-0.322,0.14-0.636,0.295-0.96,0.43c-0.32,0.134-0.646,0.257-0.968,0.386c-1.028,0.412-2.065,0.805-3.116,1.175
		c-2.744,0.969-5.558,1.808-8.448,2.473v10.02c2.665-0.549,5.283-1.217,7.85-1.993v0.006c0.046-0.014,0.089-0.029,0.135-0.043
		c0.019-0.007,0.039-0.014,0.058-0.019c1.155-0.354,2.296-0.733,3.43-1.132c0.331-0.115,0.659-0.237,0.988-0.355
		c0.858-0.313,1.71-0.638,2.556-0.976c0.331-0.132,0.662-0.262,0.991-0.396c1.113-0.462,2.218-0.938,3.306-1.441
		c0.1-0.046,0.197-0.097,0.297-0.144c0.994-0.464,1.975-0.948,2.945-1.448c0.341-0.175,0.677-0.355,1.014-0.534
		c0.763-0.404,1.517-0.82,2.265-1.246c0.32-0.182,0.642-0.362,0.96-0.55c1.026-0.603,2.043-1.218,3.04-1.86
		c11.159-7.201,20.398-16.857,26.861-28.143c6.463,11.285,15.701,20.941,26.861,28.143c13.658,8.8,30.189,13.959,47.978,13.959
		s34.32-5.159,47.979-13.959c11.159-7.201,20.397-16.857,26.861-28.143c6.462,11.285,15.701,20.941,26.861,28.143
		c0.987,0.637,1.996,1.247,3.013,1.846c0.341,0.199,0.687,0.393,1.03,0.59c0.728,0.413,1.46,0.816,2.201,1.211
		c0.345,0.183,0.688,0.368,1.035,0.546c1.026,0.528,2.063,1.041,3.114,1.53c0.033,0.016,0.064,0.032,0.097,0.047
		c1.123,0.521,2.263,1.012,3.411,1.487c0.257,0.104,0.516,0.205,0.771,0.309c0.932,0.374,1.872,0.732,2.818,1.076
		c0.265,0.095,0.527,0.192,0.794,0.285c1.16,0.407,2.328,0.799,3.512,1.158c0.017,0.006,0.033,0.012,0.05,0.016
		c0.046,0.014,0.09,0.03,0.135,0.044v-0.006c2.567,0.776,5.186,1.444,7.851,1.993v-10.02c-2.889-0.665-5.702-1.503-8.445-2.472
		c-1.053-0.371-2.095-0.765-3.124-1.178c-0.319-0.129-0.642-0.25-0.959-0.382c-0.418-0.174-0.82-0.372-1.233-0.553v-33.113
		c1.25-0.443,2.376-1.153,3.292-2.073c1.59-1.59,2.579-3.799,2.579-6.228c0-2.421-0.989-4.629-2.587-6.22l0.008-0.008
		c-0.916-0.917-2.042-1.624-3.292-2.067v-23.731C538.38,260.848,538.759,260.663,539.151,260.498z M528.836,286.816l-0.008,0.008
		h-0.007c-1.592,1.598-2.579,3.798-2.579,6.22c0,2.429,0.987,4.638,2.579,6.228h0.007c0.921,0.92,2.043,1.628,3.292,2.072v30.245
		c-0.118-0.063-0.241-0.122-0.358-0.188c-0.356-0.195-0.714-0.393-1.068-0.594c-1.184-0.677-2.354-1.372-3.495-2.108
		c-5.177-3.337-9.884-7.264-14.01-11.674c-5.33-5.699-9.688-12.205-12.832-19.289c3.137-7.068,7.483-13.563,12.796-19.254
		c4.135-4.425,8.854-8.364,14.046-11.711c1.141-0.736,2.313-1.431,3.498-2.108c0.354-0.201,0.71-0.397,1.066-0.593
		c0.117-0.064,0.239-0.123,0.357-0.187v20.866C530.877,285.192,529.756,285.898,528.836,286.816z M456.866,290.338
		c-0.531,0.53-1.267,0.862-2.073,0.862c-0.823,0-1.56-0.324-2.082-0.847v-0.016c-0.53-0.53-0.855-1.267-0.855-2.074
		c0-0.823,0.325-1.559,0.849-2.081l0.007-0.008c0.522-0.522,1.259-0.854,2.082-0.854c0.807,0,1.542,0.332,2.073,0.863h0.015
		c0.522,0.522,0.848,1.258,0.848,2.081C457.729,289.072,457.395,289.809,456.866,290.338z M451.855,279.964
		c-1.244,0.444-2.363,1.15-3.282,2.065l-0.008,0.008l-0.009,0.008c-1.59,1.591-2.579,3.79-2.579,6.219
		c0,2.43,0.989,4.637,2.579,6.228l0.009-0.008c0.92,0.92,2.043,1.629,3.29,2.073v38.039c-8.778,3.805-18.473,6.086-28.699,6.453
		v-10.228c1.25-0.442,2.374-1.148,3.29-2.065c1.599-1.592,2.58-3.799,2.58-6.229c0-2.429-0.989-4.628-2.587-6.227l0.007-0.008
		c-0.916-0.917-2.04-1.623-3.29-2.065v-59.795c10.227,0.366,19.921,2.642,28.699,6.445V279.964z M383.558,297.198l0.008-0.007
		c0.522-0.523,1.258-0.855,2.081-0.855c0.807,0,1.543,0.332,2.073,0.862h0.017c0.521,0.522,0.846,1.26,0.846,2.074
		s-0.332,1.551-0.863,2.08c-0.53,0.531-1.266,0.864-2.073,0.864c-0.823,0-1.559-0.333-2.081-0.855v-0.009
		c-0.531-0.529-0.855-1.266-0.855-2.08S383.036,297.721,383.558,297.198z M388.583,307.574c1.25-0.442,2.375-1.15,3.292-2.067
		c1.598-1.598,2.58-3.797,2.58-6.234c0-2.422-0.989-4.621-2.588-6.22l0.008-0.008c-0.917-0.916-2.042-1.624-3.292-2.067v-30.099
		c8.779-3.803,18.474-6.08,28.702-6.445v59.797c-1.244,0.442-2.366,1.149-3.284,2.063v0.008l-0.008,0.007
		c-1.599,1.599-2.588,3.799-2.588,6.22c0,2.43,0.989,4.637,2.588,6.229l0.008-0.008c0.916,0.92,2.037,1.629,3.284,2.072v10.229
		c-10.228-0.367-19.922-2.648-28.702-6.453V307.574z M422.294,324.603c-0.532,0.529-1.267,0.862-2.074,0.862
		c-0.823,0-1.551-0.325-2.081-0.847v-0.016c-0.523-0.53-0.855-1.267-0.855-2.074c0-0.822,0.324-1.558,0.847-2.08l0.008-0.009
		c0.53-0.521,1.257-0.846,2.081-0.846c0.808,0,1.542,0.324,2.074,0.854h0.015c0.522,0.522,0.848,1.258,0.848,2.08
		C423.156,323.336,422.822,324.072,422.294,324.603z M313.241,328.7c-1.139,0.734-2.308,1.43-3.491,2.105
		c-0.357,0.204-0.719,0.402-1.081,0.602c-0.203,0.112-0.414,0.213-0.619,0.325v-11.759c1.25-0.443,2.375-1.15,3.291-2.066
		l-0.007-0.007c1.598-1.599,2.587-3.799,2.587-6.22c0-2.438-0.98-4.639-2.58-6.236c-0.916-0.917-2.041-1.624-3.291-2.066v-39.634
		c0.204,0.11,0.414,0.211,0.617,0.323c0.361,0.199,0.723,0.396,1.081,0.601c1.184,0.676,2.354,1.371,3.493,2.105
		c11.87,7.652,21.263,18.398,26.85,30.965C334.512,310.303,325.111,321.049,313.241,328.7z M303.041,309.6v-0.008
		c0.523-0.522,1.25-0.856,2.074-0.856c0.808,0,1.543,0.334,2.073,0.864c0.53,0.529,0.863,1.265,0.863,2.081
		c0,0.814-0.325,1.551-0.847,2.072h-0.017c-0.53,0.53-1.266,0.862-2.073,0.862c-0.823,0-1.551-0.323-2.074-0.846l-0.015-0.017
		c-0.522-0.521-0.847-1.258-0.847-2.072C302.179,310.864,302.511,310.129,303.041,309.6z M350.671,297.737
		c5.579-12.566,14.979-23.313,26.849-30.965c1.68-1.084,3.415-2.098,5.191-3.054v27.262c-1.243,0.444-2.365,1.15-3.283,2.064
		l-0.008,0.008v0.007c-1.599,1.592-2.588,3.791-2.588,6.213c0,2.438,0.989,4.637,2.588,6.234V305.5
		c0.92,0.921,2.044,1.629,3.292,2.073v24.183c-1.776-0.957-3.511-1.971-5.191-3.056C365.65,321.049,356.25,310.303,350.671,297.737z
		 M462.919,328.7c-1.68,1.083-3.414,2.099-5.19,3.054v-35.195c1.25-0.443,2.375-1.151,3.292-2.067
		c1.59-1.59,2.579-3.798,2.579-6.228c0-2.429-0.989-4.628-2.586-6.228l0.007-0.008c-0.917-0.916-2.042-1.624-3.292-2.067v-16.244
		c1.776,0.956,3.511,1.97,5.19,3.054c11.871,7.652,21.263,18.398,26.849,30.965C484.19,310.303,474.79,321.049,462.919,328.7z
		 M537.13,295.125c-0.531,0.531-1.268,0.855-2.073,0.855c-0.823,0-1.561-0.325-2.082-0.847v-0.008
		c-0.529-0.53-0.854-1.273-0.854-2.081c0-0.815,0.325-1.551,0.846-2.073l0.009-0.017c0.521-0.522,1.259-0.846,2.082-0.846
		c0.806,0,1.542,0.332,2.073,0.863h0.014c0.524,0.521,0.848,1.258,0.848,2.073C537.991,293.852,537.659,294.595,537.13,295.125z"/>
</g>
</svg>
