<?xml version="1.0" encoding="utf-8"?>
<!-- Generator: Adobe Illustrator 16.0.0, SVG Export Plug-In . SVG Version: 6.00 Build 0)  -->
<!DOCTYPE svg PUBLIC "-//W3C//DTD SVG 1.1//EN" "http://www.w3.org/Graphics/SVG/1.1/DTD/svg11.dtd">
<svg version="1.1" xmlns="http://www.w3.org/2000/svg" xmlns:xlink="http://www.w3.org/1999/xlink" x="0px" y="0px"
	 width="841.89px" height="595.28px" viewBox="0 0 841.89 595.28" enable-background="new 0 0 841.89 595.28" xml:space="preserve">
<g id="background">
	<rect fill="#003471" width="841.89" height="595.28"/>
</g>
<g id="divider">
	<polygon fill="#FFFFFF" points="309.396,191.28 309.396,406.519 308.231,406.519 308.231,191.28 309.396,191.28 	"/>
</g>
<g id="text">
	<path fill="#FFFFFF" d="M359.392,218.222c0.876-2.971,1.349-4.589,2.16-6.684c-2.565-2.024-6.213-3.308-11.073-3.308
		c-8.032,0-15.188,5.129-15.188,14.448c0,15.325,20.117,12.625,20.117,22.818c0,3.78-2.633,6.884-7.898,6.884
		c-5.468,0-8.573-3.375-9.317-7.29h-1.282c-0.473,3.039-1.082,5.468-1.958,8.573c1.958,1.486,6.009,2.904,10.869,2.904
		c10.733,0,17.89-6.211,17.89-15.257c0-15.325-20.523-12.828-20.523-22.818c0-3.242,2.902-6.077,7.021-6.077
		s6.751,1.958,8.168,5.806H359.392L359.392,218.222z M396.416,229.361c-1.891-3.105-6.954-13.568-10.059-20.252
		c-2.025,0.135-3.983,0.338-6.007,0.338c-2.026,0-4.053-0.204-6.077-0.338c2.093,3.849,9.79,18.294,14.446,27.273
		c0.067,2.093,0.136,4.187,0.136,6.278c0,4.186-0.607,8.709-0.811,13.031c1.891-0.136,3.848-0.34,5.738-0.34
		c1.891,0,3.849,0.204,5.737,0.34c-0.606-5.065-0.675-9.656-0.675-14.111c0-2.228,0.136-4.455,0.136-6.615
		c4.32-8.507,11.139-20.793,14.108-25.856c-1.147,0.135-2.161,0.338-3.24,0.338c-1.08,0-2.093-0.204-3.106-0.338
		c-2.969,6.615-6.548,15.121-10.193,20.252H396.416L396.416,229.361z M427.094,222.542c0,13.771-1.012,31.19-1.352,33.149
		c1.016-0.204,2.096-0.34,3.105-0.34c1.014,0,2.096,0.136,3.176,0.34c-0.205-2.5-0.406-6.28-0.406-17.081
		c0-5.062,0-10.667,0.133-15.729c10.398,10.937,20.254,21.874,29.504,32.811c0.809-0.204,1.688-0.34,2.633-0.34
		c0.943,0,1.822,0.136,2.768,0.34c0-17.959,0-26.938,1.08-46.583c-1.014,0.202-2.025,0.338-3.039,0.338
		c-1.012,0-2.023-0.136-3.037-0.338c0.473,3.039,0.473,21.401,0.473,32.134c-9.924-10.733-19.576-21.401-29.301-32.134
		c-1.012,0.202-2.023,0.338-3.035,0.338c-1.014,0-2.027-0.136-3.037-0.338C426.822,212.349,427.094,216.468,427.094,222.542
		L427.094,222.542z M493.486,236.989c0,7.562-0.137,12.758-0.543,18.702c1.486-0.136,3.309-0.34,5.537-0.34s4.051,0.204,5.535,0.34
		c-0.404-5.944-0.539-11.14-0.539-18.702v-16.877c0-2.564,0-4.995,0.135-5.94c2.699,0,8.371,0.405,12.016,0.878
		c-0.201-1.011-0.338-1.958-0.338-2.969c0-1.015,0.137-1.958,0.338-2.971c-5.736,0.202-8.775,0.338-17.146,0.338
		c-8.373,0-11.408-0.136-17.553-0.338c0.201,1.013,0.338,1.957,0.338,2.971c0,1.011-0.137,1.958-0.338,2.969
		c4.051-0.473,9.723-0.878,12.355-0.878c0.203,0.945,0.203,3.376,0.203,5.94V236.989L493.486,236.989z M560.078,236.989
		c0,7.562-0.137,12.758-0.541,18.702c1.486-0.136,3.307-0.34,5.535-0.34s4.053,0.204,5.537,0.34
		c-0.404-5.944-0.541-11.14-0.541-18.702v-9.181c0-7.56,0.137-12.759,0.541-18.699c-1.484,0.135-3.309,0.338-5.537,0.338
		s-4.049-0.204-5.535-0.338c0.404,5.873,0.541,11.072,0.541,18.564c-2.564,0.068-5.402,0.135-10.195,0.135
		s-8.033-0.067-10.328-0.135c0-7.493,0.135-12.691,0.539-18.564c-1.484,0.135-3.307,0.338-5.535,0.338
		c-2.227,0-4.049-0.204-5.535-0.338c0.406,5.94,0.539,11.139,0.539,18.699v9.181c0,7.562-0.133,12.758-0.539,18.702
		c1.486-0.136,3.309-0.34,5.535-0.34c2.229,0,4.051,0.204,5.535,0.34c-0.404-5.944-0.539-11.14-0.539-18.702v-3.846
		c3.443-0.136,6.885-0.272,10.262-0.272c3.443,0,6.818,0.204,10.262,0.272V236.989L560.078,236.989z M587.988,236.989
		c0,7.562-0.135,12.758-0.539,18.702c1.484-0.136,3.307-0.34,14.311-0.34c6.213,0,9.383,0.271,11.814,0.34
		c-0.135-0.811-0.27-1.485-0.27-2.905c0-1.417,0.135-2.091,0.27-3.039c-5.197,0.609-10.395,0.878-15.459,0.878
		c-0.137-2.7-0.201-5.603-0.201-8.437c0-2.904,0.064-5.807,0.064-8.641c5.133,0,10.195,0.2,15.326,0.606
		c-0.203-1.417-0.336-2.026-0.336-2.768c0-0.877,0.064-1.486,0.336-3.039c-5.131,0.271-9.451,0.406-15.326,0.541
		c0-4.928,0-9.788,0.34-14.717c2.023,0,10.127,0.473,15.256,0.811c-0.135-1.013-0.27-1.622-0.27-3.038
		c0-1.216,0.135-2.024,0.27-2.835c-1.822,0.202-7.494,0.338-14.107,0.338c-3.984,0-8.035-0.272-12.018-0.338
		c0.404,5.94,0.539,11.139,0.539,18.699V236.989L587.988,236.989z M636.828,236.989c0,7.562-0.137,12.758-0.543,18.702
		c1.486-0.136,3.309-0.34,5.539-0.34c2.227,0,4.049,0.204,5.535,0.34c-0.406-5.944-0.541-11.14-0.541-18.702v-16.877
		c0-2.564,0-4.995,0.135-5.94c2.699,0,8.371,0.405,12.018,0.878c-0.203-1.011-0.34-1.958-0.34-2.969c0-1.015,0.137-1.958,0.34-2.971
		c-5.738,0.202-8.777,0.338-17.146,0.338c-8.373,0-11.412-0.136-17.555-0.338c0.203,1.013,0.338,1.957,0.338,2.971
		c0,1.011-0.135,1.958-0.338,2.969c4.051-0.473,9.723-0.878,12.355-0.878c0.203,0.945,0.203,3.376,0.203,5.94V236.989
		L636.828,236.989z M673.176,236.989c0,7.562-0.135,12.758-0.541,18.702c1.486-0.136,3.309-0.34,5.535-0.34
		c2.229,0,4.051,0.204,5.539,0.34c-0.406-5.944-0.543-11.14-0.543-18.702v-9.181c0-7.56,0.137-12.759,0.543-18.699
		c-1.488,0.135-3.311,0.338-5.539,0.338c-2.227,0-4.049-0.204-5.535-0.338c0.406,5.94,0.541,11.139,0.541,18.699V236.989
		L673.176,236.989z M737.541,247.318c-2.9,3.038-7.898,5.063-12.219,5.063c-7.764,0-16-5.468-16-19.374
		c0-14.312,8.17-20.59,15.393-20.59c4.793,0,8.236,1.822,11.611,6.009h0.947c0.201-2.296,0.674-4.66,1.551-6.887
		c-3.105-1.891-9.045-3.308-13.771-3.308c-14.178,0-26.801,7.156-26.801,25.789c0,12.759,9.248,22.548,24.91,22.548
		c5.537,0,10.193-1.08,13.771-2.971c0.203-1.891,0.744-3.85,1.484-5.739L737.541,247.318L737.541,247.318z M338.462,303.446
		c0,7.582-0.133,12.801-0.539,18.744c1.485-0.137,4.388-0.338,6.818-0.338c3.375,0,6.346,0.338,9.923,0.338
		c8.035,0,15.73-3.85,15.73-13.537c0-8.133-8.034-11.105-12.15-11.307v-0.135c4.186-0.676,11.003-3.782,11.003-11.139
		c0-7.359-5.535-10.464-13.636-10.464c-3.849,0-8.304,0.338-12.153,0.338c-2.228,0-4.05-0.202-5.535-0.338
		c0.405,5.94,0.539,11.139,0.539,18.699V303.446L338.462,303.446z M359.256,287.356c0,5.737-3.848,8.573-7.697,8.573h-3.037
		c0-2.296-0.067-4.456-0.067-6.887c0-2.294,0.136-6.075,0.27-9.384c0.878-0.135,1.349-0.2,3.307-0.2
		C357.367,279.458,359.256,283.034,359.256,287.356L359.256,287.356z M359.729,309.159c0,5.875-3.442,9.182-7.424,9.182
		c-1.485,0-2.5-0.066-3.713-0.135c0-2.361-0.136-7.559-0.136-11.814c0-2.768,0.067-4.658,0.067-6.547c0.809,0,1.688-0.07,2.904-0.07
		C356.825,299.774,359.729,302.882,359.729,309.159L359.729,309.159z M386.492,303.489c0,7.563-0.135,12.758-0.54,18.701
		c1.485-0.137,3.308-0.338,5.535-0.338c2.229,0,4.051,0.201,5.537,0.338c-0.405-5.943-0.542-11.139-0.542-18.701v-9.182
		c0-7.56,0.136-12.759,0.542-18.699c-1.485,0.136-3.307,0.338-5.537,0.338c-2.227,0-4.049-0.202-5.535-0.338
		c0.405,5.94,0.54,11.139,0.54,18.699V303.489L386.492,303.489z M411.567,298.899c0,16.877,11.478,24.17,25.722,24.17
		c15.053,0,25.789-10.871,25.789-24.238c0-16.27-11.275-24.101-25.588-24.101C421.83,274.73,411.567,285.6,411.567,298.899
		L411.567,298.899z M452.004,297.415c0,14.717-7.088,21.465-15.188,21.465c-7.563,0-14.178-4.992-14.178-19.373
		c0-11.612,5.4-20.928,14.65-20.928C445.996,278.579,452.004,285.734,452.004,297.415L452.004,297.415z M477.959,303.489
		c0,7.563-0.135,12.758-0.539,18.701c1.484-0.137,3.307-0.338,14.311-0.338c6.211,0,9.383,0.27,11.814,0.338
		c-0.135-0.811-0.27-1.484-0.27-2.904c0-1.418,0.135-2.092,0.27-3.039c-5.199,0.609-10.395,0.879-15.459,0.879
		c-0.068-3.512-0.137-8.641-0.137-13.637v-9.182c0-7.56,0.137-12.759,0.541-18.699c-1.484,0.136-3.309,0.338-5.535,0.338
		c-2.229,0-4.051-0.202-5.535-0.338c0.404,5.94,0.539,11.139,0.539,18.699V303.489L477.959,303.489z M514.578,298.899
		c0,16.877,11.477,24.17,25.721,24.17c15.055,0,25.789-10.871,25.789-24.238c0-16.27-11.275-24.101-25.586-24.101
		C524.84,274.73,514.578,285.6,514.578,298.899L514.578,298.899z M555.016,297.415c0,14.717-7.088,21.465-15.189,21.465
		c-7.563,0-14.178-4.992-14.178-19.373c0-11.612,5.4-20.928,14.65-20.928C549.008,278.579,555.016,285.734,555.016,297.415
		L555.016,297.415z M620.463,285.667c0.404-2.296,1.146-4.591,1.889-6.887c-4.859-2.564-9.451-4.05-16.27-4.05
		c-15.863,0-27.947,8.574-27.947,25.722c0,13.771,11.139,22.617,26.664,22.617c5.941,0,12.152-1.283,18.025-2.973
		c-0.133-1.014-0.203-4.59-0.203-7.426c0-4.32,0.203-9.924,0.541-11.342c-0.877,0.135-2.227,0.338-5.469,0.338
		c-2.768,0-4.117-0.203-4.996-0.338c0.068,1.283,0.473,4.32,0.473,11.611c0,1.957,0,3.646-0.201,4.727
		c-1.082,0.742-5.064,1.213-7.359,1.213c-10.396,0-16.404-8.1-16.404-18.832c0-14.177,8.641-21.132,17.014-21.132
		c6.143,0,10.463,2.7,13.297,6.751H620.463L620.463,285.667z M657.689,295.86c-1.893-3.105-6.953-13.568-10.059-20.252
		c-2.025,0.136-3.982,0.338-6.008,0.338s-4.051-0.202-6.078-0.338c2.096,3.849,9.791,18.294,14.449,27.273
		c0.066,2.094,0.135,4.186,0.135,6.277c0,4.186-0.607,8.709-0.811,13.031c1.891-0.137,3.846-0.338,5.738-0.338
		c1.891,0,3.848,0.201,5.738,0.338c-0.607-5.064-0.676-9.656-0.676-14.111c0-2.227,0.137-4.455,0.137-6.615
		c4.32-8.505,11.139-20.793,14.107-25.855c-1.146,0.136-2.16,0.338-3.24,0.338s-2.092-0.202-3.105-0.338
		c-2.969,6.615-6.549,15.123-10.193,20.252H657.689L657.689,295.86z M346.43,369.989c0,7.563-0.135,12.758-0.54,18.701
		c1.485-0.137,3.307-0.338,5.537-0.338c2.228,0,4.049,0.201,5.535,0.338c-0.405-5.943-0.542-11.139-0.542-18.701v-16.877
		c0-2.564,0-4.996,0.136-5.941c2.7,0,8.372,0.406,12.017,0.877c-0.202-1.012-0.338-1.957-0.338-2.969
		c0-1.014,0.136-1.959,0.338-2.971c-5.737,0.203-8.775,0.338-17.146,0.338c-8.373,0-11.411-0.135-17.554-0.338
		c0.202,1.012,0.338,1.957,0.338,2.971c0,1.012-0.136,1.957-0.338,2.969c4.051-0.471,9.722-0.877,12.355-0.877
		c0.202,0.945,0.202,3.377,0.202,5.941V369.989L346.43,369.989z M405.191,388.69c2.025-0.137,4.119-0.338,6.144-0.338
		c2.024,0,4.049,0.201,6.077,0.338c-4.929-7.629-10.059-15.324-14.381-22.955c6.684-1.688,10.464-5.873,10.464-12.422
		c0-3.982-1.688-6.953-4.388-8.91c-2.364-1.688-4.86-2.295-11.68-2.295c-4.59,0-7.494,0.338-9.924,0.338
		c-2.228,0-4.049-0.203-5.535-0.338c0.405,5.939,0.54,11.139,0.54,18.699v9.182c0,7.563-0.135,12.758-0.54,18.701
		c1.485-0.137,3.307-0.338,5.535-0.338s4.052,0.201,5.537,0.338c-0.404-5.943-0.54-11.139-0.54-18.701v-2.768h0.609L405.191,388.69
		L405.191,388.69z M403.167,354.8c0,6.346-3.242,9.654-9.182,9.654c-0.471,0-0.945-0.066-1.485-0.137
		c0-6.143,0.067-12.217,0.203-18.361C400.06,345.956,403.167,346.835,403.167,354.8L403.167,354.8z M449.574,341.771
		c-0.879,0.135-1.688,0.338-2.564,0.338c-0.879,0-1.689-0.203-2.568-0.338c-5.803,15.393-15.932,39.426-19.238,46.92
		c1.281-0.137,2.297-0.338,3.377-0.338s2.09,0.201,3.17,0.338c1.285-4.66,2.77-9.25,4.592-13.842
		c2.363-0.066,4.656-0.133,7.02-0.133c2.902,0,5.738,0.066,8.643,0.133c1.688,4.592,3.238,9.25,4.658,13.842
		c1.891-0.137,3.846-0.338,5.738-0.338c1.891,0,3.779,0.201,5.941,0.338C463.211,377.685,455.313,357.163,449.574,341.771
		L449.574,341.771z M438.096,370.866c1.959-5.469,4.053-10.801,6.346-16.066c2.162,5.266,4.053,10.598,6.01,16.066H438.096
		L438.096,370.866z M482.074,369.989c0,7.563-0.135,12.758-0.541,18.701c1.486-0.137,3.307-0.338,5.535-0.338
		c2.23,0,4.053,0.201,5.537,0.338c-0.404-5.943-0.541-11.139-0.541-18.701v-9.182c0-7.561,0.137-12.76,0.541-18.699
		c-1.484,0.135-3.307,0.338-5.537,0.338c-2.229,0-4.049-0.203-5.535-0.338c0.406,5.939,0.541,11.139,0.541,18.699V369.989
		L482.074,369.989z M510.795,369.989c0,7.563-0.133,12.758-0.539,18.701c1.486-0.137,3.309-0.338,14.311-0.338
		c6.213,0,9.383,0.268,11.814,0.338c-0.135-0.811-0.27-1.486-0.27-2.904c0-1.416,0.135-2.092,0.27-3.039
		c-5.197,0.607-10.395,0.877-15.459,0.877c-0.068-3.51-0.135-8.641-0.135-13.635v-9.182c0-7.561,0.135-12.76,0.539-18.699
		c-1.484,0.135-3.309,0.338-5.535,0.338s-4.049-0.203-5.535-0.338c0.406,5.939,0.539,11.139,0.539,18.699V369.989L510.795,369.989z
		 M571.988,351.222c0.877-2.971,1.35-4.59,2.16-6.684c-2.566-2.025-6.213-3.309-11.072-3.309c-8.033,0-15.189,5.131-15.189,14.447
		c0,15.326,20.117,12.625,20.117,22.818c0,3.781-2.633,6.887-7.898,6.887c-5.467,0-8.572-3.375-9.316-7.293h-1.281
		c-0.473,3.039-1.082,5.471-1.959,8.574c1.959,1.486,6.01,2.904,10.869,2.904c10.734,0,17.891-6.213,17.891-15.258
		c0-15.324-20.523-12.828-20.523-22.818c0-3.24,2.902-6.076,7.021-6.076c4.117,0,6.75,1.959,8.168,5.807H571.988L571.988,351.222z"
		/>
</g>
<g id="helix">
	<path fill="#FFFFFF" d="M282.335,270.292v-7.525c-5.78,1.746-11.192,4.269-16.102,7.431c-8.173,5.273-14.938,12.345-19.671,20.611
		c-4.733-8.266-11.499-15.339-19.673-20.611c-10.002-6.447-22.108-10.224-35.137-10.224c-13.03,0-25.134,3.777-35.138,10.224
		c-8.173,5.271-14.938,12.345-19.672,20.61c-4.733-8.266-11.497-15.337-19.671-20.61c-4.906-3.162-10.32-5.683-16.102-7.431v7.525
		c1.406,0.483,2.784,1.018,4.132,1.602v31.133c-0.913,0.324-1.733,0.85-2.406,1.525l-0.006-0.006
		c-1.166,1.166-1.889,2.783-1.889,4.563c0,1.775,0.721,3.387,1.889,4.555l0.006,0.004l0.003,0.004
		c0.672,0.672,1.492,1.197,2.403,1.521v10.713c-1.348,0.582-2.726,1.119-4.132,1.602v7.527c5.781-1.748,11.195-4.27,16.102-7.432
		c8.174-5.272,14.938-12.348,19.671-20.612c4.733,8.266,11.499,15.34,19.672,20.612c10.004,6.447,22.108,10.225,35.138,10.225
		c13.029,0,25.135-3.777,35.137-10.225c8.175-5.273,14.94-12.347,19.673-20.613c4.733,8.266,11.499,15.341,19.671,20.613
		c4.909,3.162,10.322,5.686,16.102,7.432v-7.527c-1.475-0.506-2.919-1.07-4.331-1.689V301.55c0.917-0.324,1.739-0.85,2.413-1.521
		c1.166-1.168,1.889-2.784,1.889-4.564c0-1.776-0.725-3.389-1.895-4.558l0.006-0.004c-0.673-0.673-1.496-1.2-2.413-1.524v-17.396
		C279.417,271.365,280.862,270.798,282.335,270.292z M217.071,294.112c-0.6,0-1.138-0.238-1.521-0.623v-0.008
		c-0.388-0.389-0.63-0.929-0.63-1.521c0-0.6,0.239-1.138,0.621-1.522l0.009-0.007c0.383-0.383,0.921-0.621,1.521-0.621
		c0.594,0,1.134,0.242,1.521,0.628h0.009c0.382,0.384,0.621,0.923,0.621,1.522c0,0.592-0.242,1.132-0.63,1.521
		C218.205,293.869,217.665,294.112,217.071,294.112z M214.92,285.877c-0.912,0.324-1.732,0.849-2.403,1.521l-0.003,0.004
		l-0.004,0.005c-1.169,1.168-1.891,2.778-1.891,4.554c0,1.779,0.724,3.395,1.891,4.562l0.004-0.005
		c0.673,0.675,1.493,1.201,2.407,1.525v27.853c-6.429,2.783-13.527,4.452-21.017,4.72v-7.482c0.916-0.324,1.74-0.843,2.413-1.516
		c1.167-1.166,1.889-2.783,1.889-4.563c0-1.777-0.725-3.389-1.896-4.559l0.006-0.004c-0.673-0.674-1.496-1.199-2.413-1.523v-43.788
		c7.49,0.268,14.588,1.937,21.017,4.721V285.877z M164.911,298.498c0.382-0.383,0.921-0.622,1.521-0.622
		c0.594,0,1.134,0.242,1.521,0.63h0.009c0.383,0.383,0.621,0.922,0.621,1.521c0,0.592-0.241,1.131-0.63,1.52
		c-0.387,0.389-0.927,0.631-1.521,0.631c-0.6,0-1.138-0.238-1.521-0.623v-0.008c-0.387-0.389-0.63-0.928-0.63-1.52
		c0-0.6,0.239-1.139,0.621-1.521L164.911,298.498z M168.582,306.114c0.917-0.324,1.74-0.852,2.413-1.525
		c1.166-1.166,1.89-2.781,1.89-4.561c0-1.778-0.725-3.391-1.896-4.558l0.006-0.006c-0.673-0.673-1.496-1.198-2.413-1.522v-22.038
		c6.429-2.785,13.528-4.454,21.019-4.722v43.79c-0.912,0.324-1.732,0.85-2.404,1.521l-0.003,0.004l-0.004,0.004
		c-1.169,1.168-1.891,2.779-1.891,4.555c0,1.779,0.724,3.396,1.891,4.563l0.004-0.004c0.672,0.673,1.494,1.191,2.407,1.517v7.485
		c-7.491-0.268-14.59-1.937-21.019-4.721V306.114z M193.272,318.577c-0.387,0.387-0.927,0.629-1.521,0.629
		c-0.6,0-1.138-0.238-1.521-0.621v-0.008c-0.387-0.389-0.63-0.928-0.63-1.521c0-0.6,0.238-1.139,0.623-1.521l0.008-0.008
		c0.382-0.383,0.921-0.623,1.521-0.623c0.593,0,1.133,0.244,1.521,0.631h0.009c0.382,0.383,0.621,0.922,0.621,1.521
		C193.903,317.649,193.661,318.188,193.272,318.577z M108.974,310.63c-0.387,0.389-0.929,0.631-1.521,0.631
		c-0.6,0-1.138-0.24-1.521-0.621l-0.009-0.01c-0.382-0.383-0.621-0.922-0.621-1.521c0-0.594,0.242-1.133,0.63-1.52v-0.01
		c0.383-0.383,0.921-0.621,1.521-0.621c0.592,0,1.134,0.242,1.521,0.631c0.389,0.387,0.63,0.926,0.63,1.52
		c0,0.6-0.238,1.139-0.621,1.521H108.974z M113.406,321.579c-1.232,0.795-2.5,1.543-3.802,2.244v-8.631
		c0.917-0.324,1.74-0.848,2.411-1.521l-0.004-0.004c1.17-1.17,1.896-2.781,1.896-4.559c0-1.779-0.724-3.396-1.891-4.563
		c-0.671-0.672-1.495-1.197-2.411-1.521v-29.047c1.302,0.699,2.57,1.449,3.802,2.243c8.694,5.604,15.575,13.475,19.663,22.68
		C128.982,308.104,122.1,315.976,113.406,321.579z M140.819,298.899c4.086-9.206,10.969-17.074,19.661-22.679
		c1.23-0.793,2.5-1.536,3.8-2.235v19.958c-0.912,0.324-1.731,0.849-2.403,1.521l-0.003,0.006l-0.004,0.003
		c-1.169,1.168-1.891,2.778-1.891,4.555c0,1.779,0.724,3.395,1.891,4.561l0.004-0.004c0.673,0.676,1.493,1.201,2.406,1.525v17.705
		c-1.3-0.699-2.57-1.441-3.8-2.234C151.788,315.976,144.905,308.104,140.819,298.899z M223.025,321.581
		c-1.231,0.793-2.502,1.536-3.803,2.235v-25.77c0.917-0.324,1.739-0.85,2.413-1.523c1.166-1.167,1.889-2.783,1.889-4.562
		c0-1.778-0.725-3.39-1.896-4.559l0.006-0.004c-0.673-0.673-1.496-1.198-2.413-1.522v-11.891c1.301,0.7,2.572,1.443,3.803,2.236
		c8.691,5.605,15.574,13.474,19.662,22.679C238.602,308.104,231.717,315.976,223.025,321.581z M273.703,323.714
		c-1.232-0.67-2.433-1.381-3.602-2.135c-8.692-5.604-15.575-13.475-19.662-22.679c4.086-9.205,10.969-17.076,19.662-22.68
		c1.169-0.752,2.37-1.465,3.602-2.134v15.295c-0.912,0.324-1.732,0.849-2.404,1.521l-0.002,0.004l-0.005,0.003
		c-1.169,1.168-1.891,2.779-1.891,4.554c0,1.78,0.723,3.396,1.891,4.564l0.005-0.006c0.673,0.674,1.493,1.201,2.406,1.525V323.714z
		 M277.374,296.985c-0.387,0.389-0.927,0.63-1.521,0.63c-0.6,0-1.138-0.239-1.521-0.621v-0.009c-0.388-0.387-0.63-0.927-0.63-1.521
		c0-0.6,0.238-1.138,0.621-1.521l0.009-0.01c0.383-0.382,0.921-0.621,1.521-0.621c0.593,0,1.133,0.242,1.521,0.631h0.009
		c0.382,0.382,0.621,0.921,0.621,1.521C278.004,296.058,277.763,296.598,277.374,296.985z"/>
</g>
<g id="schematics">
	<path fill="#FFFFFF" d="M266.662,248.128h15.673v3.291h-15.673c-0.248,0.701-0.65,1.328-1.166,1.843
		c-0.892,0.894-2.128,1.447-3.49,1.447s-2.598-0.554-3.491-1.447c-0.892-0.893-1.446-2.128-1.446-3.49
		c0-1.361,0.554-2.596,1.446-3.489c0.894-0.894,2.129-1.447,3.491-1.447s2.598,0.554,3.49,1.447
		C266.012,246.798,266.415,247.427,266.662,248.128L266.662,248.128z M185.928,226.577c0.613,0,1.203,0.113,1.746,0.318
		l10.091-11.996H156.98c-0.248,0.701-0.65,1.328-1.164,1.843c-0.894,0.894-2.128,1.448-3.49,1.448c-1.363,0-2.598-0.554-3.491-1.448
		c-0.894-0.893-1.448-2.128-1.448-3.489c0-1.362,0.554-2.596,1.448-3.49c0.893-0.894,2.128-1.446,3.491-1.446
		c1.362,0,2.596,0.552,3.49,1.446c0.514,0.516,0.917,1.143,1.164,1.844h54.287c0.248-0.701,0.65-1.328,1.166-1.844
		c0.894-0.894,2.128-1.446,3.49-1.446c1.361,0,2.596,0.552,3.489,1.446c0.894,0.894,1.446,2.128,1.446,3.49
		c0,1.361-0.552,2.596-1.446,3.489c-0.893,0.894-2.128,1.448-3.489,1.448c-1.362,0-2.596-0.554-3.49-1.448
		c-0.516-0.516-0.918-1.143-1.166-1.843h-9.222l-11.867,14.105c0.434,0.734,0.686,1.592,0.686,2.509
		c0,1.361-0.554,2.596-1.446,3.489c-0.893,0.894-2.128,1.446-3.489,1.446c-1.363,0-2.598-0.552-3.49-1.446
		c-0.516-0.516-0.918-1.144-1.166-1.845H156.98c-0.248,0.701-0.65,1.329-1.164,1.845c-0.894,0.894-2.128,1.446-3.49,1.446
		c-1.363,0-2.598-0.552-3.491-1.446c-0.894-0.893-1.448-2.128-1.448-3.489c0-0.917,0.253-1.775,0.687-2.509l-11.867-14.105h-13.849
		l-11.867,14.104c0.434,0.736,0.685,1.594,0.685,2.511c0,1.361-0.554,2.596-1.445,3.489c-0.894,0.894-2.13,1.446-3.491,1.446
		c-1.362,0-2.596-0.552-3.49-1.446c-0.894-0.893-1.447-2.128-1.447-3.489c0-1.363,0.554-2.598,1.447-3.491s2.128-1.446,3.49-1.446
		c0.613,0,1.202,0.112,1.746,0.318l12.364-14.696l0.498-0.592h0.756h0.728h13.903h0.729h0.756l0.497,0.592l12.363,14.696
		c0.543-0.205,1.132-0.318,1.747-0.318c1.362,0,2.596,0.554,3.49,1.447c0.514,0.516,0.917,1.143,1.164,1.844h24.292
		c0.248-0.701,0.65-1.328,1.166-1.844C183.33,227.131,184.564,226.577,185.928,226.577L185.928,226.577z M187.09,230.35
		c-0.295-0.297-0.708-0.482-1.163-0.482c-0.456,0-0.869,0.185-1.164,0.482c-0.297,0.296-0.482,0.708-0.482,1.164
		c0,0.455,0.185,0.867,0.482,1.163c0.295,0.297,0.708,0.482,1.164,0.482c0.455,0,0.867-0.185,1.163-0.482
		c0.297-0.295,0.482-0.708,0.482-1.163C187.572,231.058,187.387,230.646,187.09,230.35L187.09,230.35z M106.24,208.317
		c1.361,0,2.598,0.553,3.491,1.447c0.892,0.892,1.445,2.128,1.445,3.49c0,1.361-0.554,2.598-1.445,3.491
		c-0.894,0.893-2.13,1.446-3.491,1.446c-1.362,0-2.596-0.553-3.49-1.446c-0.894-0.894-1.447-2.13-1.447-3.491
		c0-1.362,0.554-2.598,1.447-3.49C103.644,208.87,104.878,208.317,106.24,208.317L106.24,208.317z M107.404,212.089
		c-0.295-0.297-0.71-0.482-1.164-0.482s-0.868,0.185-1.165,0.482c-0.295,0.297-0.48,0.71-0.48,1.164c0,0.455,0.185,0.869,0.48,1.164
		c0.297,0.297,0.71,0.482,1.165,0.482s0.869-0.185,1.164-0.482c0.297-0.295,0.482-0.709,0.482-1.164
		C107.886,212.799,107.701,212.386,107.404,212.089L107.404,212.089z M277.368,208.317c1.361,0,2.598,0.553,3.491,1.447
		c0.892,0.892,1.446,2.128,1.446,3.49c0,1.361-0.554,2.598-1.446,3.491c-0.893,0.893-2.129,1.446-3.491,1.446
		c-0.614,0-1.203-0.112-1.746-0.318l-9.366,11.133c0.436,0.734,0.685,1.592,0.685,2.509c0,1.361-0.552,2.596-1.445,3.489
		c-0.894,0.894-2.128,1.446-3.49,1.446s-2.596-0.552-3.49-1.446c-0.516-0.516-0.917-1.144-1.166-1.845h-21.414
		c-0.107,0.303-0.243,0.592-0.404,0.864l9.364,11.131c0.543-0.205,1.132-0.318,1.747-0.318c1.362,0,2.596,0.554,3.49,1.447
		s1.447,2.128,1.447,3.489c0,1.362-0.554,2.597-1.447,3.49c-0.894,0.894-2.128,1.447-3.49,1.447c-1.363,0-2.598-0.554-3.491-1.447
		c-0.894-0.893-1.446-2.128-1.446-3.49c0-0.916,0.249-1.773,0.685-2.509l-9.364-11.131c-0.543,0.205-1.132,0.318-1.748,0.318
		c-1.361,0-2.596-0.554-3.489-1.448c-0.516-0.516-0.918-1.144-1.166-1.845h-5.418h-4.559h-14.605l-12.594,14.97h21.816
		c0.248-0.701,0.65-1.33,1.166-1.845c0.894-0.894,2.128-1.447,3.49-1.447c1.363,0,2.596,0.554,3.489,1.447
		c0.516,0.516,0.918,1.145,1.166,1.845h10.706h0.754l0.499,0.59l12.365,14.696c0.542-0.205,1.13-0.318,1.745-0.318
		c1.362,0,2.596,0.552,3.49,1.446s1.447,2.128,1.447,3.489c0,1.363-0.554,2.598-1.447,3.491s-2.128,1.446-3.49,1.446
		c-1.363,0-2.598-0.552-3.491-1.446c-0.894-0.894-1.446-2.128-1.446-3.491c0-0.915,0.249-1.773,0.684-2.509l-11.865-14.104h-9.95
		c-0.248,0.701-0.65,1.328-1.166,1.843c-0.893,0.894-2.128,1.447-3.489,1.447c-1.362,0-2.596-0.554-3.49-1.447
		c-0.516-0.516-0.918-1.143-1.166-1.843h-44.907h-9.379c-0.248,0.701-0.65,1.328-1.164,1.843c-0.894,0.894-2.128,1.447-3.49,1.447
		c-0.615,0-1.204-0.113-1.747-0.318l-9.364,11.131c0.435,0.736,0.686,1.594,0.686,2.509c0,1.363-0.554,2.598-1.447,3.491
		s-2.128,1.446-3.49,1.446c-1.361,0-2.596-0.552-3.489-1.446s-1.447-2.128-1.447-3.491c0-1.361,0.554-2.596,1.447-3.489
		s2.128-1.446,3.489-1.446c0.613,0,1.203,0.112,1.746,0.318l9.366-11.133c-0.434-0.736-0.687-1.594-0.687-2.509
		c0-1.361,0.554-2.596,1.448-3.489c0.893-0.894,2.128-1.447,3.491-1.447c1.362,0,2.596,0.554,3.49,1.447
		c0.514,0.516,0.917,1.145,1.164,1.845h9.379h18.811l14.866-17.668l0.497-0.592h0.756h15.361h4.559h5.418
		c0.248-0.703,0.65-1.33,1.166-1.845c0.894-0.894,2.128-1.446,3.489-1.446c1.362,0,2.598,0.552,3.49,1.446
		c0.516,0.516,0.918,1.143,1.166,1.845h21.414c0.248-0.701,0.65-1.328,1.166-1.844c0.894-0.893,2.128-1.447,3.49-1.447
		c0.613,0,1.204,0.113,1.746,0.318l9.364-11.133c-0.436-0.736-0.686-1.594-0.686-2.509c0-1.362,0.554-2.598,1.447-3.49
		C274.772,208.87,276.006,208.317,277.368,208.317L277.368,208.317z M278.532,212.089c-0.295-0.297-0.71-0.482-1.164-0.482
		c-0.455,0-0.868,0.185-1.165,0.482c-0.295,0.297-0.48,0.71-0.48,1.164c0,0.455,0.185,0.869,0.48,1.164
		c0.297,0.297,0.71,0.482,1.165,0.482c0.454,0,0.869-0.185,1.164-0.482c0.297-0.295,0.482-0.709,0.482-1.164
		C279.014,212.799,278.829,212.386,278.532,212.089L278.532,212.089z M247.81,248.608c-0.297-0.297-0.71-0.48-1.165-0.48
		c-0.456,0-0.869,0.183-1.166,0.48c-0.295,0.297-0.48,0.71-0.48,1.164c0,0.455,0.185,0.868,0.48,1.165
		c0.297,0.297,0.71,0.48,1.166,0.48c0.455,0,0.868-0.184,1.165-0.48c0.295-0.297,0.48-0.71,0.48-1.165
		C248.29,249.318,248.105,248.905,247.81,248.608L247.81,248.608z M232.447,230.35c-0.295-0.297-0.71-0.482-1.165-0.482
		c-0.454,0-0.867,0.185-1.164,0.482c-0.295,0.295-0.48,0.708-0.48,1.164c0,0.455,0.185,0.867,0.48,1.164
		c0.297,0.295,0.71,0.48,1.164,0.48c0.455,0,0.869-0.185,1.165-0.48c0.296-0.297,0.481-0.709,0.481-1.164
		C232.929,231.058,232.744,230.645,232.447,230.35L232.447,230.35z M217.084,212.089c-0.295-0.295-0.708-0.48-1.163-0.48
		c-0.455,0-0.867,0.185-1.164,0.48c-0.295,0.297-0.48,0.71-0.48,1.164c0,0.455,0.185,0.867,0.48,1.164
		c0.297,0.295,0.709,0.48,1.164,0.48c0.454,0,0.868-0.185,1.163-0.48c0.297-0.297,0.482-0.709,0.482-1.164
		C217.566,212.799,217.381,212.386,217.084,212.089L217.084,212.089z M153.489,248.608c-0.295-0.297-0.708-0.48-1.163-0.48
		c-0.456,0-0.869,0.183-1.166,0.48c-0.295,0.297-0.48,0.71-0.48,1.164c0,0.455,0.185,0.868,0.48,1.165
		c0.297,0.297,0.709,0.48,1.166,0.48c0.454,0,0.868-0.184,1.163-0.48c0.297-0.297,0.482-0.71,0.482-1.165
		C153.971,249.318,153.786,248.905,153.489,248.608L153.489,248.608z M263.171,230.35c-0.297-0.297-0.71-0.482-1.164-0.482
		c-0.455,0-0.868,0.185-1.165,0.482c-0.295,0.296-0.48,0.708-0.48,1.164c0,0.455,0.185,0.867,0.48,1.163
		c0.297,0.297,0.71,0.482,1.165,0.482c0.454,0,0.867-0.185,1.164-0.482c0.295-0.295,0.48-0.708,0.48-1.163
		C263.651,231.058,263.466,230.646,263.171,230.35L263.171,230.35z M263.171,248.608c-0.297-0.297-0.71-0.48-1.164-0.48
		c-0.455,0-0.869,0.183-1.165,0.48c-0.296,0.297-0.481,0.71-0.481,1.164c0,0.455,0.185,0.868,0.481,1.165
		c0.295,0.297,0.71,0.48,1.165,0.48c0.454,0,0.867-0.184,1.164-0.48s0.482-0.71,0.482-1.165
		C263.653,249.318,263.468,248.905,263.171,248.608L263.171,248.608z M153.489,230.35c-0.295-0.297-0.708-0.482-1.163-0.482
		c-0.456,0-0.869,0.185-1.166,0.482c-0.295,0.296-0.48,0.708-0.48,1.164c0,0.455,0.185,0.867,0.48,1.163
		c0.297,0.297,0.709,0.482,1.166,0.482c0.454,0,0.868-0.185,1.163-0.482c0.297-0.295,0.482-0.708,0.482-1.163
		C153.971,231.058,153.786,230.646,153.489,230.35L153.489,230.35z M107.404,230.35c-0.295-0.297-0.71-0.482-1.164-0.482
		s-0.868,0.185-1.165,0.482c-0.295,0.295-0.48,0.708-0.48,1.164c0,0.455,0.185,0.867,0.48,1.163c0.297,0.297,0.71,0.482,1.165,0.482
		s0.869-0.185,1.164-0.482c0.297-0.295,0.482-0.708,0.482-1.163C107.886,231.058,107.701,230.645,107.404,230.35L107.404,230.35z
		 M136.963,244.835c1.362,0,2.596,0.554,3.49,1.447s1.447,2.128,1.447,3.489c0,1.362-0.554,2.597-1.447,3.49
		c-0.894,0.894-2.128,1.447-3.49,1.447c-1.361,0-2.596-0.554-3.489-1.447c-0.516-0.516-0.918-1.144-1.166-1.845h-31.14v-3.291h31.14
		c0.107-0.303,0.245-0.59,0.406-0.863l-9.364-11.131c-0.543,0.205-1.132,0.318-1.747,0.318c-1.363,0-2.598-0.554-3.491-1.448
		c-0.894-0.893-1.446-2.128-1.446-3.489c0-1.359,0.552-2.59,1.446-3.485v-0.006c0.894-0.894,2.128-1.446,3.491-1.446
		c1.361,0,2.596,0.552,3.489,1.446s1.446,2.128,1.446,3.491c0,0.915-0.25,1.773-0.684,2.509l9.364,11.131
		C135.761,244.949,136.35,244.835,136.963,244.835L136.963,244.835z M138.127,248.608c-0.296-0.297-0.709-0.48-1.164-0.48
		c-0.454,0-0.867,0.183-1.164,0.48c-0.295,0.297-0.48,0.71-0.48,1.164c0,0.455,0.186,0.868,0.48,1.165
		c0.297,0.297,0.71,0.48,1.164,0.48c0.455,0,0.868-0.184,1.164-0.48c0.295-0.297,0.48-0.71,0.48-1.165
		C138.608,249.318,138.423,248.905,138.127,248.608L138.127,248.608z M122.765,230.35c-0.295-0.297-0.708-0.482-1.163-0.482
		c-0.456,0-0.869,0.185-1.165,0.482l-0.003-0.004c-0.295,0.298-0.479,0.709-0.479,1.168c0,0.455,0.185,0.867,0.482,1.164
		c0.295,0.295,0.708,0.48,1.165,0.48c0.454,0,0.867-0.185,1.163-0.48c0.297-0.297,0.482-0.709,0.482-1.164
		C123.247,231.058,123.062,230.645,122.765,230.35L122.765,230.35z M217.086,248.608c-0.296-0.297-0.708-0.48-1.164-0.48
		c-0.455,0-0.867,0.183-1.164,0.48c-0.295,0.297-0.48,0.71-0.48,1.164c0,0.455,0.185,0.868,0.48,1.165
		c0.297,0.297,0.709,0.48,1.164,0.48c0.454,0,0.868-0.184,1.164-0.48c0.297-0.297,0.482-0.71,0.482-1.165
		C217.568,249.318,217.383,248.905,217.086,248.608L217.086,248.608z M246.646,208.318c1.362,0,2.596,0.552,3.49,1.446
		s1.446,2.128,1.446,3.49c0,1.361-0.552,2.596-1.446,3.489c-0.894,0.894-2.128,1.448-3.49,1.448c-1.363,0-2.596-0.554-3.489-1.448
		c-0.894-0.893-1.447-2.128-1.447-3.489c0-1.362,0.554-2.596,1.447-3.49C244.049,208.87,245.283,208.318,246.646,208.318
		L246.646,208.318z M247.808,212.089c-0.295-0.295-0.708-0.48-1.163-0.48c-0.456,0-0.867,0.185-1.164,0.48
		c-0.297,0.297-0.482,0.71-0.482,1.164c0,0.455,0.185,0.867,0.482,1.164c0.297,0.295,0.708,0.48,1.164,0.48
		c0.455,0,0.868-0.185,1.163-0.48c0.297-0.297,0.482-0.709,0.482-1.164C248.29,212.799,248.105,212.386,247.808,212.089
		L247.808,212.089z M247.81,266.868c-0.297-0.297-0.71-0.482-1.165-0.482c-0.456,0-0.869,0.185-1.166,0.482
		c-0.295,0.295-0.48,0.708-0.48,1.163c0,0.456,0.185,0.869,0.48,1.165c0.297,0.296,0.71,0.482,1.166,0.482
		c0.455,0,0.868-0.186,1.165-0.482c0.295-0.295,0.48-0.708,0.48-1.165C248.29,267.577,248.105,267.164,247.81,266.868
		L247.81,266.868z M153.489,212.089c-0.295-0.295-0.708-0.48-1.163-0.48c-0.456,0-0.869,0.185-1.166,0.48
		c-0.295,0.297-0.48,0.71-0.48,1.164c0,0.455,0.185,0.867,0.48,1.164c0.297,0.295,0.709,0.48,1.166,0.48
		c0.454,0,0.868-0.185,1.163-0.48c0.297-0.297,0.482-0.709,0.482-1.164C153.971,212.799,153.786,212.386,153.489,212.089
		L153.489,212.089z M138.127,266.868c-0.296-0.297-0.709-0.482-1.164-0.482c-0.454,0-0.867,0.185-1.164,0.482
		c-0.295,0.295-0.48,0.708-0.48,1.163c0,0.456,0.186,0.869,0.48,1.165c0.297,0.296,0.71,0.482,1.164,0.482
		c0.455,0,0.868-0.186,1.164-0.482c0.295-0.295,0.48-0.708,0.48-1.165C138.608,267.577,138.423,267.164,138.127,266.868
		L138.127,266.868z"/>
	<path fill="#FFFFFF" d="M121.499,352.964c-1.363,0-2.598-0.553-3.49-1.445c-0.516-0.516-0.918-1.145-1.166-1.844h-15.675v-3.291
		h15.675c0.248-0.701,0.65-1.33,1.166-1.846c0.892-0.893,2.126-1.447,3.49-1.447c0.613,0,1.202,0.113,1.745,0.318l9.364-11.131
		c-0.435-0.736-0.686-1.594-0.686-2.51c0-1.361,0.554-2.596,1.448-3.49c0.894-0.893,2.128-1.445,3.489-1.445
		c1.362,0,2.596,0.553,3.49,1.445c0.894,0.895,1.446,2.129,1.446,3.49c0,1.363-0.552,2.598-1.446,3.49
		c-0.894,0.895-2.128,1.445-3.49,1.445c-0.613,0-1.201-0.113-1.744-0.318l-9.368,11.133c0.435,0.736,0.686,1.596,0.686,2.51
		c0,1.361-0.554,2.596-1.446,3.49C124.094,352.411,122.86,352.964,121.499,352.964L121.499,352.964z M121.499,371.224
		c-1.363,0-2.598-0.555-3.49-1.447c-0.516-0.514-0.918-1.143-1.166-1.844h-15.675v-3.291h15.675c0.248-0.699,0.65-1.328,1.166-1.844
		c0.892-0.895,2.126-1.445,3.49-1.445c1.361,0,2.596,0.551,3.489,1.445c0.892,0.893,1.446,2.127,1.446,3.488
		c0,0.918-0.251,1.775-0.686,2.512l9.366,11.131c0.543-0.205,1.132-0.318,1.746-0.318c1.362,0,2.596,0.555,3.49,1.447
		c0.516,0.516,0.917,1.143,1.164,1.844h22.545l-10.091-11.996c-0.543,0.205-1.132,0.318-1.747,0.318
		c-1.361,0-2.596-0.555-3.49-1.447c-0.893-0.893-1.447-2.127-1.447-3.49c0-1.361,0.554-2.596,1.447-3.488
		c0.894-0.895,2.128-1.445,3.49-1.445c1.363,0,2.598,0.551,3.49,1.445c0.893,0.893,1.447,2.127,1.447,3.488
		c0,0.918-0.25,1.777-0.685,2.512l11.867,14.104h42.824c0.248-0.701,0.65-1.33,1.166-1.846c0.894-0.891,2.126-1.445,3.49-1.445
		c1.361,0,2.596,0.555,3.489,1.445v0.006c0.894,0.896,1.448,2.129,1.448,3.486c0,1.361-0.554,2.598-1.448,3.488
		c-0.893,0.895-2.128,1.447-3.489,1.447c-1.363,0-2.596-0.553-3.49-1.447c-0.516-0.514-0.918-1.143-1.166-1.844h-69.649
		c-0.248,0.701-0.648,1.328-1.164,1.844c-0.894,0.895-2.128,1.447-3.49,1.447c-1.361,0-2.596-0.553-3.489-1.447
		c-0.894-0.893-1.448-2.127-1.448-3.488c0-0.916,0.251-1.773,0.686-2.51l-9.364-11.133
		C122.702,371.11,122.112,371.224,121.499,371.224L121.499,371.224z M120.334,367.45c0.297,0.297,0.708,0.482,1.165,0.482
		c0.454,0,0.867-0.186,1.163-0.482c0.296-0.295,0.482-0.707,0.482-1.164c0-0.453-0.186-0.867-0.482-1.162
		c-0.295-0.297-0.708-0.482-1.163-0.482c-0.456,0-0.868,0.186-1.165,0.482c-0.297,0.295-0.482,0.709-0.482,1.162
		C119.852,366.743,120.037,367.155,120.334,367.45L120.334,367.45z M231.179,352.966c-1.361,0-2.596-0.555-3.489-1.447
		c-0.516-0.516-0.918-1.145-1.166-1.844h-24.291c-0.248,0.699-0.65,1.328-1.166,1.844c-0.892,0.893-2.128,1.447-3.489,1.447
		c-0.403,0-0.792-0.049-1.167-0.141l-12.213,14.516l-0.497,0.592h-0.756h-0.728h-13.903h-0.729h-0.754l-0.499-0.592l-12.363-14.693
		c-0.543,0.205-1.132,0.318-1.747,0.318c-1.361,0-2.596-0.555-3.49-1.447c-0.893-0.895-1.447-2.129-1.447-3.49
		s0.554-2.596,1.447-3.49c0.894-0.893,2.128-1.447,3.49-1.447c1.363,0,2.598,0.555,3.49,1.447c0.893,0.895,1.447,2.129,1.447,3.49
		c0,0.914-0.25,1.773-0.685,2.51l11.867,14.104h13.85l11.463-13.623c-0.635-0.83-1.011-1.867-1.011-2.99
		c0-1.361,0.554-2.596,1.447-3.49c0.894-0.893,2.128-1.447,3.49-1.447c1.361,0,2.598,0.555,3.489,1.447
		c0.516,0.516,0.918,1.143,1.166,1.844h24.291c0.248-0.701,0.65-1.328,1.166-1.844c0.894-0.893,2.128-1.447,3.489-1.447
		c0.615,0,1.203,0.113,1.746,0.318l9.364-11.133c-0.436-0.736-0.686-1.592-0.686-2.508c0-1.361,0.554-2.596,1.448-3.49
		c0.893-0.893,2.128-1.445,3.491-1.445c1.362,0,2.596,0.553,3.49,1.445c0.894,0.895,1.447,2.129,1.447,3.49
		c0,1.363-0.554,2.598-1.447,3.49c-0.894,0.895-2.128,1.445-3.49,1.445c-0.615,0-1.203-0.113-1.745-0.318l-9.368,11.133
		c0.435,0.736,0.687,1.596,0.687,2.51c0,1.361-0.554,2.596-1.447,3.49C233.776,352.411,232.541,352.966,231.179,352.966
		L231.179,352.966z M230.015,349.192l0.116,0.105h0.001l0.014,0.012l0.033,0.025l0.015,0.012h0.001l0.031,0.023h0.001l0.031,0.023
		h0.002l0.015,0.01l0.017,0.012h0.002l0.015,0.01l0.017,0.012h0.001l0.016,0.01l0.017,0.01h0.001l0.034,0.02h0.001l0.016,0.01
		l0.018,0.008h0.001l0.016,0.01l0.018,0.01h0.001l0.017,0.008l0.019,0.008h0.001l0.017,0.008l0.019,0.008h0.001l0.017,0.008
		l0.019,0.008h0.001l0.017,0.008l0.02,0.008h0.001l0.017,0.006l0.02,0.006l0.019,0.006l0.02,0.006l0.001,0.002l0.018,0.006
		l0.019,0.006h0.002l0.018,0.006l0.02,0.004h0.001l0.019,0.004l0.02,0.006l0.02,0.004l0.02,0.006h0.002l0.018,0.004l0.02,0.002
		h0.001l0.02,0.004l0.02,0.004l0.042,0.006l0.042,0.004l0.041,0.004l0.043,0.004l0.042,0.002h0.042h0.043l0.042-0.002l0.042-0.004
		l0.042-0.004l0.042-0.004l0.041-0.006l0.02-0.004l0.02-0.004h0.001l0.02-0.002l0.02-0.004l0.04-0.01l0.04-0.01l0.02-0.004
		l0.019-0.006h0.001l0.019-0.006l0.02-0.006v-0.002l0.02-0.006l0.018-0.006l0.039-0.012l0.02-0.008l0.017-0.008h0.001l0.019-0.008
		l0.018-0.008l0.037-0.016l0.019-0.008l0.017-0.008h0.002l0.018-0.01l0.017-0.01l0.035-0.018l0.018-0.01l0.016-0.01h0.001
		l0.017-0.01l0.017-0.01l0.034-0.021l0.017-0.012l0.015-0.01h0.001l0.017-0.012l0.016-0.012l0.032-0.023l0.016-0.012l0.015-0.012
		h0.001l0.015-0.014l0.014-0.012h0.001l0.029-0.023v-0.002l0.016-0.014l0.072-0.066v-0.002l0.014-0.012l0.014-0.014v-0.002
		l0.014-0.014l0.04-0.045l0.012-0.014l0.012-0.016l0,0l0.012-0.014l0.012-0.016v-0.002l0.012-0.016l0.012-0.016l0,0l0.023-0.031
		v-0.002l0.023-0.031l0,0l0.011-0.016l0.011-0.018v-0.002l0.011-0.014l0.011-0.018v-0.002l0.011-0.016l0.009-0.016v-0.002
		l0.02-0.033v-0.002l0.009-0.016l0.009-0.018v-0.002l0.009-0.016l0.009-0.018v-0.002l0.008-0.018l0.009-0.018v-0.002l0.008-0.016
		l0.008-0.02v-0.002l0.007-0.016l0.008-0.02l0,0l0.008-0.018l0.007-0.02v-0.002l0.006-0.018l0.006-0.02l0.006-0.018l0.006-0.02
		h0.001l0.005-0.021l0.006-0.018v-0.002l0.006-0.018l0.004-0.02v-0.002l0.004-0.02l0.005-0.02l0.005-0.02l0.004-0.02v-0.002
		l0.004-0.018l0.003-0.02v-0.002l0.003-0.02l0.004-0.021l0.005-0.041l0.004-0.041l0.004-0.041l0.003-0.043l0.001-0.041v-0.043
		v-0.043l-0.001-0.041l-0.001-0.021l-0.002-0.02v-0.002l-0.001-0.02l-0.003-0.021l-0.004-0.041l-0.002-0.021l-0.003-0.02v-0.002
		l-0.004-0.02l-0.003-0.02v-0.002l-0.003-0.02l-0.004-0.018v-0.002l-0.004-0.02l-0.005-0.02l0,0l-0.005-0.021l-0.004-0.018v-0.002
		l-0.004-0.02l-0.006-0.018v-0.002l-0.006-0.018l-0.005-0.02l-0.001-0.002l-0.006-0.02l-0.006-0.016v-0.002l-0.006-0.021
		l-0.006-0.016v-0.002l-0.007-0.02l-0.008-0.016v-0.002l-0.008-0.02l-0.007-0.016v-0.002l-0.008-0.02l-0.008-0.016v-0.002
		l-0.009-0.018l-0.008-0.016v-0.004l-0.009-0.018l-0.009-0.016v-0.002l-0.009-0.018l-0.009-0.016v-0.002l-0.04-0.066v-0.002
		l-0.011-0.018l-0.011-0.016l0,0l-0.011-0.018l-0.034-0.047v-0.002l-0.096-0.123l0,0l-0.081-0.086v-0.002l-0.087-0.078v-0.002
		l-0.076-0.063l-0.016-0.01v-0.002l-0.015-0.012l-0.017-0.01v-0.002l-0.016-0.01l-0.017-0.012h-0.001l-0.032-0.021v-0.002
		l-0.017-0.01l-0.017-0.01l-0.069-0.039l-0.035-0.02l-0.017-0.008l-0.018-0.01h-0.002l-0.017-0.008l-0.019-0.01l-0.037-0.014
		l-0.018-0.008l-0.019-0.008h-0.001l-0.017-0.008l-0.02-0.008l-0.039-0.012l-0.038-0.014l-0.02-0.006l-0.019-0.006h-0.001
		l-0.019-0.006l-0.02-0.004l-0.04-0.01l-0.04-0.01l-0.02-0.004l-0.02-0.004h-0.001l-0.02-0.002l-0.02-0.006l-0.041-0.004
		l-0.042-0.004l-0.042-0.006l-0.042-0.002l-0.042-0.002h-0.043h-0.042l-0.042,0.002l-0.043,0.002l-0.041,0.006l-0.042,0.004
		l-0.042,0.004l-0.02,0.006l-0.02,0.002h-0.001l-0.02,0.004l-0.018,0.004h-0.002l-0.02,0.006l-0.02,0.004l-0.02,0.004l-0.019,0.006
		h-0.001l-0.02,0.004l-0.018,0.006h-0.002l-0.019,0.006l-0.018,0.006h-0.001l-0.02,0.006l-0.019,0.008l-0.02,0.006l-0.017,0.006
		h-0.001l-0.02,0.008l-0.017,0.008h-0.001l-0.019,0.008l-0.017,0.008h-0.001l-0.019,0.006l-0.017,0.008h-0.001l-0.019,0.01
		l-0.017,0.008h-0.001l-0.018,0.01l-0.016,0.008h-0.001l-0.018,0.01l-0.016,0.01h-0.001l-0.052,0.029l-0.016,0.01h-0.001
		l-0.065,0.043h-0.002c-0.087,0.061-0.168,0.125-0.243,0.199l-0.08,0.088l0,0c-0.06,0.07-0.115,0.145-0.162,0.223v0.002l-0.04,0.066
		v0.002l-0.009,0.016l-0.009,0.018v0.002l-0.009,0.016l-0.009,0.018v0.004l-0.008,0.016l-0.009,0.018v0.002l-0.008,0.016
		l-0.008,0.02v0.002l-0.007,0.016l-0.008,0.02v0.002l-0.008,0.016l-0.007,0.02v0.002l-0.006,0.016l-0.006,0.021v0.002l-0.008,0.016
		l-0.006,0.02v0.002l-0.005,0.02l-0.006,0.018v0.002l-0.006,0.018l-0.004,0.02v0.002l-0.005,0.018l-0.004,0.021l0,0l-0.004,0.02
		l-0.005,0.02v0.002l-0.004,0.018l-0.003,0.02v0.002l-0.002,0.02l-0.005,0.02v0.002l-0.003,0.02l-0.002,0.021l-0.004,0.041
		l-0.003,0.021l-0.001,0.02v0.002l-0.002,0.02l-0.001,0.021l-0.001,0.041v0.043v0.043l0.001,0.041l0.003,0.043l0.004,0.041
		l0.004,0.041l0.005,0.041l0.005,0.021l0.002,0.02v0.002l0.003,0.02l0.004,0.018v0.002l0.005,0.02l0.004,0.02l0.004,0.02l0.005,0.02
		v0.002l0.004,0.02l0.006,0.018v0.002l0.006,0.018l0.005,0.021l0.014,0.037l0.006,0.02l0.006,0.018v0.002l0.007,0.02l0.008,0.018
		l0,0l0.008,0.02l0.007,0.016v0.002l0.008,0.02l0.008,0.016v0.002l0.009,0.018l0.008,0.018v0.002l0.009,0.018l0.009,0.016v0.002
		l0.009,0.018l0.009,0.016v0.002l0.029,0.051l0.011,0.016v0.002l0.043,0.066l0,0l0.119,0.156L230.015,349.192L230.015,349.192z
		 M197.578,371.226c-1.357,0-2.589-0.555-3.483-1.447h-0.006c-0.893-0.895-1.447-2.129-1.447-3.492c0-1.361,0.554-2.596,1.447-3.488
		c0.894-0.895,2.128-1.445,3.49-1.445c1.363,0,2.598,0.551,3.489,1.445c0.516,0.516,0.918,1.145,1.166,1.844h24.291
		c0.248-0.699,0.65-1.328,1.166-1.844c0.894-0.895,2.128-1.447,3.489-1.447c1.362,0,2.598,0.553,3.49,1.447
		c0.894,0.893,1.447,2.127,1.447,3.488c0,0.918-0.251,1.775-0.686,2.512l11.866,14.104h13.851l11.867-14.104
		c-0.435-0.736-0.687-1.594-0.687-2.512c0-1.361,0.554-2.596,1.447-3.488c0.893-0.895,2.128-1.445,3.49-1.445
		c1.363,0,2.598,0.551,3.489,1.445c0.894,0.893,1.447,2.127,1.447,3.488c0,1.363-0.554,2.598-1.447,3.492
		c-0.892,0.893-2.126,1.447-3.489,1.447c-0.614,0-1.201-0.113-1.744-0.32l-12.364,14.695l-0.499,0.592h-0.754h-0.73h-13.901h-0.73
		h-0.756l-0.499-0.592l-12.361-14.693c-0.543,0.205-1.132,0.318-1.748,0.318c-1.361,0-2.596-0.555-3.489-1.447
		c-0.516-0.516-0.918-1.143-1.166-1.846h-24.291c-0.248,0.703-0.65,1.33-1.166,1.846
		C200.175,370.671,198.94,371.226,197.578,371.226L197.578,371.226z M196.41,367.456c0.297,0.293,0.71,0.477,1.167,0.477
		c0.456,0,0.869-0.186,1.164-0.48c0.297-0.297,0.482-0.709,0.482-1.166c0-0.453-0.185-0.867-0.482-1.162
		c-0.295-0.297-0.708-0.482-1.164-0.482c-0.455,0-0.868,0.186-1.165,0.482c-0.295,0.295-0.48,0.709-0.48,1.162
		c0,0.457,0.186,0.869,0.48,1.166L196.41,367.456L196.41,367.456z M151.057,349.192c0.296,0.297,0.709,0.482,1.164,0.482
		c0.456,0,0.869-0.186,1.164-0.482c0.297-0.297,0.482-0.709,0.482-1.164s-0.185-0.867-0.482-1.164
		c-0.295-0.295-0.708-0.48-1.164-0.48c-0.455,0-0.868,0.186-1.164,0.48c-0.295,0.297-0.48,0.709-0.48,1.164
		S150.761,348.896,151.057,349.192L151.057,349.192z M245.376,330.933c0.297,0.297,0.709,0.482,1.166,0.482
		c0.455,0,0.868-0.186,1.165-0.482c0.295-0.295,0.48-0.709,0.48-1.164s-0.185-0.867-0.48-1.164c-0.297-0.295-0.71-0.48-1.165-0.48
		c-0.456,0-0.869,0.186-1.166,0.48c-0.295,0.297-0.48,0.709-0.48,1.164S245.081,330.638,245.376,330.933L245.376,330.933z
		 M135.695,330.933c0.297,0.297,0.709,0.482,1.164,0.482s0.867-0.186,1.163-0.482c0.297-0.295,0.482-0.709,0.482-1.164
		s-0.185-0.867-0.482-1.164c-0.295-0.295-0.708-0.48-1.163-0.48s-0.867,0.186-1.164,0.48c-0.295,0.297-0.48,0.709-0.48,1.164
		S135.4,330.638,135.695,330.933L135.695,330.933z M135.695,385.712c0.297,0.295,0.709,0.48,1.164,0.48s0.867-0.186,1.163-0.48
		c0.297-0.297,0.482-0.711,0.482-1.164c0-0.455-0.185-0.867-0.482-1.164c-0.295-0.297-0.708-0.48-1.163-0.48
		s-0.867,0.184-1.164,0.48c-0.295,0.297-0.48,0.709-0.48,1.164C135.215,385.001,135.4,385.415,135.695,385.712L135.695,385.712z
		 M246.54,367.933c0.455,0,0.868-0.186,1.164-0.482c0.295-0.295,0.48-0.707,0.48-1.164c0-0.453-0.185-0.867-0.48-1.162
		c-0.296-0.297-0.709-0.482-1.164-0.482s-0.869,0.186-1.164,0.482c-0.297,0.295-0.482,0.709-0.482,1.162
		c0,0.457,0.185,0.869,0.482,1.164C245.671,367.747,246.085,367.933,246.54,367.933L246.54,367.933z M250.03,369.776
		c-0.894,0.893-2.128,1.447-3.49,1.447s-2.598-0.555-3.489-1.447c-0.894-0.893-1.448-2.127-1.448-3.49
		c0-1.361,0.554-2.596,1.448-3.488c0.892-0.895,2.128-1.445,3.489-1.445c0.613,0,1.203,0.111,1.746,0.316l9.366-11.131
		c-0.435-0.736-0.687-1.596-0.687-2.51c0-1.361,0.554-2.596,1.447-3.49c0.894-0.893,2.128-1.447,3.49-1.447
		c1.363,0,2.598,0.555,3.491,1.447c0.515,0.516,0.917,1.145,1.166,1.846h15.777v3.291h-15.779c-0.248,0.699-0.649,1.328-1.164,1.844
		c-0.894,0.893-2.128,1.447-3.491,1.447c-0.613,0-1.201-0.113-1.744-0.32l-9.366,11.135c0.436,0.734,0.686,1.592,0.686,2.506
		C251.477,367.649,250.923,368.884,250.03,369.776L250.03,369.776z M151.057,367.45c0.296,0.297,0.709,0.482,1.164,0.482
		c0.456,0,0.869-0.186,1.164-0.482c0.297-0.295,0.482-0.707,0.482-1.164c0-0.453-0.185-0.867-0.482-1.162
		c-0.295-0.297-0.708-0.482-1.164-0.482c-0.455,0-0.868,0.186-1.164,0.482c-0.295,0.295-0.48,0.709-0.48,1.162
		C150.576,366.743,150.761,367.155,151.057,367.45L151.057,367.45z M261.901,349.675c0.456,0,0.869-0.186,1.164-0.482
		c0.297-0.297,0.482-0.709,0.482-1.164s-0.185-0.867-0.482-1.164c-0.295-0.295-0.708-0.48-1.164-0.48
		c-0.455,0-0.868,0.186-1.164,0.48c-0.297,0.297-0.48,0.709-0.48,1.164s0.184,0.867,0.48,1.164l-0.003,0.004
		C261.031,349.491,261.444,349.675,261.901,349.675L261.901,349.675z M136.859,352.964c-1.361,0-2.596-0.553-3.489-1.445
		c-0.894-0.895-1.448-2.129-1.448-3.49s0.554-2.596,1.448-3.49c0.894-0.893,2.128-1.447,3.489-1.447c1.362,0,2.596,0.555,3.49,1.447
		c0.894,0.895,1.446,2.129,1.446,3.49s-0.552,2.596-1.446,3.49C139.456,352.411,138.221,352.964,136.859,352.964L136.859,352.964z
		 M135.695,349.19c0.297,0.297,0.709,0.482,1.164,0.482s0.867-0.186,1.163-0.482c0.297-0.295,0.482-0.707,0.482-1.162
		s-0.185-0.867-0.482-1.164c-0.295-0.295-0.708-0.48-1.163-0.48s-0.867,0.186-1.164,0.48c-0.295,0.297-0.48,0.709-0.48,1.164
		S135.4,348.896,135.695,349.19L135.695,349.19z M196.413,349.192c0.297,0.297,0.71,0.482,1.165,0.482
		c0.454,0,0.869-0.186,1.164-0.482c0.297-0.297,0.482-0.709,0.482-1.164s-0.185-0.867-0.482-1.164
		c-0.295-0.295-0.71-0.48-1.164-0.48c-0.455,0-0.868,0.186-1.165,0.48c-0.295,0.297-0.48,0.709-0.48,1.164
		S196.118,348.896,196.413,349.192L196.413,349.192z M276.097,367.456c0.297,0.293,0.71,0.477,1.167,0.477
		c0.456,0,0.869-0.186,1.164-0.48c0.297-0.297,0.482-0.709,0.482-1.166c0-0.453-0.185-0.867-0.482-1.162
		c-0.295-0.297-0.708-0.482-1.164-0.482c-0.455,0-0.868,0.186-1.165,0.482c-0.295,0.295-0.48,0.709-0.48,1.162
		c0,0.457,0.185,0.869,0.48,1.166L276.097,367.456L276.097,367.456z M106.136,389.483c-1.362,0-2.596-0.553-3.49-1.447
		c-0.894-0.891-1.447-2.127-1.447-3.488s0.554-2.598,1.447-3.492c0.894-0.891,2.128-1.445,3.49-1.445
		c1.363,0,2.598,0.555,3.49,1.445c0.893,0.895,1.447,2.131,1.447,3.492s-0.554,2.598-1.447,3.488
		C108.733,388.931,107.499,389.483,106.136,389.483L106.136,389.483z M104.971,385.712c0.297,0.297,0.71,0.48,1.165,0.48
		c0.456,0,0.869-0.184,1.164-0.48c0.297-0.297,0.482-0.711,0.482-1.164c0-0.455-0.185-0.869-0.482-1.164
		c-0.295-0.297-0.708-0.482-1.164-0.482c-0.454,0-0.868,0.186-1.165,0.482c-0.295,0.295-0.48,0.709-0.48,1.164
		C104.491,385.001,104.676,385.415,104.971,385.712L104.971,385.712z M230.015,367.452c0.297,0.295,0.71,0.48,1.164,0.48
		c0.455,0,0.868-0.186,1.165-0.48c0.296-0.297,0.481-0.709,0.481-1.166c0-0.453-0.185-0.867-0.481-1.164
		c-0.297-0.295-0.71-0.48-1.165-0.48c-0.454,0-0.867,0.186-1.164,0.48c-0.295,0.297-0.48,0.711-0.48,1.164
		C229.535,366.743,229.72,367.155,230.015,367.452L230.015,367.452z M214.654,385.712c0.297,0.297,0.708,0.48,1.164,0.48
		c0.454,0,0.867-0.184,1.164-0.48c0.295-0.297,0.48-0.711,0.48-1.164c0-0.457-0.182-0.871-0.478-1.168l-0.003,0.004
		c-0.297-0.297-0.71-0.482-1.164-0.482c-0.456,0-0.867,0.186-1.164,0.482c-0.297,0.295-0.48,0.709-0.48,1.164
		C214.173,385.001,214.357,385.415,214.654,385.712L214.654,385.712z M120.334,349.19c0.297,0.297,0.708,0.482,1.165,0.482
		c0.454,0,0.867-0.186,1.163-0.482c0.296-0.295,0.482-0.707,0.482-1.162s-0.186-0.867-0.482-1.164
		c-0.295-0.295-0.708-0.48-1.163-0.48c-0.456,0-0.868,0.186-1.165,0.48c-0.297,0.297-0.482,0.709-0.482,1.164
		S120.037,348.896,120.334,349.19L120.334,349.19z"/>
</g>
</svg>
