<?xml version="1.0" encoding="utf-8"?>
<!-- Generator: Adobe Illustrator 16.0.0, SVG Export Plug-In . SVG Version: 6.00 Build 0)  -->
<!DOCTYPE svg PUBLIC "-//W3C//DTD SVG 1.1//EN" "http://www.w3.org/Graphics/SVG/1.1/DTD/svg11.dtd">
<svg version="1.1" id="Layer_1" xmlns="http://www.w3.org/2000/svg" xmlns:xlink="http://www.w3.org/1999/xlink" x="0px" y="0px"
	 width="260.915px" height="260.916px" viewBox="289.762 167.28 260.915 260.916"
	 enable-background="new 289.762 167.28 260.915 260.916" xml:space="preserve">
<g id="rounded_rectangle">
	<path fill="#939598" d="M295.899,167.28h248.64c3.375,0,6.139,2.762,6.139,6.138v248.641c0,3.375-2.764,6.138-6.139,6.138h-248.64
		c-3.376,0-6.137-2.763-6.137-6.138V173.417C289.762,170.041,292.522,167.28,295.899,167.28L295.899,167.28z"/>
</g>
<g id="schematics">
	<path fill="#636466" d="M537.122,174.052c1.858,0,3.548,0.756,4.766,1.975c1.221,1.222,1.976,2.907,1.976,4.767
		s-0.755,3.547-1.976,4.767c-1.218,1.219-2.906,1.976-4.766,1.976c-0.838,0-1.643-0.155-2.384-0.436l-12.787,15.2
		c0.596,1.004,0.937,2.176,0.937,3.426c0,1.859-0.755,3.544-1.976,4.766c-1.221,1.219-2.904,1.974-4.765,1.974
		s-3.547-0.755-4.766-1.974c-0.702-0.704-1.251-1.563-1.59-2.519h-29.239c-0.146,0.413-0.331,0.808-0.552,1.18l12.783,15.198
		c0.743-0.281,1.549-0.436,2.388-0.436c1.858,0,3.547,0.757,4.766,1.977c1.221,1.219,1.976,2.906,1.976,4.767
		c0,1.858-0.755,3.544-1.976,4.764c-1.219,1.219-2.906,1.975-4.766,1.975c-1.86,0-3.548-0.756-4.769-1.975
		c-1.218-1.22-1.975-2.905-1.975-4.764c0-1.25,0.341-2.423,0.936-3.429l-12.787-15.198c-0.738,0.281-1.543,0.435-2.384,0.435
		c-1.856,0-3.544-0.756-4.762-1.977c-0.704-0.702-1.253-1.562-1.593-2.518h-7.399h-6.225h-19.942l-17.195,20.438h29.787
		c0.339-0.958,0.888-1.816,1.591-2.52c1.221-1.22,2.905-1.977,4.766-1.977s3.546,0.757,4.767,1.977
		c0.703,0.703,1.25,1.562,1.59,2.52h14.617h1.032l0.68,0.807l16.882,20.067c0.741-0.282,1.546-0.437,2.385-0.437
		c1.858,0,3.547,0.757,4.766,1.977c1.221,1.219,1.977,2.904,1.977,4.764c0,1.858-0.756,3.547-1.977,4.766
		c-1.219,1.221-2.906,1.977-4.766,1.977c-1.86,0-3.547-0.756-4.769-1.977c-1.218-1.219-1.975-2.906-1.975-4.766
		c0-1.25,0.344-2.422,0.936-3.426l-16.2-19.259h-13.588c-0.339,0.957-0.887,1.814-1.59,2.519c-1.221,1.219-2.907,1.975-4.767,1.975
		c-1.86,0-3.545-0.756-4.766-1.975c-0.701-0.704-1.252-1.562-1.591-2.519h-61.316H372.74c-0.339,0.957-0.888,1.814-1.591,2.519
		c-1.22,1.219-2.906,1.975-4.766,1.975c-0.838,0-1.643-0.154-2.385-0.435l-12.788,15.201c0.596,1.004,0.938,2.176,0.938,3.426
		c0,1.859-0.757,3.547-1.978,4.766c-1.219,1.221-2.903,1.977-4.764,1.977s-3.545-0.756-4.765-1.977
		c-1.22-1.219-1.976-2.905-1.976-4.766s0.756-3.545,1.976-4.764c1.22-1.22,2.904-1.977,4.765-1.977c0.84,0,1.644,0.154,2.384,0.436
		l12.788-15.199c-0.595-1.003-0.938-2.176-0.938-3.425c0-1.86,0.757-3.548,1.978-4.767c1.219-1.22,2.904-1.977,4.765-1.977
		c1.859,0,3.546,0.757,4.766,1.977c0.703,0.703,1.251,1.562,1.591,2.52h12.809h25.685l20.298-24.124l0.679-0.81h1.032h20.975h6.225
		h7.399c0.342-0.958,0.889-1.815,1.593-2.518c1.218-1.221,2.904-1.977,4.762-1.977c1.86,0,3.549,0.756,4.769,1.977
		c0.702,0.702,1.252,1.561,1.591,2.518h29.238c0.34-0.957,0.889-1.814,1.591-2.518c1.219-1.22,2.904-1.977,4.766-1.977
		c0.837,0,1.642,0.154,2.382,0.437l12.789-15.201c-0.594-1.004-0.936-2.176-0.936-3.426c0-1.859,0.755-3.545,1.975-4.767
		C533.578,174.808,535.263,174.052,537.122,174.052L537.122,174.052z M522.505,228.411h21.399v4.493h-21.401
		c-0.34,0.957-0.887,1.814-1.59,2.519c-1.22,1.219-2.905,1.975-4.766,1.975c-1.859,0-3.547-0.756-4.767-1.975
		c-1.221-1.22-1.976-2.905-1.976-4.764c0-1.86,0.755-3.548,1.976-4.767c1.22-1.22,2.905-1.977,4.767-1.977
		c1.859,0,3.546,0.757,4.766,1.977C521.616,226.595,522.164,227.453,522.505,228.411L522.505,228.411z M412.266,198.985
		c0.838,0,1.641,0.154,2.382,0.437l13.78-16.38H372.74c-0.339,0.958-0.888,1.814-1.591,2.519c-1.22,1.219-2.906,1.975-4.766,1.975
		c-1.858,0-3.546-0.756-4.765-1.975c-1.22-1.221-1.978-2.906-1.978-4.766s0.757-3.544,1.978-4.767
		c1.219-1.218,2.906-1.974,4.765-1.974c1.859,0,3.546,0.755,4.766,1.974c0.703,0.705,1.252,1.563,1.591,2.521h74.125
		c0.339-0.956,0.89-1.814,1.591-2.521c1.221-1.218,2.905-1.974,4.766-1.974c1.859,0,3.545,0.755,4.764,1.974
		c1.221,1.223,1.978,2.907,1.978,4.767s-0.757,3.545-1.978,4.766c-1.219,1.219-2.904,1.975-4.764,1.975
		c-1.86,0-3.545-0.756-4.766-1.975c-0.701-0.703-1.252-1.561-1.591-2.519h-12.592L418.07,202.3c0.597,1.004,0.937,2.176,0.937,3.426
		c0,1.859-0.755,3.544-1.978,4.766c-1.218,1.219-2.903,1.974-4.764,1.974s-3.546-0.755-4.767-1.974
		c-0.702-0.704-1.25-1.563-1.589-2.519h-33.17c-0.339,0.957-0.888,1.814-1.591,2.519c-1.22,1.219-2.906,1.974-4.765,1.974
		c-1.859,0-3.547-0.755-4.766-1.974c-1.22-1.222-1.978-2.906-1.978-4.766c0-1.25,0.343-2.421,0.938-3.425l-16.203-19.26h-18.912
		l-16.2,19.259c0.594,1.004,0.936,2.176,0.936,3.426c0,1.859-0.755,3.544-1.975,4.766c-1.221,1.219-2.908,1.974-4.768,1.974
		c-1.858,0-3.544-0.755-4.764-1.974c-1.22-1.222-1.977-2.906-1.977-4.766s0.756-3.547,1.977-4.766
		c1.22-1.222,2.905-1.977,4.764-1.977c0.839,0,1.644,0.154,2.384,0.436l16.883-20.064l0.679-0.808h1.031h0.996h18.981h0.997h1.033
		l0.679,0.808l16.881,20.066c0.742-0.282,1.545-0.437,2.384-0.437c1.859,0,3.546,0.756,4.766,1.977
		c0.703,0.703,1.252,1.561,1.591,2.518h33.17c0.34-0.957,0.888-1.814,1.59-2.518C408.72,199.741,410.405,198.985,412.266,198.985
		L412.266,198.985z M303.458,174.052c1.859,0,3.547,0.756,4.768,1.975c1.219,1.222,1.975,2.907,1.975,4.767
		s-0.755,3.547-1.975,4.767c-1.221,1.219-2.908,1.976-4.768,1.976c-1.858,0-3.544-0.756-4.764-1.976s-1.977-2.907-1.977-4.767
		s0.756-3.545,1.977-4.767C299.914,174.808,301.598,174.052,303.458,174.052L303.458,174.052z M345.409,223.915
		c1.86,0,3.545,0.757,4.764,1.977c1.221,1.219,1.978,2.906,1.978,4.767c0,1.858-0.757,3.544-1.978,4.764
		c-1.219,1.219-2.903,1.975-4.764,1.975s-3.545-0.756-4.765-1.975c-0.703-0.704-1.252-1.562-1.59-2.519h-42.521v-4.494h42.521
		c0.146-0.412,0.332-0.807,0.551-1.179l-12.787-15.199c-0.742,0.28-1.545,0.435-2.385,0.435c-1.86,0-3.547-0.756-4.767-1.977
		c-1.22-1.22-1.976-2.905-1.976-4.765c0-1.854,0.755-3.537,1.976-4.758v-0.007c1.22-1.222,2.905-1.977,4.767-1.977
		c1.86,0,3.546,0.755,4.766,1.977c1.219,1.219,1.974,2.904,1.974,4.766c0,1.25-0.341,2.42-0.935,3.425l12.787,15.199
		C343.765,224.069,344.569,223.915,345.409,223.915L345.409,223.915z M495.173,174.054c1.858,0,3.546,0.755,4.766,1.974
		c1.219,1.223,1.975,2.907,1.975,4.767s-0.756,3.545-1.975,4.766c-1.22,1.219-2.906,1.975-4.766,1.975
		c-1.86,0-3.545-0.756-4.767-1.975c-1.22-1.221-1.975-2.906-1.975-4.766s0.755-3.544,1.975-4.767
		C491.628,174.809,493.313,174.054,495.173,174.054L495.173,174.054z"/>
	<path fill="#636466" d="M324.292,371.559c-1.859,0-3.545-0.757-4.765-1.978c-0.703-0.7-1.251-1.56-1.59-2.518h-21.403v-4.491
		h21.402c0.338-0.959,0.887-1.817,1.591-2.521c1.219-1.221,2.904-1.978,4.765-1.978c0.839,0,1.643,0.155,2.383,0.437l12.787-15.199
		c-0.594-1.005-0.935-2.178-0.935-3.428c0-1.859,0.755-3.544,1.974-4.766c1.221-1.22,2.906-1.975,4.767-1.975
		c1.859,0,3.545,0.755,4.764,1.975c1.22,1.222,1.976,2.905,1.976,4.766c0,1.859-0.756,3.547-1.976,4.769
		c-1.219,1.218-2.904,1.974-4.764,1.974c-0.838,0-1.643-0.153-2.382-0.435l-12.79,15.199c0.594,1.005,0.937,2.176,0.937,3.426
		c0,1.859-0.756,3.546-1.975,4.765C327.837,370.802,326.152,371.559,324.292,371.559L324.292,371.559z M534.599,396.054
		l-16.884,20.065l-0.68,0.811h-1.031h-0.995h-18.982h-0.997h-1.031l-0.679-0.811l-16.882-20.063
		c-0.739,0.279-1.546,0.434-2.384,0.434c-1.859,0-3.545-0.755-4.766-1.975c-0.703-0.704-1.252-1.563-1.59-2.52h-33.17
		c-0.339,0.956-0.889,1.814-1.591,2.52c-1.22,1.22-2.903,1.975-4.764,1.975c-1.854,0-3.536-0.755-4.761-1.975h-0.008
		c-1.219-1.221-1.974-2.905-1.974-4.767c0-1.86,0.755-3.546,1.974-4.766c1.222-1.219,2.907-1.974,4.769-1.974
		c1.86,0,3.544,0.755,4.764,1.974c0.702,0.703,1.252,1.563,1.591,2.519h33.167c0.339-0.957,0.89-1.814,1.593-2.52
		c1.221-1.22,2.905-1.975,4.766-1.975s3.546,0.755,4.766,1.975c1.219,1.22,1.977,2.906,1.977,4.767c0,1.249-0.344,2.422-0.938,3.426
		l16.203,19.26h18.912l16.202-19.258c-0.597-1.006-0.936-2.179-0.936-3.428c0-1.859,0.757-3.546,1.978-4.766
		c1.218-1.219,2.904-1.974,4.765-1.974c1.858,0,3.544,0.755,4.765,1.974c1.221,1.22,1.976,2.905,1.976,4.766
		c0,1.861-0.755,3.546-1.976,4.767c-1.221,1.22-2.905,1.975-4.765,1.975C536.144,396.49,535.34,396.336,534.599,396.054
		L534.599,396.054z M428.174,371.559c-0.548,0-1.081-0.066-1.594-0.19l-16.675,19.82l-0.68,0.809h-1.031h-0.996h-18.983h-0.995
		h-1.031l-0.682-0.809l-16.881-20.064c-0.742,0.28-1.544,0.436-2.384,0.436c-1.86,0-3.546-0.756-4.766-1.975
		c-1.221-1.221-1.977-2.907-1.977-4.768c0-1.857,0.756-3.545,1.977-4.765c1.219-1.221,2.905-1.978,4.766-1.978
		s3.545,0.757,4.766,1.978c1.22,1.22,1.975,2.905,1.975,4.765c0,1.25-0.341,2.423-0.937,3.426l16.204,19.26h18.912l15.649-18.602
		c-0.865-1.134-1.378-2.549-1.378-4.084c0-1.857,0.755-3.545,1.974-4.765c1.222-1.221,2.907-1.978,4.767-1.978
		s3.546,0.757,4.766,1.978c0.702,0.702,1.252,1.562,1.591,2.519h33.17c0.338-0.957,0.887-1.815,1.59-2.519
		c1.221-1.221,2.905-1.978,4.766-1.978c0.838,0,1.642,0.155,2.384,0.437l12.787-15.198c-0.595-1.005-0.938-2.179-0.938-3.429
		c0-1.859,0.755-3.544,1.977-4.766c1.219-1.22,2.905-1.975,4.766-1.975c1.859,0,3.547,0.755,4.769,1.975
		c1.218,1.222,1.973,2.905,1.973,4.766c0,1.859-0.755,3.547-1.973,4.769c-1.222,1.218-2.908,1.974-4.769,1.974
		c-0.838,0-1.643-0.153-2.383-0.435l-12.789,15.199c0.596,1.004,0.938,2.176,0.938,3.426c0,1.859-0.758,3.547-1.977,4.768
		c-1.22,1.219-2.906,1.975-4.766,1.975c-1.86,0-3.545-0.756-4.766-1.975c-0.704-0.703-1.254-1.563-1.593-2.521H434.53
		c-0.339,0.959-0.887,1.817-1.591,2.521C431.719,370.803,430.033,371.559,428.174,371.559L428.174,371.559z M324.292,396.489
		c-1.859,0-3.545-0.755-4.765-1.975c-0.703-0.703-1.251-1.563-1.59-2.519h-21.403v-4.494h21.403c0.338-0.956,0.887-1.814,1.59-2.519
		c1.219-1.219,2.904-1.974,4.765-1.974s3.545,0.755,4.766,1.974c1.219,1.22,1.975,2.905,1.975,4.766
		c0,1.249-0.341,2.422-0.937,3.426l12.787,15.199c0.741-0.28,1.545-0.434,2.385-0.434c1.859,0,3.545,0.755,4.764,1.976
		c0.704,0.703,1.252,1.563,1.591,2.519h30.784l-13.779-16.38c-0.74,0.281-1.544,0.435-2.383,0.435c-1.859,0-3.546-0.755-4.766-1.975
		c-1.22-1.221-1.977-2.904-1.977-4.766c0-1.86,0.757-3.546,1.977-4.766c1.219-1.219,2.906-1.974,4.766-1.974
		c1.86,0,3.545,0.755,4.767,1.974c1.219,1.22,1.974,2.905,1.974,4.766c0,1.251-0.341,2.422-0.937,3.426l16.202,19.26h58.477
		c0.339-0.958,0.887-1.816,1.59-2.52c1.22-1.22,2.904-1.977,4.764-1.977c1.86,0,3.548,0.757,4.767,1.977v0.009
		c1.22,1.223,1.977,2.904,1.977,4.758c0,1.858-0.757,3.546-1.977,4.766c-1.219,1.219-2.905,1.977-4.767,1.977
		c-1.858,0-3.544-0.758-4.764-1.977c-0.703-0.703-1.253-1.562-1.59-2.518h-95.104c-0.339,0.956-0.887,1.813-1.591,2.516
		c-1.219,1.22-2.904,1.978-4.764,1.978s-3.545-0.758-4.767-1.978c-1.219-1.22-1.974-2.904-1.974-4.764
		c0-1.249,0.341-2.422,0.935-3.427l-12.789-15.2C325.933,396.336,325.129,396.489,324.292,396.489L324.292,396.489z
		 M303.317,421.423c-1.859,0-3.547-0.758-4.767-1.977c-1.22-1.22-1.977-2.906-1.977-4.766c0-1.86,0.756-3.547,1.977-4.767
		c1.22-1.22,2.907-1.977,4.767-1.977c1.858,0,3.545,0.757,4.764,1.977c1.22,1.22,1.977,2.905,1.977,4.767
		c0,1.858-0.757,3.546-1.977,4.766C306.862,420.665,305.176,421.423,303.317,421.423L303.317,421.423z M345.267,371.559
		c-1.859,0-3.545-0.757-4.767-1.978c-1.219-1.219-1.974-2.904-1.974-4.765c0-1.858,0.755-3.545,1.974-4.765
		c1.221-1.221,2.906-1.978,4.767-1.978c1.859,0,3.545,0.757,4.764,1.978c1.22,1.22,1.976,2.905,1.976,4.765
		s-0.756,3.546-1.976,4.765C348.812,370.802,347.127,371.559,345.267,371.559L345.267,371.559z M520.769,369.584
		c-1.218,1.219-2.904,1.975-4.765,1.975c-0.839,0-1.641-0.154-2.382-0.437l-12.79,15.202c0.596,1.005,0.935,2.175,0.935,3.425
		c0,1.86-0.755,3.545-1.974,4.766c-1.22,1.22-2.904,1.975-4.765,1.975s-3.547-0.755-4.768-1.975
		c-1.22-1.221-1.976-2.904-1.976-4.766c0-1.86,0.756-3.546,1.976-4.766c1.221-1.219,2.907-1.974,4.768-1.974
		c0.839,0,1.642,0.151,2.384,0.434l12.785-15.2c-0.594-1.004-0.936-2.177-0.936-3.427c0-1.858,0.755-3.545,1.974-4.765
		c1.221-1.221,2.907-1.978,4.769-1.978c1.86,0,3.547,0.757,4.765,1.978c0.706,0.702,1.254,1.562,1.593,2.521h21.543v4.491h-21.546
		C522.021,368.022,521.473,368.881,520.769,369.584L520.769,369.584z"/>
</g>
<g id="helix">
	<path fill="#FFFFFF" d="M539.151,260.498c0.426-0.18,0.861-0.343,1.293-0.515c0.84-0.334,1.689-0.655,2.545-0.962
		c2.844-1.016,5.765-1.89,8.765-2.584v-10.025c-2.665,0.548-5.283,1.216-7.852,1.991v-0.006c-1.221,0.37-2.426,0.773-3.624,1.194
		c-0.332,0.116-0.662,0.238-0.993,0.357c-0.845,0.309-1.683,0.629-2.515,0.961c-0.349,0.139-0.7,0.275-1.047,0.419
		c-1.073,0.444-2.142,0.904-3.19,1.39c-0.204,0.094-0.401,0.195-0.604,0.29c-0.9,0.424-1.792,0.861-2.672,1.313
		c-0.39,0.2-0.773,0.406-1.159,0.611c-0.705,0.375-1.404,0.761-2.098,1.154c-0.36,0.206-0.723,0.408-1.078,0.618
		c-1.016,0.595-2.019,1.203-3.001,1.836c-11.16,7.2-20.399,16.857-26.861,28.144c-6.464-11.285-15.702-20.943-26.861-28.144
		c-13.657-8.799-30.188-13.959-47.979-13.959s-34.32,5.16-47.979,13.959c-11.16,7.2-20.396,16.857-26.861,28.143
		c-6.463-11.285-15.701-20.942-26.86-28.143c-0.996-0.642-2.012-1.257-3.039-1.859c-0.318-0.188-0.641-0.368-0.961-0.55
		c-0.747-0.426-1.501-0.841-2.264-1.245c-0.338-0.18-0.675-0.361-1.016-0.536c-0.971-0.499-1.951-0.982-2.944-1.447
		c-0.1-0.047-0.197-0.098-0.298-0.144c-1.09-0.504-2.195-0.981-3.312-1.442c-0.323-0.133-0.649-0.261-0.976-0.39
		c-0.854-0.342-1.714-0.67-2.582-0.986c-0.319-0.116-0.638-0.233-0.959-0.347c-1.2-0.421-2.409-0.826-3.635-1.197v0.006
		c-2.566-0.775-5.185-1.443-7.85-1.991v10.025c3,0.694,5.921,1.569,8.765,2.585c0.854,0.307,1.7,0.626,2.538,0.959
		c0.434,0.172,0.872,0.337,1.301,0.518c0.3,0.126,0.59,0.269,0.889,0.397v42.48c-1.248,0.444-2.372,1.152-3.292,2.074v-0.009
		c-1.599,1.598-2.58,3.799-2.58,6.236c0,2.421,0.981,4.621,2.58,6.211v0.009l0.008,0.007c0.919,0.919,2.041,1.625,3.284,2.066
		v14.605c-0.322,0.141-0.637,0.295-0.96,0.431c-0.32,0.134-0.646,0.257-0.969,0.386c-1.027,0.412-2.064,0.805-3.115,1.175
		c-2.744,0.969-5.559,1.809-8.448,2.473v10.021c2.665-0.549,5.283-1.217,7.85-1.993v0.006c0.046-0.014,0.089-0.028,0.135-0.043
		c0.02-0.007,0.039-0.014,0.059-0.019c1.155-0.354,2.296-0.733,3.43-1.132c0.331-0.115,0.659-0.237,0.988-0.355
		c0.857-0.313,1.71-0.638,2.556-0.976c0.331-0.133,0.662-0.263,0.991-0.396c1.113-0.462,2.218-0.938,3.306-1.44
		c0.101-0.047,0.197-0.098,0.297-0.145c0.994-0.464,1.976-0.948,2.945-1.448c0.341-0.175,0.677-0.354,1.014-0.533
		c0.764-0.404,1.518-0.82,2.266-1.246c0.32-0.183,0.642-0.362,0.96-0.551c1.026-0.603,2.043-1.218,3.04-1.859
		c11.159-7.201,20.397-16.857,26.861-28.144c6.463,11.285,15.7,20.941,26.86,28.144c13.658,8.8,30.189,13.959,47.979,13.959
		s34.32-5.159,47.979-13.959c11.159-7.201,20.397-16.857,26.861-28.144c6.462,11.285,15.701,20.941,26.861,28.144
		c0.986,0.637,1.996,1.247,3.013,1.846c0.341,0.199,0.687,0.394,1.03,0.59c0.728,0.413,1.46,0.816,2.201,1.211
		c0.345,0.184,0.688,0.368,1.034,0.546c1.026,0.528,2.063,1.041,3.114,1.53c0.033,0.017,0.064,0.032,0.097,0.047
		c1.123,0.521,2.264,1.013,3.411,1.487c0.258,0.104,0.517,0.205,0.771,0.309c0.932,0.374,1.872,0.732,2.817,1.076
		c0.266,0.095,0.527,0.192,0.794,0.285c1.16,0.407,2.328,0.799,3.513,1.158c0.017,0.006,0.033,0.012,0.05,0.016
		c0.046,0.015,0.09,0.03,0.135,0.044v-0.006c2.567,0.776,5.187,1.444,7.852,1.993v-10.021c-2.89-0.664-5.702-1.503-8.445-2.472
		c-1.053-0.371-2.095-0.765-3.124-1.178c-0.319-0.129-0.642-0.25-0.959-0.382c-0.418-0.174-0.82-0.372-1.233-0.554v-33.112
		c1.25-0.443,2.376-1.153,3.292-2.073c1.591-1.59,2.579-3.799,2.579-6.228c0-2.421-0.988-4.629-2.587-6.221l0.008-0.008
		c-0.916-0.917-2.042-1.624-3.292-2.066v-23.731C538.381,260.848,538.76,260.663,539.151,260.498z M528.837,286.816l-0.009,0.009
		h-0.007c-1.592,1.598-2.579,3.798-2.579,6.22c0,2.429,0.987,4.638,2.579,6.228h0.007c0.921,0.92,2.043,1.628,3.292,2.072v30.245
		c-0.117-0.063-0.24-0.122-0.357-0.188c-0.356-0.195-0.714-0.393-1.068-0.594c-1.184-0.677-2.354-1.372-3.495-2.108
		c-5.177-3.337-9.884-7.264-14.01-11.674c-5.33-5.699-9.688-12.205-12.832-19.289c3.137-7.067,7.483-13.563,12.796-19.254
		c4.135-4.425,8.854-8.363,14.046-11.711c1.142-0.735,2.313-1.431,3.498-2.107c0.354-0.201,0.71-0.397,1.066-0.594
		c0.117-0.063,0.239-0.123,0.356-0.187v20.866C530.878,285.192,529.757,285.898,528.837,286.816z M456.866,290.338
		c-0.53,0.53-1.267,0.862-2.072,0.862c-0.823,0-1.561-0.324-2.082-0.848v-0.016c-0.53-0.53-0.855-1.268-0.855-2.074
		c0-0.823,0.325-1.559,0.849-2.081l0.008-0.008c0.521-0.522,1.259-0.854,2.082-0.854c0.807,0,1.542,0.332,2.072,0.863h0.016
		c0.521,0.522,0.848,1.258,0.848,2.081C457.729,289.072,457.395,289.809,456.866,290.338z M451.855,279.964
		c-1.244,0.444-2.363,1.149-3.282,2.064l-0.008,0.009l-0.009,0.008c-1.59,1.591-2.579,3.79-2.579,6.219
		c0,2.43,0.989,4.637,2.579,6.229l0.009-0.009c0.92,0.92,2.043,1.629,3.29,2.073v38.039c-8.778,3.805-18.473,6.086-28.699,6.453
		v-10.229c1.25-0.441,2.374-1.147,3.29-2.064c1.6-1.593,2.58-3.8,2.58-6.229c0-2.429-0.989-4.628-2.587-6.227l0.007-0.008
		c-0.916-0.918-2.04-1.623-3.29-2.065v-59.795c10.228,0.366,19.921,2.643,28.699,6.445V279.964L451.855,279.964z M383.558,297.198
		l0.008-0.007c0.521-0.522,1.258-0.854,2.081-0.854c0.807,0,1.543,0.332,2.073,0.861h0.017c0.521,0.522,0.846,1.261,0.846,2.074
		c0,0.814-0.332,1.551-0.862,2.08c-0.53,0.531-1.267,0.864-2.073,0.864c-0.823,0-1.56-0.333-2.081-0.855v-0.009
		c-0.531-0.529-0.855-1.266-0.855-2.08C382.711,298.458,383.036,297.721,383.558,297.198z M388.583,307.573
		c1.25-0.441,2.375-1.149,3.292-2.066c1.599-1.598,2.58-3.797,2.58-6.234c0-2.422-0.989-4.621-2.588-6.22l0.008-0.008
		c-0.917-0.916-2.042-1.624-3.292-2.067v-30.099c8.779-3.803,18.475-6.08,28.702-6.445v59.797c-1.244,0.442-2.365,1.149-3.284,2.063
		v0.008l-0.008,0.007c-1.599,1.599-2.588,3.799-2.588,6.22c0,2.43,0.989,4.637,2.588,6.229l0.008-0.009
		c0.916,0.921,2.037,1.63,3.284,2.072v10.229c-10.228-0.367-19.922-2.648-28.702-6.453V307.573L388.583,307.573z M422.295,324.603
		c-0.532,0.529-1.268,0.862-2.074,0.862c-0.823,0-1.551-0.325-2.081-0.848v-0.016c-0.523-0.53-0.855-1.267-0.855-2.074
		c0-0.822,0.324-1.558,0.848-2.08l0.008-0.009c0.53-0.521,1.257-0.846,2.081-0.846c0.808,0,1.542,0.324,2.074,0.854h0.015
		c0.521,0.522,0.848,1.258,0.848,2.08C423.156,323.336,422.822,324.072,422.295,324.603z M313.241,328.699
		c-1.139,0.734-2.308,1.431-3.491,2.105c-0.356,0.204-0.719,0.401-1.081,0.602c-0.203,0.112-0.414,0.213-0.619,0.325v-11.759
		c1.25-0.443,2.375-1.15,3.291-2.066l-0.007-0.007c1.599-1.599,2.587-3.799,2.587-6.22c0-2.438-0.979-4.64-2.58-6.236
		c-0.915-0.917-2.04-1.624-3.29-2.065v-39.634c0.203,0.109,0.413,0.211,0.616,0.322c0.361,0.199,0.724,0.396,1.081,0.602
		c1.185,0.676,2.354,1.371,3.493,2.104c11.87,7.652,21.263,18.398,26.851,30.965C334.512,310.303,325.111,321.049,313.241,328.699z
		 M303.041,309.6v-0.008c0.523-0.522,1.25-0.856,2.074-0.856c0.808,0,1.543,0.334,2.073,0.864c0.529,0.529,0.862,1.265,0.862,2.081
		c0,0.813-0.324,1.551-0.847,2.072h-0.017c-0.53,0.529-1.267,0.861-2.073,0.861c-0.823,0-1.551-0.322-2.074-0.846l-0.015-0.017
		c-0.522-0.521-0.847-1.259-0.847-2.072C302.179,310.864,302.511,310.129,303.041,309.6z M350.671,297.737
		c5.579-12.565,14.979-23.313,26.85-30.965c1.68-1.084,3.415-2.098,5.19-3.054v27.262c-1.243,0.444-2.364,1.15-3.282,2.064
		l-0.009,0.008v0.007c-1.599,1.592-2.588,3.791-2.588,6.213c0,2.438,0.989,4.638,2.588,6.234V305.5
		c0.92,0.921,2.044,1.629,3.292,2.072v24.184c-1.775-0.957-3.511-1.972-5.19-3.057C365.65,321.049,356.25,310.303,350.671,297.737z
		 M462.92,328.699c-1.681,1.083-3.414,2.1-5.19,3.055v-35.195c1.25-0.442,2.375-1.15,3.292-2.066
		c1.59-1.591,2.579-3.799,2.579-6.229c0-2.429-0.989-4.628-2.586-6.228l0.007-0.009c-0.917-0.916-2.042-1.624-3.292-2.066v-16.244
		c1.776,0.956,3.511,1.97,5.19,3.054c11.87,7.652,21.263,18.398,26.849,30.965C484.19,310.303,474.79,321.049,462.92,328.699z
		 M537.131,295.125c-0.531,0.53-1.269,0.854-2.073,0.854c-0.823,0-1.562-0.325-2.082-0.847v-0.008
		c-0.529-0.53-0.854-1.273-0.854-2.081c0-0.815,0.325-1.551,0.847-2.073l0.009-0.017c0.521-0.522,1.259-0.847,2.082-0.847
		c0.806,0,1.542,0.332,2.073,0.863h0.014c0.523,0.521,0.848,1.258,0.848,2.073C537.991,293.852,537.659,294.595,537.131,295.125z"/>
</g>
</svg>
