<?xml version="1.0" encoding="utf-8"?>
<!-- Generator: Adobe Illustrator 16.0.0, SVG Export Plug-In . SVG Version: 6.00 Build 0)  -->
<!DOCTYPE svg PUBLIC "-//W3C//DTD SVG 1.1//EN" "http://www.w3.org/Graphics/SVG/1.1/DTD/svg11.dtd">
<svg version="1.1" id="Layer_1" xmlns="http://www.w3.org/2000/svg" xmlns:xlink="http://www.w3.org/1999/xlink" x="0px" y="0px"
	 width="637.655px" height="215.239px" viewBox="101.169 191.28 637.655 215.239"
	 enable-background="new 101.169 191.28 637.655 215.239" xml:space="preserve">
<g id="divider">
	<polygon fill="#A7A9AC" points="309.396,191.28 309.396,406.519 308.231,406.519 308.231,191.28 	"/>
</g>
<g id="text">
	<path fill="#636466" d="M359.392,218.222c0.876-2.971,1.349-4.589,2.16-6.684c-2.565-2.024-6.214-3.309-11.073-3.309
		c-8.032,0-15.188,5.129-15.188,14.448c0,15.325,20.117,12.625,20.117,22.818c0,3.779-2.633,6.884-7.897,6.884
		c-5.469,0-8.573-3.375-9.317-7.29h-1.282c-0.473,3.039-1.082,5.468-1.958,8.573c1.958,1.485,6.009,2.903,10.869,2.903
		c10.733,0,17.89-6.211,17.89-15.257c0-15.325-20.522-12.828-20.522-22.817c0-3.242,2.901-6.077,7.021-6.077
		s6.751,1.958,8.168,5.806L359.392,218.222L359.392,218.222z M396.416,229.361c-1.891-3.104-6.954-13.567-10.059-20.252
		c-2.025,0.136-3.983,0.338-6.007,0.338c-2.026,0-4.054-0.203-6.077-0.338c2.093,3.85,9.79,18.294,14.446,27.273
		c0.066,2.093,0.136,4.187,0.136,6.278c0,4.186-0.607,8.709-0.812,13.03c1.892-0.136,3.849-0.34,5.738-0.34
		c1.891,0,3.85,0.204,5.737,0.34c-0.606-5.064-0.675-9.655-0.675-14.11c0-2.229,0.136-4.455,0.136-6.615
		c4.32-8.507,11.139-20.793,14.108-25.856c-1.147,0.136-2.161,0.338-3.24,0.338c-1.08,0-2.093-0.203-3.106-0.338
		c-2.969,6.615-6.548,15.121-10.192,20.252H396.416L396.416,229.361z M427.094,222.542c0,13.771-1.013,31.189-1.353,33.148
		c1.017-0.204,2.097-0.34,3.105-0.34c1.014,0,2.096,0.136,3.176,0.34c-0.205-2.5-0.406-6.279-0.406-17.081
		c0-5.062,0-10.667,0.134-15.729c10.397,10.937,20.254,21.874,29.504,32.811c0.809-0.204,1.688-0.34,2.633-0.34
		c0.942,0,1.822,0.136,2.768,0.34c0-17.959,0-26.938,1.08-46.583c-1.014,0.202-2.024,0.338-3.039,0.338
		c-1.012,0-2.022-0.136-3.037-0.338c0.474,3.039,0.474,21.401,0.474,32.135c-9.925-10.733-19.576-21.401-29.302-32.135
		c-1.012,0.202-2.022,0.338-3.034,0.338c-1.015,0-2.027-0.136-3.037-0.338C426.822,212.349,427.094,216.468,427.094,222.542
		L427.094,222.542z M493.486,236.989c0,7.563-0.137,12.759-0.543,18.702c1.486-0.136,3.31-0.34,5.537-0.34s4.051,0.204,5.535,0.34
		c-0.404-5.943-0.539-11.14-0.539-18.702v-16.877c0-2.563,0-4.994,0.135-5.939c2.699,0,8.371,0.405,12.017,0.878
		c-0.201-1.011-0.339-1.958-0.339-2.969c0-1.016,0.138-1.958,0.339-2.972c-5.736,0.202-8.775,0.338-17.146,0.338
		c-8.373,0-11.408-0.136-17.553-0.338c0.201,1.014,0.338,1.957,0.338,2.972c0,1.011-0.137,1.958-0.338,2.969
		c4.051-0.473,9.723-0.878,12.354-0.878c0.203,0.945,0.203,3.376,0.203,5.939V236.989L493.486,236.989z M560.078,236.989
		c0,7.563-0.137,12.759-0.541,18.702c1.486-0.136,3.308-0.34,5.535-0.34c2.229,0,4.053,0.204,5.537,0.34
		c-0.404-5.943-0.541-11.14-0.541-18.702v-9.181c0-7.56,0.137-12.759,0.541-18.699c-1.484,0.136-3.309,0.338-5.537,0.338
		c-2.228,0-4.049-0.203-5.535-0.338c0.404,5.873,0.541,11.072,0.541,18.564c-2.563,0.067-5.401,0.135-10.194,0.135
		s-8.033-0.067-10.328-0.135c0-7.493,0.135-12.691,0.539-18.564c-1.484,0.136-3.308,0.338-5.535,0.338
		c-2.227,0-4.049-0.203-5.535-0.338c0.406,5.94,0.539,11.14,0.539,18.699v9.181c0,7.563-0.133,12.759-0.539,18.702
		c1.486-0.136,3.31-0.34,5.535-0.34c2.229,0,4.051,0.204,5.535,0.34c-0.404-5.943-0.539-11.14-0.539-18.702v-3.846
		c3.442-0.136,6.885-0.271,10.262-0.271c3.443,0,6.818,0.204,10.262,0.271L560.078,236.989L560.078,236.989z M587.988,236.989
		c0,7.563-0.135,12.759-0.539,18.702c1.484-0.136,3.308-0.34,14.312-0.34c6.213,0,9.383,0.271,11.813,0.34
		c-0.135-0.811-0.27-1.484-0.27-2.904c0-1.417,0.135-2.092,0.27-3.039c-5.196,0.608-10.395,0.878-15.459,0.878
		c-0.137-2.7-0.201-5.604-0.201-8.438c0-2.903,0.064-5.807,0.064-8.641c5.133,0,10.195,0.2,15.326,0.605
		c-0.203-1.417-0.336-2.025-0.336-2.768c0-0.877,0.063-1.486,0.336-3.039c-5.131,0.271-9.451,0.406-15.326,0.541
		c0-4.928,0-9.788,0.34-14.717c2.023,0,10.127,0.473,15.256,0.811c-0.135-1.013-0.27-1.622-0.27-3.038
		c0-1.216,0.135-2.023,0.27-2.835c-1.821,0.202-7.494,0.338-14.106,0.338c-3.984,0-8.035-0.271-12.019-0.338
		c0.404,5.94,0.539,11.14,0.539,18.699V236.989L587.988,236.989z M636.828,236.989c0,7.563-0.137,12.759-0.543,18.702
		c1.486-0.136,3.31-0.34,5.539-0.34c2.228,0,4.049,0.204,5.535,0.34c-0.406-5.943-0.541-11.14-0.541-18.702v-16.877
		c0-2.563,0-4.994,0.135-5.939c2.699,0,8.371,0.405,12.019,0.878c-0.203-1.011-0.34-1.958-0.34-2.969
		c0-1.016,0.137-1.958,0.34-2.972c-5.738,0.202-8.777,0.338-17.146,0.338c-8.373,0-11.412-0.136-17.555-0.338
		c0.203,1.014,0.338,1.957,0.338,2.972c0,1.011-0.135,1.958-0.338,2.969c4.051-0.473,9.723-0.878,12.354-0.878
		c0.203,0.945,0.203,3.376,0.203,5.939V236.989L636.828,236.989z M673.177,236.989c0,7.563-0.135,12.759-0.541,18.702
		c1.485-0.136,3.309-0.34,5.535-0.34c2.229,0,4.051,0.204,5.539,0.34c-0.406-5.943-0.544-11.14-0.544-18.702v-9.181
		c0-7.56,0.138-12.759,0.544-18.699c-1.488,0.136-3.312,0.338-5.539,0.338s-4.05-0.203-5.535-0.338
		c0.406,5.94,0.541,11.14,0.541,18.699V236.989L673.177,236.989z M737.542,247.318c-2.9,3.038-7.898,5.063-12.22,5.063
		c-7.764,0-16-5.468-16-19.374c0-14.313,8.17-20.59,15.394-20.59c4.793,0,8.235,1.821,11.61,6.009h0.947
		c0.201-2.296,0.674-4.66,1.551-6.887c-3.104-1.892-9.045-3.309-13.771-3.309c-14.178,0-26.801,7.156-26.801,25.789
		c0,12.759,9.248,22.548,24.909,22.548c5.537,0,10.193-1.08,13.771-2.971c0.203-1.891,0.744-3.85,1.484-5.739L737.542,247.318
		L737.542,247.318z M338.462,303.446c0,7.582-0.133,12.801-0.539,18.744c1.485-0.137,4.389-0.338,6.818-0.338
		c3.375,0,6.346,0.338,9.923,0.338c8.035,0,15.73-3.85,15.73-13.537c0-8.133-8.034-11.104-12.15-11.307v-0.135
		c4.187-0.676,11.003-3.782,11.003-11.14c0-7.358-5.535-10.464-13.636-10.464c-3.849,0-8.304,0.338-12.153,0.338
		c-2.228,0-4.05-0.201-5.535-0.338c0.405,5.94,0.539,11.14,0.539,18.699V303.446L338.462,303.446z M359.256,287.356
		c0,5.737-3.848,8.573-7.696,8.573h-3.037c0-2.296-0.067-4.456-0.067-6.887c0-2.294,0.136-6.075,0.271-9.384
		c0.878-0.136,1.349-0.2,3.307-0.2C357.367,279.458,359.256,283.034,359.256,287.356L359.256,287.356z M359.729,309.158
		c0,5.875-3.442,9.183-7.424,9.183c-1.485,0-2.5-0.066-3.714-0.136c0-2.36-0.136-7.559-0.136-11.813
		c0-2.768,0.067-4.658,0.067-6.547c0.809,0,1.688-0.07,2.903-0.07C356.825,299.774,359.729,302.882,359.729,309.158L359.729,309.158
		z M386.492,303.489c0,7.563-0.135,12.758-0.54,18.701c1.485-0.137,3.309-0.338,5.535-0.338c2.229,0,4.051,0.201,5.537,0.338
		c-0.405-5.943-0.542-11.139-0.542-18.701v-9.182c0-7.56,0.136-12.759,0.542-18.699c-1.485,0.137-3.308,0.338-5.537,0.338
		c-2.227,0-4.049-0.201-5.535-0.338c0.405,5.94,0.54,11.14,0.54,18.699V303.489L386.492,303.489z M411.567,298.899
		c0,16.877,11.479,24.17,25.722,24.17c15.054,0,25.789-10.871,25.789-24.237c0-16.271-11.274-24.102-25.588-24.102
		C421.83,274.73,411.567,285.6,411.567,298.899L411.567,298.899z M452.005,297.415c0,14.717-7.089,21.465-15.188,21.465
		c-7.563,0-14.178-4.992-14.178-19.373c0-11.612,5.399-20.928,14.649-20.928C445.996,278.579,452.005,285.734,452.005,297.415
		L452.005,297.415z M477.96,303.489c0,7.563-0.136,12.758-0.539,18.701c1.483-0.137,3.307-0.338,14.311-0.338
		c6.211,0,9.383,0.27,11.814,0.338c-0.136-0.811-0.271-1.484-0.271-2.904c0-1.418,0.135-2.092,0.271-3.039
		c-5.199,0.609-10.396,0.88-15.459,0.88c-0.068-3.513-0.138-8.642-0.138-13.638v-9.182c0-7.56,0.138-12.759,0.541-18.699
		c-1.483,0.137-3.309,0.338-5.535,0.338c-2.229,0-4.051-0.201-5.534-0.338c0.403,5.94,0.539,11.14,0.539,18.699V303.489
		L477.96,303.489z M514.578,298.899c0,16.877,11.478,24.17,25.722,24.17c15.055,0,25.789-10.871,25.789-24.237
		c0-16.271-11.275-24.102-25.586-24.102C524.841,274.73,514.578,285.6,514.578,298.899L514.578,298.899z M555.016,297.415
		c0,14.717-7.088,21.465-15.189,21.465c-7.563,0-14.178-4.992-14.178-19.373c0-11.612,5.4-20.928,14.65-20.928
		C549.009,278.579,555.016,285.734,555.016,297.415L555.016,297.415z M620.464,285.667c0.403-2.296,1.146-4.591,1.889-6.888
		c-4.859-2.563-9.451-4.05-16.271-4.05c-15.862,0-27.946,8.574-27.946,25.723c0,13.771,11.139,22.616,26.664,22.616
		c5.94,0,12.151-1.283,18.024-2.973c-0.133-1.015-0.203-4.59-0.203-7.426c0-4.32,0.203-9.924,0.541-11.342
		c-0.877,0.135-2.227,0.338-5.469,0.338c-2.768,0-4.117-0.203-4.996-0.338c0.068,1.282,0.474,4.319,0.474,11.61
		c0,1.957,0,3.646-0.201,4.727c-1.082,0.742-5.064,1.214-7.359,1.214c-10.396,0-16.404-8.101-16.404-18.832
		c0-14.177,8.642-21.132,17.015-21.132c6.143,0,10.463,2.7,13.297,6.751L620.464,285.667L620.464,285.667z M657.689,295.86
		c-1.893-3.104-6.953-13.567-10.059-20.252c-2.025,0.137-3.982,0.338-6.009,0.338c-2.025,0-4.051-0.201-6.077-0.338
		c2.096,3.85,9.791,18.294,14.448,27.273c0.066,2.094,0.136,4.186,0.136,6.276c0,4.187-0.607,8.709-0.812,13.031
		c1.891-0.137,3.846-0.338,5.738-0.338c1.891,0,3.848,0.201,5.738,0.338c-0.607-5.064-0.677-9.656-0.677-14.111
		c0-2.227,0.138-4.454,0.138-6.614c4.319-8.505,11.139-20.793,14.106-25.855c-1.146,0.137-2.16,0.338-3.24,0.338
		s-2.092-0.201-3.104-0.338c-2.969,6.615-6.549,15.123-10.193,20.252H657.689L657.689,295.86z M346.43,369.989
		c0,7.563-0.136,12.758-0.54,18.701c1.484-0.137,3.307-0.338,5.536-0.338c2.229,0,4.05,0.201,5.535,0.338
		c-0.404-5.943-0.542-11.139-0.542-18.701v-16.877c0-2.563,0-4.996,0.137-5.94c2.699,0,8.372,0.405,12.017,0.877
		c-0.202-1.013-0.338-1.957-0.338-2.97c0-1.014,0.136-1.959,0.338-2.971c-5.737,0.203-8.775,0.338-17.146,0.338
		c-8.372,0-11.41-0.135-17.554-0.338c0.202,1.012,0.338,1.957,0.338,2.971c0,1.013-0.136,1.957-0.338,2.97
		c4.051-0.472,9.723-0.877,12.355-0.877c0.202,0.944,0.202,3.377,0.202,5.94V369.989L346.43,369.989z M405.191,388.69
		c2.025-0.137,4.119-0.338,6.145-0.338c2.023,0,4.049,0.201,6.076,0.338c-4.929-7.629-10.059-15.324-14.381-22.955
		c6.685-1.688,10.464-5.873,10.464-12.422c0-3.982-1.688-6.953-4.388-8.91c-2.364-1.688-4.86-2.295-11.68-2.295
		c-4.591,0-7.494,0.338-9.925,0.338c-2.228,0-4.049-0.203-5.535-0.338c0.405,5.939,0.54,11.139,0.54,18.699v9.182
		c0,7.563-0.135,12.758-0.54,18.701c1.485-0.137,3.308-0.338,5.535-0.338c2.229,0,4.053,0.201,5.537,0.338
		c-0.403-5.943-0.54-11.139-0.54-18.701v-2.768h0.609L405.191,388.69L405.191,388.69z M403.167,354.8
		c0,6.346-3.241,9.653-9.182,9.653c-0.471,0-0.945-0.065-1.485-0.137c0-6.143,0.067-12.217,0.203-18.361
		C400.06,345.955,403.167,346.835,403.167,354.8L403.167,354.8z M449.574,341.771c-0.879,0.135-1.688,0.338-2.563,0.338
		c-0.879,0-1.689-0.203-2.568-0.338c-5.803,15.393-15.932,39.426-19.238,46.92c1.281-0.137,2.298-0.338,3.377-0.338
		c1.08,0,2.091,0.201,3.171,0.338c1.284-4.66,2.77-9.25,4.592-13.842c2.362-0.066,4.656-0.133,7.02-0.133
		c2.902,0,5.738,0.065,8.644,0.133c1.688,4.592,3.237,9.25,4.657,13.842c1.892-0.137,3.847-0.338,5.738-0.338
		s3.779,0.201,5.941,0.338C463.212,377.685,455.313,357.162,449.574,341.771L449.574,341.771z M438.096,370.865
		c1.959-5.469,4.053-10.801,6.346-16.065c2.162,5.266,4.053,10.598,6.01,16.065H438.096L438.096,370.865z M482.074,369.989
		c0,7.563-0.135,12.758-0.541,18.701c1.486-0.137,3.308-0.338,5.535-0.338c2.23,0,4.053,0.201,5.537,0.338
		c-0.404-5.943-0.541-11.139-0.541-18.701v-9.182c0-7.562,0.137-12.76,0.541-18.699c-1.484,0.135-3.307,0.338-5.537,0.338
		c-2.229,0-4.049-0.203-5.535-0.338c0.406,5.939,0.541,11.139,0.541,18.699V369.989L482.074,369.989z M510.796,369.989
		c0,7.563-0.134,12.758-0.539,18.701c1.485-0.137,3.309-0.338,14.311-0.338c6.213,0,9.383,0.268,11.814,0.338
		c-0.136-0.811-0.271-1.486-0.271-2.904c0-1.416,0.135-2.092,0.271-3.039c-5.197,0.607-10.396,0.878-15.459,0.878
		c-0.068-3.511-0.136-8.642-0.136-13.636v-9.182c0-7.562,0.136-12.76,0.539-18.699c-1.483,0.135-3.309,0.338-5.534,0.338
		c-2.227,0-4.05-0.203-5.535-0.338c0.406,5.939,0.539,11.139,0.539,18.699V369.989L510.796,369.989z M571.988,351.222
		c0.877-2.971,1.351-4.59,2.16-6.685c-2.566-2.024-6.213-3.309-11.072-3.309c-8.033,0-15.188,5.131-15.188,14.447
		c0,15.326,20.117,12.625,20.117,22.817c0,3.781-2.634,6.888-7.898,6.888c-5.467,0-8.572-3.375-9.316-7.293h-1.28
		c-0.474,3.039-1.082,5.471-1.959,8.573c1.959,1.486,6.01,2.904,10.868,2.904c10.734,0,17.892-6.213,17.892-15.258
		c0-15.324-20.523-12.828-20.523-22.818c0-3.24,2.902-6.076,7.021-6.076c4.117,0,6.75,1.959,8.168,5.808L571.988,351.222
		L571.988,351.222z"/>
</g>
<g id="helix">
	<path fill="#003471" d="M282.335,270.292v-7.525c-5.779,1.746-11.191,4.27-16.102,7.431c-8.173,5.273-14.938,12.346-19.671,20.611
		c-4.733-8.266-11.499-15.339-19.673-20.611c-10.002-6.446-22.108-10.224-35.138-10.224s-25.134,3.777-35.138,10.224
		c-8.173,5.271-14.938,12.346-19.672,20.61c-4.733-8.266-11.497-15.337-19.671-20.61c-4.906-3.161-10.32-5.683-16.103-7.431v7.525
		c1.406,0.482,2.784,1.018,4.132,1.602v31.133c-0.912,0.324-1.732,0.851-2.405,1.525l-0.006-0.006
		c-1.166,1.166-1.89,2.782-1.89,4.563c0,1.775,0.722,3.387,1.89,4.555l0.006,0.004l0.003,0.005c0.672,0.672,1.492,1.196,2.402,1.521
		v10.713c-1.348,0.582-2.726,1.119-4.132,1.603v7.526c5.781-1.748,11.195-4.27,16.103-7.432
		c8.174-5.272,14.938-12.348,19.671-20.612c4.732,8.267,11.499,15.34,19.672,20.612c10.004,6.447,22.108,10.225,35.138,10.225
		s25.136-3.776,35.138-10.225c8.175-5.273,14.939-12.347,19.673-20.613c4.732,8.267,11.499,15.341,19.671,20.613
		c4.909,3.162,10.322,5.686,16.102,7.432v-7.526c-1.475-0.507-2.919-1.07-4.331-1.689V301.55c0.917-0.324,1.739-0.85,2.413-1.521
		c1.166-1.168,1.89-2.783,1.89-4.563c0-1.776-0.726-3.389-1.896-4.559l0.006-0.004c-0.673-0.673-1.496-1.199-2.413-1.523v-17.396
		C279.417,271.365,280.862,270.798,282.335,270.292z M217.071,294.112c-0.6,0-1.138-0.237-1.521-0.623v-0.008
		c-0.388-0.389-0.63-0.929-0.63-1.521c0-0.601,0.239-1.139,0.621-1.522l0.009-0.007c0.384-0.383,0.922-0.621,1.521-0.621
		c0.594,0,1.134,0.242,1.521,0.628h0.01c0.382,0.384,0.621,0.923,0.621,1.522c0,0.592-0.242,1.132-0.631,1.521
		C218.205,293.869,217.665,294.112,217.071,294.112z M214.92,285.877c-0.912,0.324-1.731,0.849-2.402,1.521l-0.003,0.004
		l-0.005,0.006c-1.169,1.168-1.891,2.777-1.891,4.554c0,1.778,0.724,3.395,1.891,4.562l0.005-0.005
		c0.673,0.675,1.492,1.201,2.406,1.525v27.853c-6.429,2.783-13.526,4.452-21.017,4.72v-7.481c0.916-0.324,1.74-0.844,2.413-1.517
		c1.167-1.166,1.889-2.782,1.889-4.563c0-1.777-0.725-3.39-1.896-4.56l0.006-0.004c-0.673-0.674-1.496-1.198-2.413-1.522v-43.788
		c7.49,0.269,14.588,1.938,21.017,4.721V285.877z M164.911,298.498c0.382-0.384,0.921-0.622,1.521-0.622
		c0.594,0,1.134,0.242,1.521,0.63h0.009c0.384,0.383,0.621,0.922,0.621,1.521c0,0.593-0.241,1.132-0.63,1.521
		c-0.387,0.389-0.927,0.631-1.521,0.631c-0.601,0-1.139-0.238-1.521-0.623v-0.008c-0.387-0.389-0.63-0.928-0.63-1.521
		c0-0.6,0.239-1.139,0.621-1.521L164.911,298.498z M168.582,306.114c0.917-0.323,1.74-0.852,2.413-1.524
		c1.166-1.166,1.89-2.781,1.89-4.562c0-1.777-0.725-3.391-1.896-4.558l0.006-0.006c-0.673-0.673-1.496-1.198-2.413-1.522v-22.038
		c6.43-2.784,13.528-4.453,21.02-4.722v43.79c-0.912,0.324-1.732,0.85-2.404,1.521l-0.003,0.004l-0.004,0.005
		c-1.169,1.168-1.892,2.778-1.892,4.555c0,1.779,0.725,3.396,1.892,4.563l0.004-0.004c0.672,0.673,1.494,1.191,2.407,1.518v7.484
		c-7.491-0.268-14.59-1.937-21.02-4.721V306.114L168.582,306.114z M193.272,318.576c-0.387,0.388-0.927,0.629-1.521,0.629
		c-0.6,0-1.138-0.237-1.521-0.62v-0.009c-0.387-0.389-0.63-0.928-0.63-1.521c0-0.601,0.237-1.139,0.623-1.521l0.008-0.008
		c0.382-0.383,0.921-0.623,1.521-0.623c0.594,0,1.133,0.244,1.521,0.631h0.009c0.382,0.384,0.621,0.922,0.621,1.521
		C193.903,317.649,193.661,318.188,193.272,318.576z M108.974,310.63c-0.388,0.389-0.93,0.631-1.521,0.631
		c-0.6,0-1.138-0.24-1.521-0.621l-0.01-0.01c-0.382-0.384-0.621-0.922-0.621-1.521c0-0.594,0.242-1.133,0.631-1.52v-0.011
		c0.383-0.383,0.921-0.62,1.521-0.62c0.592,0,1.134,0.241,1.521,0.631c0.389,0.387,0.63,0.926,0.63,1.52
		c0,0.601-0.238,1.139-0.621,1.521H108.974z M113.406,321.578c-1.232,0.796-2.5,1.543-3.802,2.244v-8.631
		c0.917-0.324,1.74-0.848,2.411-1.521l-0.004-0.004c1.17-1.171,1.896-2.781,1.896-4.56c0-1.779-0.724-3.396-1.891-4.563
		c-0.671-0.672-1.495-1.197-2.411-1.521v-29.047c1.302,0.699,2.569,1.449,3.802,2.243c8.694,5.604,15.575,13.475,19.663,22.68
		C128.982,308.104,122.1,315.976,113.406,321.578z M140.819,298.899c4.086-9.206,10.969-17.073,19.661-22.679
		c1.229-0.793,2.5-1.536,3.8-2.235v19.958c-0.912,0.324-1.731,0.85-2.403,1.521l-0.003,0.006l-0.004,0.003
		c-1.169,1.168-1.891,2.778-1.891,4.555c0,1.779,0.724,3.396,1.891,4.562l0.004-0.004c0.673,0.676,1.493,1.201,2.406,1.524v17.705
		c-1.3-0.699-2.57-1.441-3.8-2.234C151.788,315.976,144.905,308.104,140.819,298.899z M223.025,321.58
		c-1.231,0.793-2.502,1.536-3.803,2.235v-25.77c0.917-0.324,1.738-0.851,2.412-1.523c1.166-1.167,1.89-2.783,1.89-4.562
		s-0.726-3.391-1.896-4.56l0.006-0.004c-0.673-0.673-1.495-1.197-2.412-1.521v-11.892c1.301,0.7,2.571,1.443,3.803,2.236
		c8.69,5.605,15.574,13.474,19.662,22.679C238.602,308.104,231.717,315.976,223.025,321.58z M273.703,323.714
		c-1.231-0.67-2.433-1.382-3.602-2.136c-8.692-5.604-15.575-13.475-19.662-22.679c4.086-9.205,10.969-17.076,19.662-22.68
		c1.169-0.752,2.37-1.465,3.602-2.134v15.295c-0.912,0.324-1.731,0.849-2.404,1.521l-0.002,0.004l-0.005,0.004
		c-1.169,1.168-1.891,2.778-1.891,4.554c0,1.78,0.723,3.396,1.891,4.563l0.005-0.006c0.674,0.674,1.493,1.201,2.406,1.525V323.714z
		 M277.374,296.985c-0.387,0.39-0.927,0.63-1.521,0.63c-0.601,0-1.139-0.238-1.521-0.62v-0.01c-0.388-0.387-0.63-0.927-0.63-1.521
		c0-0.601,0.238-1.138,0.621-1.521l0.009-0.01c0.383-0.382,0.921-0.621,1.521-0.621c0.593,0,1.133,0.242,1.521,0.631h0.009
		c0.383,0.383,0.621,0.921,0.621,1.521C278.004,296.058,277.763,296.598,277.374,296.985z"/>
</g>
<g id="schematics">
	<path fill="#003471" d="M266.662,248.128h15.673v3.291h-15.673c-0.248,0.701-0.649,1.328-1.166,1.843
		c-0.892,0.894-2.128,1.447-3.49,1.447c-1.361,0-2.598-0.555-3.49-1.447s-1.446-2.128-1.446-3.49c0-1.36,0.554-2.596,1.446-3.488
		c0.894-0.895,2.129-1.447,3.49-1.447c1.362,0,2.599,0.554,3.49,1.447C266.012,246.798,266.415,247.427,266.662,248.128
		L266.662,248.128z M185.928,226.577c0.612,0,1.202,0.112,1.745,0.317l10.092-11.996H156.98c-0.248,0.701-0.65,1.328-1.164,1.844
		c-0.895,0.894-2.128,1.447-3.49,1.447c-1.363,0-2.598-0.554-3.491-1.447s-1.447-2.129-1.447-3.489c0-1.362,0.554-2.597,1.447-3.49
		s2.128-1.446,3.491-1.446c1.362,0,2.596,0.553,3.49,1.446c0.514,0.516,0.917,1.143,1.164,1.844h54.287
		c0.248-0.701,0.649-1.328,1.166-1.844c0.894-0.894,2.128-1.446,3.489-1.446s2.597,0.553,3.489,1.446
		c0.895,0.894,1.446,2.128,1.446,3.49c0,1.36-0.552,2.596-1.446,3.489c-0.893,0.894-2.128,1.447-3.489,1.447
		s-2.596-0.554-3.489-1.447c-0.517-0.517-0.918-1.144-1.166-1.844h-9.223l-11.866,14.105c0.434,0.733,0.686,1.592,0.686,2.509
		c0,1.361-0.554,2.596-1.446,3.489s-2.128,1.445-3.488,1.445c-1.363,0-2.599-0.552-3.49-1.445c-0.517-0.517-0.918-1.145-1.166-1.846
		H156.98c-0.248,0.701-0.65,1.329-1.164,1.846c-0.895,0.894-2.128,1.445-3.49,1.445c-1.363,0-2.598-0.552-3.491-1.445
		s-1.447-2.128-1.447-3.489c0-0.917,0.253-1.775,0.687-2.509l-11.867-14.105h-13.849l-11.867,14.104
		c0.434,0.735,0.685,1.594,0.685,2.511c0,1.361-0.554,2.596-1.444,3.489c-0.895,0.894-2.13,1.445-3.491,1.445
		c-1.362,0-2.596-0.552-3.49-1.445c-0.894-0.894-1.446-2.128-1.446-3.489c0-1.363,0.554-2.598,1.446-3.491
		c0.894-0.893,2.128-1.445,3.49-1.445c0.613,0,1.202,0.111,1.746,0.317l12.364-14.696l0.498-0.592h0.756h0.728h13.903h0.729h0.757
		l0.496,0.592l12.363,14.696c0.543-0.205,1.132-0.317,1.747-0.317c1.362,0,2.596,0.554,3.49,1.446
		c0.514,0.517,0.917,1.144,1.164,1.845h24.292c0.248-0.701,0.649-1.328,1.166-1.845C183.33,227.131,184.564,226.577,185.928,226.577
		L185.928,226.577z M187.09,230.35c-0.295-0.297-0.708-0.481-1.162-0.481c-0.456,0-0.869,0.185-1.164,0.481
		c-0.298,0.296-0.482,0.708-0.482,1.164c0,0.455,0.185,0.867,0.482,1.163c0.295,0.297,0.708,0.482,1.164,0.482
		c0.454,0,0.866-0.186,1.162-0.482c0.298-0.295,0.482-0.708,0.482-1.163C187.572,231.058,187.387,230.646,187.09,230.35
		L187.09,230.35z M106.24,208.317c1.361,0,2.598,0.554,3.491,1.447c0.892,0.892,1.444,2.128,1.444,3.49
		c0,1.36-0.554,2.598-1.444,3.491c-0.895,0.893-2.13,1.445-3.491,1.445c-1.362,0-2.596-0.553-3.49-1.445
		c-0.894-0.895-1.446-2.131-1.446-3.491c0-1.362,0.554-2.599,1.446-3.49C103.644,208.87,104.878,208.317,106.24,208.317
		L106.24,208.317z M107.404,212.089c-0.295-0.297-0.71-0.482-1.164-0.482s-0.868,0.186-1.165,0.482
		c-0.295,0.297-0.479,0.71-0.479,1.164c0,0.455,0.185,0.869,0.479,1.164c0.297,0.297,0.71,0.481,1.165,0.481
		s0.869-0.185,1.164-0.481c0.297-0.295,0.482-0.709,0.482-1.164C107.886,212.799,107.701,212.386,107.404,212.089L107.404,212.089z
		 M277.368,208.317c1.361,0,2.598,0.554,3.491,1.447c0.892,0.892,1.446,2.128,1.446,3.49c0,1.36-0.555,2.598-1.446,3.491
		c-0.894,0.893-2.129,1.445-3.491,1.445c-0.614,0-1.203-0.111-1.746-0.317l-9.366,11.133c0.437,0.733,0.686,1.592,0.686,2.509
		c0,1.361-0.552,2.596-1.445,3.489s-2.128,1.446-3.49,1.446c-1.361,0-2.596-0.553-3.489-1.446c-0.517-0.517-0.917-1.145-1.166-1.845
		h-21.414c-0.107,0.303-0.243,0.592-0.404,0.863l9.364,11.131c0.543-0.204,1.132-0.317,1.747-0.317c1.361,0,2.596,0.554,3.489,1.447
		c0.895,0.893,1.447,2.128,1.447,3.488c0,1.362-0.554,2.598-1.447,3.49c-0.894,0.894-2.128,1.447-3.489,1.447
		c-1.363,0-2.599-0.555-3.491-1.447c-0.895-0.893-1.446-2.128-1.446-3.49c0-0.916,0.249-1.772,0.686-2.509l-9.364-11.131
		c-0.543,0.205-1.132,0.318-1.748,0.318c-1.361,0-2.596-0.555-3.489-1.448c-0.516-0.517-0.918-1.145-1.166-1.845h-5.418h-4.559
		h-14.605l-12.594,14.97h21.816c0.248-0.701,0.649-1.33,1.166-1.845c0.894-0.895,2.128-1.447,3.489-1.447
		c1.363,0,2.597,0.554,3.489,1.447c0.516,0.516,0.918,1.145,1.166,1.845h10.706h0.754l0.499,0.59l12.365,14.696
		c0.542-0.205,1.13-0.318,1.745-0.318c1.361,0,2.596,0.552,3.49,1.446c0.894,0.894,1.446,2.128,1.446,3.489
		c0,1.362-0.554,2.598-1.446,3.49c-0.894,0.894-2.129,1.446-3.49,1.446c-1.363,0-2.599-0.552-3.491-1.446
		c-0.894-0.894-1.446-2.128-1.446-3.49c0-0.915,0.249-1.773,0.685-2.51l-11.865-14.104h-9.95c-0.248,0.701-0.649,1.328-1.166,1.843
		c-0.893,0.894-2.128,1.447-3.489,1.447s-2.596-0.555-3.489-1.447c-0.517-0.516-0.918-1.143-1.166-1.843h-44.907h-9.379
		c-0.248,0.701-0.65,1.328-1.164,1.843c-0.895,0.894-2.128,1.447-3.49,1.447c-0.615,0-1.204-0.113-1.747-0.318l-9.364,11.131
		c0.436,0.736,0.687,1.595,0.687,2.51c0,1.362-0.554,2.598-1.447,3.49c-0.893,0.894-2.128,1.446-3.49,1.446
		c-1.36,0-2.596-0.552-3.488-1.446c-0.894-0.894-1.447-2.128-1.447-3.49c0-1.361,0.554-2.597,1.447-3.489
		c0.893-0.894,2.128-1.446,3.488-1.446c0.613,0,1.203,0.112,1.746,0.318l9.366-11.134c-0.434-0.735-0.687-1.594-0.687-2.509
		c0-1.36,0.554-2.596,1.447-3.488c0.894-0.895,2.128-1.447,3.491-1.447c1.362,0,2.596,0.554,3.49,1.447
		c0.514,0.516,0.917,1.145,1.164,1.845h9.379h18.811l14.866-17.668l0.497-0.592h0.756h15.361h4.559h5.418
		c0.248-0.703,0.65-1.33,1.166-1.846c0.895-0.894,2.128-1.445,3.489-1.445c1.362,0,2.598,0.552,3.49,1.445
		c0.516,0.517,0.918,1.144,1.166,1.846h21.414c0.248-0.701,0.649-1.328,1.166-1.845c0.894-0.893,2.128-1.446,3.489-1.446
		c0.613,0,1.204,0.112,1.746,0.317l9.364-11.133c-0.436-0.736-0.686-1.594-0.686-2.509c0-1.362,0.554-2.599,1.446-3.49
		C274.772,208.87,276.006,208.317,277.368,208.317L277.368,208.317z M278.532,212.089c-0.295-0.297-0.71-0.482-1.164-0.482
		c-0.455,0-0.868,0.186-1.165,0.482c-0.295,0.297-0.479,0.71-0.479,1.164c0,0.455,0.185,0.869,0.479,1.164
		c0.297,0.297,0.71,0.481,1.165,0.481c0.454,0,0.869-0.185,1.164-0.481c0.297-0.295,0.482-0.709,0.482-1.164
		C279.014,212.799,278.829,212.386,278.532,212.089L278.532,212.089z M247.81,248.608c-0.297-0.297-0.71-0.479-1.165-0.479
		c-0.456,0-0.869,0.183-1.166,0.479c-0.295,0.297-0.48,0.71-0.48,1.164c0,0.455,0.186,0.868,0.48,1.165
		c0.297,0.297,0.71,0.48,1.166,0.48c0.455,0,0.868-0.185,1.165-0.48c0.295-0.297,0.479-0.71,0.479-1.165
		C248.29,249.318,248.105,248.905,247.81,248.608L247.81,248.608z M232.447,230.35c-0.295-0.297-0.71-0.481-1.165-0.481
		c-0.454,0-0.867,0.185-1.164,0.481c-0.295,0.295-0.479,0.708-0.479,1.164c0,0.455,0.185,0.867,0.479,1.164
		c0.297,0.295,0.71,0.48,1.164,0.48c0.455,0,0.869-0.186,1.165-0.48c0.296-0.297,0.481-0.709,0.481-1.164
		C232.929,231.058,232.744,230.645,232.447,230.35L232.447,230.35z M217.084,212.089c-0.295-0.295-0.708-0.48-1.163-0.48
		s-0.866,0.186-1.164,0.48c-0.295,0.297-0.479,0.71-0.479,1.164c0,0.455,0.185,0.867,0.479,1.164
		c0.298,0.295,0.709,0.479,1.164,0.479c0.454,0,0.868-0.185,1.163-0.479c0.297-0.297,0.482-0.709,0.482-1.164
		C217.566,212.799,217.381,212.386,217.084,212.089L217.084,212.089z M153.489,248.608c-0.295-0.297-0.708-0.479-1.163-0.479
		c-0.456,0-0.869,0.183-1.166,0.479c-0.295,0.297-0.479,0.71-0.479,1.164c0,0.455,0.185,0.868,0.479,1.165
		c0.297,0.297,0.709,0.48,1.166,0.48c0.454,0,0.868-0.185,1.163-0.48c0.297-0.297,0.482-0.71,0.482-1.165
		C153.971,249.318,153.786,248.905,153.489,248.608L153.489,248.608z M263.171,230.35c-0.297-0.297-0.71-0.481-1.164-0.481
		s-0.867,0.185-1.165,0.481c-0.295,0.296-0.479,0.708-0.479,1.164c0,0.455,0.185,0.867,0.479,1.163
		c0.298,0.297,0.71,0.482,1.165,0.482c0.454,0,0.867-0.186,1.164-0.482c0.295-0.295,0.48-0.708,0.48-1.163
		C263.651,231.058,263.466,230.646,263.171,230.35L263.171,230.35z M263.171,248.608c-0.297-0.297-0.71-0.479-1.164-0.479
		s-0.868,0.183-1.165,0.479c-0.296,0.297-0.48,0.71-0.48,1.164c0,0.455,0.185,0.868,0.48,1.165s0.71,0.48,1.165,0.48
		c0.454,0,0.867-0.185,1.164-0.48s0.482-0.71,0.482-1.165C263.653,249.318,263.468,248.905,263.171,248.608L263.171,248.608z
		 M153.489,230.35c-0.295-0.297-0.708-0.481-1.163-0.481c-0.456,0-0.869,0.185-1.166,0.481c-0.295,0.296-0.479,0.708-0.479,1.164
		c0,0.455,0.185,0.867,0.479,1.163c0.297,0.297,0.709,0.482,1.166,0.482c0.454,0,0.868-0.186,1.163-0.482
		c0.297-0.295,0.482-0.708,0.482-1.163C153.971,231.058,153.786,230.646,153.489,230.35L153.489,230.35z M107.404,230.35
		c-0.295-0.297-0.71-0.481-1.164-0.481s-0.868,0.185-1.165,0.481c-0.295,0.295-0.479,0.708-0.479,1.164
		c0,0.455,0.185,0.867,0.479,1.163c0.297,0.297,0.71,0.482,1.165,0.482s0.869-0.186,1.164-0.482
		c0.297-0.295,0.482-0.708,0.482-1.163C107.886,231.058,107.701,230.645,107.404,230.35L107.404,230.35z M136.963,244.835
		c1.362,0,2.597,0.554,3.49,1.447c0.895,0.893,1.447,2.128,1.447,3.488c0,1.362-0.554,2.598-1.447,3.49
		c-0.894,0.894-2.128,1.447-3.49,1.447c-1.36,0-2.596-0.555-3.488-1.447c-0.517-0.516-0.918-1.144-1.166-1.845h-31.141v-3.291
		h31.141c0.106-0.304,0.245-0.59,0.405-0.863l-9.363-11.131c-0.543,0.205-1.133,0.318-1.747,0.318c-1.363,0-2.599-0.555-3.491-1.448
		c-0.894-0.894-1.446-2.128-1.446-3.489c0-1.359,0.553-2.59,1.446-3.485v-0.006c0.894-0.894,2.128-1.445,3.491-1.445
		c1.36,0,2.596,0.552,3.488,1.445c0.894,0.895,1.446,2.128,1.446,3.491c0,0.915-0.25,1.773-0.684,2.509l9.363,11.131
		C135.761,244.949,136.35,244.835,136.963,244.835L136.963,244.835z M138.127,248.608c-0.296-0.297-0.709-0.479-1.164-0.479
		c-0.454,0-0.866,0.183-1.164,0.479c-0.295,0.297-0.479,0.71-0.479,1.164c0,0.455,0.186,0.868,0.479,1.165
		c0.298,0.297,0.71,0.48,1.164,0.48c0.455,0,0.868-0.185,1.164-0.48c0.295-0.297,0.48-0.71,0.48-1.165
		C138.608,249.318,138.423,248.905,138.127,248.608L138.127,248.608z M122.765,230.35c-0.295-0.297-0.708-0.481-1.163-0.481
		c-0.456,0-0.869,0.185-1.165,0.481l-0.003-0.004c-0.295,0.298-0.479,0.709-0.479,1.168c0,0.455,0.186,0.867,0.482,1.164
		c0.295,0.295,0.708,0.48,1.165,0.48c0.454,0,0.867-0.186,1.163-0.48c0.297-0.297,0.481-0.709,0.481-1.164
		C123.247,231.058,123.062,230.645,122.765,230.35L122.765,230.35z M217.086,248.608c-0.296-0.297-0.708-0.479-1.164-0.479
		c-0.455,0-0.866,0.183-1.164,0.479c-0.295,0.297-0.479,0.71-0.479,1.164c0,0.455,0.185,0.868,0.479,1.165
		c0.298,0.297,0.709,0.48,1.164,0.48c0.454,0,0.868-0.185,1.164-0.48c0.297-0.297,0.482-0.71,0.482-1.165
		C217.568,249.318,217.383,248.905,217.086,248.608L217.086,248.608z M246.646,208.318c1.361,0,2.596,0.553,3.49,1.446
		c0.894,0.895,1.445,2.128,1.445,3.49c0,1.36-0.552,2.596-1.445,3.489c-0.895,0.894-2.129,1.447-3.49,1.447
		c-1.363,0-2.597-0.554-3.489-1.447c-0.894-0.894-1.447-2.129-1.447-3.489c0-1.362,0.555-2.596,1.447-3.49
		C244.049,208.87,245.283,208.318,246.646,208.318L246.646,208.318z M247.808,212.089c-0.295-0.295-0.708-0.48-1.163-0.48
		c-0.456,0-0.867,0.186-1.164,0.48c-0.297,0.297-0.482,0.71-0.482,1.164c0,0.455,0.186,0.867,0.482,1.164
		c0.297,0.295,0.708,0.479,1.164,0.479c0.455,0,0.868-0.185,1.163-0.479c0.297-0.297,0.481-0.709,0.481-1.164
		C248.29,212.799,248.105,212.386,247.808,212.089L247.808,212.089z M247.81,266.868c-0.297-0.298-0.71-0.482-1.165-0.482
		c-0.456,0-0.869,0.185-1.166,0.482c-0.295,0.295-0.48,0.708-0.48,1.162c0,0.456,0.186,0.869,0.48,1.165
		c0.297,0.297,0.71,0.482,1.166,0.482c0.455,0,0.868-0.186,1.165-0.482c0.295-0.295,0.479-0.708,0.479-1.165
		C248.29,267.577,248.105,267.164,247.81,266.868L247.81,266.868z M153.489,212.089c-0.295-0.295-0.708-0.48-1.163-0.48
		c-0.456,0-0.869,0.186-1.166,0.48c-0.295,0.297-0.479,0.71-0.479,1.164c0,0.455,0.185,0.867,0.479,1.164
		c0.297,0.295,0.709,0.479,1.166,0.479c0.454,0,0.868-0.185,1.163-0.479c0.297-0.297,0.482-0.709,0.482-1.164
		C153.971,212.799,153.786,212.386,153.489,212.089L153.489,212.089z M138.127,266.868c-0.296-0.298-0.709-0.482-1.164-0.482
		c-0.454,0-0.866,0.185-1.164,0.482c-0.295,0.295-0.479,0.708-0.479,1.162c0,0.456,0.186,0.869,0.479,1.165
		c0.298,0.297,0.71,0.482,1.164,0.482c0.455,0,0.868-0.186,1.164-0.482c0.295-0.295,0.48-0.708,0.48-1.165
		C138.608,267.577,138.423,267.164,138.127,266.868L138.127,266.868z"/>
	<path fill="#003471" d="M121.499,352.964c-1.362,0-2.598-0.554-3.49-1.445c-0.516-0.516-0.918-1.146-1.166-1.844h-15.675v-3.291
		h15.675c0.248-0.701,0.65-1.33,1.166-1.847c0.893-0.893,2.127-1.446,3.49-1.446c0.613,0,1.202,0.112,1.745,0.317l9.364-11.131
		c-0.436-0.735-0.687-1.594-0.687-2.51c0-1.361,0.555-2.596,1.448-3.49c0.895-0.893,2.128-1.445,3.489-1.445
		c1.362,0,2.596,0.554,3.49,1.445c0.894,0.896,1.445,2.129,1.445,3.49c0,1.363-0.552,2.598-1.445,3.49
		c-0.895,0.895-2.128,1.444-3.49,1.444c-0.613,0-1.201-0.112-1.744-0.317l-9.368,11.133c0.436,0.736,0.687,1.596,0.687,2.51
		c0,1.361-0.555,2.596-1.446,3.49C124.094,352.41,122.86,352.964,121.499,352.964L121.499,352.964z M121.499,371.224
		c-1.362,0-2.598-0.555-3.49-1.447c-0.516-0.514-0.918-1.143-1.166-1.844h-15.675v-3.291h15.675c0.248-0.699,0.65-1.328,1.166-1.844
		c0.893-0.896,2.127-1.445,3.49-1.445c1.361,0,2.597,0.551,3.489,1.445c0.892,0.893,1.446,2.127,1.446,3.487
		c0,0.918-0.251,1.775-0.687,2.513l9.366,11.131c0.543-0.205,1.132-0.318,1.746-0.318c1.362,0,2.596,0.556,3.49,1.447
		c0.516,0.516,0.917,1.143,1.164,1.844h22.545l-10.092-11.996c-0.543,0.205-1.132,0.318-1.746,0.318
		c-1.361,0-2.597-0.555-3.49-1.447s-1.447-2.127-1.447-3.49c0-1.36,0.554-2.596,1.447-3.487c0.894-0.896,2.128-1.445,3.49-1.445
		s2.598,0.551,3.489,1.445c0.894,0.893,1.447,2.127,1.447,3.487c0,0.918-0.25,1.777-0.685,2.513l11.866,14.104h42.824
		c0.248-0.701,0.65-1.33,1.166-1.846c0.895-0.891,2.126-1.445,3.49-1.445c1.361,0,2.596,0.556,3.489,1.445v0.006
		c0.894,0.896,1.447,2.129,1.447,3.486c0,1.36-0.554,2.598-1.447,3.487c-0.894,0.896-2.128,1.447-3.489,1.447
		c-1.363,0-2.596-0.553-3.49-1.447c-0.516-0.514-0.918-1.143-1.166-1.844h-69.648c-0.248,0.701-0.648,1.328-1.164,1.844
		c-0.895,0.896-2.128,1.447-3.49,1.447c-1.361,0-2.596-0.553-3.489-1.447c-0.894-0.893-1.448-2.127-1.448-3.487
		c0-0.916,0.251-1.773,0.687-2.511l-9.364-11.133C122.702,371.11,122.112,371.224,121.499,371.224L121.499,371.224z
		 M120.334,367.449c0.297,0.297,0.708,0.482,1.165,0.482c0.454,0,0.867-0.187,1.163-0.482c0.296-0.295,0.482-0.707,0.482-1.164
		c0-0.452-0.187-0.866-0.482-1.161c-0.295-0.298-0.708-0.482-1.163-0.482c-0.456,0-0.868,0.186-1.165,0.482
		c-0.297,0.295-0.481,0.709-0.481,1.161C119.852,366.742,120.037,367.155,120.334,367.449L120.334,367.449z M231.179,352.966
		c-1.361,0-2.597-0.556-3.489-1.447c-0.517-0.516-0.918-1.145-1.166-1.844h-24.291c-0.248,0.699-0.65,1.328-1.166,1.844
		c-0.893,0.893-2.128,1.447-3.489,1.447c-0.403,0-0.792-0.049-1.167-0.142l-12.213,14.517l-0.497,0.592h-0.756h-0.729h-13.902
		h-0.729h-0.754l-0.499-0.592l-12.362-14.693c-0.544,0.205-1.133,0.318-1.747,0.318c-1.361,0-2.597-0.556-3.49-1.447
		c-0.894-0.895-1.447-2.129-1.447-3.49c0-1.36,0.554-2.596,1.447-3.49c0.894-0.893,2.128-1.446,3.49-1.446s2.598,0.555,3.489,1.446
		c0.894,0.896,1.447,2.13,1.447,3.49c0,0.914-0.25,1.773-0.685,2.51l11.866,14.104h13.851l11.463-13.623
		c-0.635-0.83-1.011-1.867-1.011-2.99c0-1.36,0.554-2.596,1.446-3.489c0.895-0.894,2.129-1.447,3.49-1.447s2.599,0.555,3.489,1.447
		c0.516,0.516,0.918,1.143,1.166,1.844h24.291c0.248-0.701,0.65-1.328,1.166-1.844c0.894-0.894,2.128-1.447,3.489-1.447
		c0.614,0,1.203,0.113,1.746,0.317l9.363-11.133c-0.436-0.735-0.686-1.592-0.686-2.508c0-1.361,0.554-2.596,1.448-3.49
		c0.893-0.893,2.128-1.444,3.49-1.444s2.597,0.553,3.49,1.444c0.895,0.896,1.447,2.129,1.447,3.49c0,1.363-0.554,2.598-1.447,3.49
		c-0.894,0.895-2.128,1.444-3.49,1.444c-0.614,0-1.203-0.112-1.745-0.317l-9.367,11.133c0.435,0.736,0.687,1.596,0.687,2.51
		c0,1.361-0.554,2.597-1.447,3.49C233.776,352.41,232.541,352.966,231.179,352.966L231.179,352.966z M230.015,349.192l0.115,0.105
		h0.001l0.015,0.012l0.033,0.024l0.015,0.013h0.001l0.031,0.022h0.001l0.03,0.023h0.003l0.015,0.01l0.017,0.012h0.002l0.016,0.011
		l0.017,0.012h0.001l0.017,0.01l0.017,0.01h0.001l0.034,0.021h0.001l0.016,0.01l0.019,0.008h0.001l0.016,0.011l0.019,0.01h0.001
		l0.017,0.008l0.019,0.008h0.001l0.018,0.008l0.019,0.009h0.001l0.018,0.008l0.019,0.008h0.001l0.018,0.008l0.02,0.008h0.001
		l0.018,0.007l0.02,0.006l0.019,0.006l0.021,0.006l0.001,0.002l0.018,0.006l0.02,0.006h0.002l0.018,0.007l0.021,0.004h0.001
		l0.019,0.004l0.021,0.006l0.02,0.004l0.021,0.006h0.002l0.018,0.004l0.021,0.002h0.001l0.02,0.004l0.021,0.004l0.042,0.007
		l0.042,0.004l0.041,0.004l0.043,0.004l0.042,0.002h0.042h0.043l0.042-0.002l0.042-0.004l0.042-0.004l0.042-0.004l0.041-0.007
		l0.02-0.004l0.021-0.004h0.001l0.02-0.002l0.021-0.004l0.04-0.01l0.04-0.01l0.02-0.004l0.02-0.007h0.001l0.019-0.006l0.021-0.006
		v-0.002l0.02-0.006l0.019-0.006l0.039-0.013l0.02-0.008l0.017-0.008h0.001l0.02-0.008l0.018-0.008l0.037-0.017l0.02-0.008
		l0.017-0.008h0.002l0.019-0.01l0.017-0.011l0.035-0.018l0.018-0.01l0.017-0.011h0.001l0.017-0.01l0.018-0.01l0.033-0.021
		l0.018-0.012l0.015-0.01h0.001l0.018-0.012l0.016-0.013l0.032-0.022l0.016-0.012l0.015-0.013h0.001l0.016-0.014l0.014-0.012h0.001
		l0.029-0.023v-0.002l0.016-0.014l0.072-0.066v-0.002l0.014-0.012l0.015-0.015v-0.002l0.014-0.014l0.04-0.045l0.012-0.014
		l0.013-0.017l0,0l0.012-0.014l0.012-0.017v-0.002l0.012-0.016l0.013-0.016l0,0l0.022-0.031v-0.002l0.023-0.031l0,0l0.011-0.016
		l0.011-0.019v-0.002l0.012-0.014l0.011-0.019v-0.002l0.011-0.016l0.009-0.016v-0.002l0.021-0.033v-0.002l0.009-0.017l0.009-0.018
		v-0.002l0.01-0.017l0.009-0.018v-0.002l0.008-0.019l0.009-0.018v-0.002l0.008-0.016l0.009-0.021v-0.002l0.007-0.016l0.008-0.021
		l0,0l0.008-0.018l0.007-0.021v-0.002l0.006-0.018l0.007-0.021l0.006-0.018l0.006-0.021h0.001l0.005-0.021l0.006-0.018v-0.003
		l0.006-0.018l0.004-0.02v-0.003l0.004-0.02l0.006-0.02l0.005-0.021l0.004-0.02v-0.002l0.004-0.019l0.003-0.02v-0.002l0.003-0.021
		l0.004-0.021l0.005-0.041l0.004-0.041l0.004-0.041l0.003-0.043l0.002-0.041v-0.043v-0.043l-0.002-0.041l-0.001-0.021l-0.002-0.02
		v-0.002l-0.001-0.021l-0.003-0.021l-0.004-0.041l-0.002-0.021l-0.003-0.02v-0.002l-0.004-0.021l-0.003-0.02v-0.002l-0.003-0.021
		l-0.004-0.018v-0.002l-0.004-0.021l-0.005-0.02l0,0l-0.006-0.021l-0.004-0.018v-0.002l-0.004-0.021l-0.006-0.018v-0.002
		l-0.006-0.019l-0.005-0.02l-0.001-0.002l-0.006-0.021l-0.007-0.016v-0.002l-0.006-0.021l-0.006-0.016v-0.002l-0.007-0.02
		l-0.008-0.017v-0.002l-0.008-0.02l-0.008-0.017v-0.002l-0.008-0.02l-0.008-0.017v-0.002l-0.009-0.018l-0.008-0.017v-0.004
		l-0.01-0.018l-0.009-0.016v-0.002l-0.009-0.019l-0.009-0.016v-0.002l-0.04-0.066v-0.002l-0.011-0.018l-0.012-0.017l0,0
		l-0.011-0.018l-0.034-0.047v-0.002l-0.096-0.123l0,0l-0.081-0.086v-0.003l-0.087-0.077v-0.002l-0.076-0.063l-0.016-0.01v-0.002
		l-0.016-0.013l-0.017-0.01v-0.002l-0.016-0.01l-0.018-0.012h-0.001l-0.032-0.021v-0.002l-0.017-0.01l-0.017-0.01l-0.069-0.039
		l-0.035-0.021l-0.017-0.008l-0.019-0.01h-0.002l-0.017-0.009l-0.02-0.01l-0.037-0.014l-0.018-0.008l-0.019-0.008h-0.002
		l-0.017-0.009l-0.02-0.008l-0.039-0.012l-0.038-0.014l-0.021-0.007l-0.019-0.006h-0.001l-0.02-0.006l-0.02-0.004l-0.04-0.01
		l-0.04-0.011l-0.021-0.004l-0.02-0.004h-0.001l-0.021-0.002l-0.02-0.006l-0.041-0.004l-0.042-0.004l-0.042-0.006l-0.042-0.002
		l-0.042-0.002h-0.043h-0.042l-0.042,0.002l-0.043,0.002l-0.041,0.006l-0.042,0.004l-0.042,0.004l-0.021,0.006l-0.02,0.002h-0.001
		l-0.021,0.004l-0.018,0.004h-0.002l-0.021,0.007l-0.02,0.004l-0.021,0.004l-0.019,0.006h-0.001l-0.021,0.004l-0.018,0.006h-0.002
		l-0.02,0.006l-0.018,0.007h-0.001l-0.02,0.006l-0.02,0.008l-0.02,0.006l-0.018,0.006h-0.001l-0.02,0.008l-0.018,0.009h-0.001
		l-0.019,0.008l-0.018,0.008h-0.001l-0.019,0.006l-0.018,0.008h-0.001l-0.019,0.011l-0.017,0.008h-0.001l-0.019,0.01l-0.016,0.008
		h-0.001l-0.019,0.01l-0.016,0.011h-0.001l-0.052,0.028l-0.017,0.011h-0.001l-0.064,0.043h-0.002
		c-0.088,0.061-0.168,0.125-0.243,0.198l-0.08,0.089l0,0c-0.061,0.069-0.115,0.145-0.162,0.223v0.002l-0.04,0.066v0.002
		l-0.009,0.016l-0.009,0.018v0.002l-0.01,0.017l-0.009,0.018v0.004l-0.008,0.017l-0.009,0.018v0.002l-0.009,0.017l-0.008,0.02v0.002
		l-0.007,0.017l-0.008,0.02v0.002l-0.008,0.016l-0.007,0.021v0.002l-0.007,0.016l-0.006,0.021v0.002l-0.008,0.016l-0.006,0.021
		v0.002l-0.005,0.02l-0.006,0.019v0.002l-0.006,0.018l-0.005,0.021v0.002l-0.005,0.018l-0.004,0.021l0,0l-0.004,0.02l-0.005,0.021
		v0.002l-0.004,0.018l-0.003,0.021v0.002l-0.002,0.02l-0.005,0.021v0.002l-0.003,0.02l-0.002,0.021l-0.005,0.041l-0.003,0.021
		l-0.001,0.021v0.002l-0.002,0.02l-0.001,0.021l-0.001,0.041v0.043v0.043l0.001,0.041l0.003,0.043l0.004,0.041l0.005,0.041
		l0.005,0.041l0.005,0.021l0.002,0.02v0.003l0.003,0.02l0.004,0.018v0.003l0.005,0.02l0.004,0.02l0.004,0.021l0.005,0.02v0.002
		l0.005,0.021l0.006,0.018v0.002l0.006,0.019l0.005,0.021l0.014,0.037l0.006,0.021l0.007,0.018v0.002l0.007,0.021l0.008,0.018l0,0
		l0.008,0.021l0.007,0.016v0.002l0.008,0.021l0.009,0.016v0.002l0.009,0.018l0.008,0.019v0.002l0.009,0.018l0.01,0.017v0.002
		l0.009,0.018l0.009,0.017v0.002l0.029,0.051l0.011,0.016v0.002l0.043,0.066l0,0l0.119,0.156L230.015,349.192L230.015,349.192z
		 M197.578,371.226c-1.356,0-2.589-0.555-3.482-1.447h-0.007c-0.893-0.895-1.446-2.129-1.446-3.492c0-1.36,0.554-2.596,1.446-3.487
		c0.895-0.896,2.128-1.445,3.49-1.445c1.363,0,2.599,0.551,3.489,1.445c0.516,0.516,0.918,1.145,1.166,1.844h24.291
		c0.248-0.699,0.649-1.328,1.166-1.844c0.894-0.896,2.128-1.447,3.489-1.447s2.598,0.553,3.489,1.447
		c0.895,0.893,1.447,2.127,1.447,3.487c0,0.918-0.251,1.775-0.686,2.513l11.865,14.104h13.852l11.867-14.104
		c-0.436-0.736-0.688-1.595-0.688-2.513c0-1.36,0.554-2.596,1.447-3.487c0.893-0.896,2.128-1.445,3.49-1.445
		s2.598,0.551,3.488,1.445c0.895,0.893,1.447,2.127,1.447,3.487c0,1.363-0.554,2.599-1.447,3.492
		c-0.892,0.894-2.126,1.447-3.488,1.447c-0.614,0-1.201-0.113-1.744-0.32l-12.364,14.695l-0.499,0.592h-0.754h-0.73h-13.9h-0.73
		h-0.756l-0.499-0.592l-12.36-14.693c-0.544,0.205-1.133,0.318-1.748,0.318c-1.361,0-2.597-0.555-3.489-1.447
		c-0.517-0.516-0.918-1.143-1.166-1.846h-24.291c-0.248,0.703-0.65,1.33-1.166,1.846
		C200.175,370.671,198.94,371.226,197.578,371.226L197.578,371.226z M196.41,367.455c0.297,0.293,0.71,0.478,1.167,0.478
		c0.456,0,0.869-0.187,1.164-0.48c0.297-0.297,0.482-0.709,0.482-1.166c0-0.453-0.186-0.866-0.482-1.162
		c-0.295-0.297-0.708-0.481-1.164-0.481c-0.455,0-0.868,0.186-1.165,0.481c-0.295,0.296-0.479,0.71-0.479,1.162
		c0,0.457,0.186,0.869,0.479,1.166L196.41,367.455L196.41,367.455z M151.057,349.192c0.296,0.297,0.709,0.482,1.164,0.482
		c0.456,0,0.868-0.187,1.164-0.482c0.297-0.297,0.481-0.709,0.481-1.164s-0.185-0.867-0.481-1.164
		c-0.296-0.295-0.708-0.479-1.164-0.479c-0.455,0-0.868,0.186-1.164,0.479c-0.295,0.297-0.48,0.709-0.48,1.164
		S150.761,348.896,151.057,349.192L151.057,349.192z M245.376,330.933c0.297,0.297,0.709,0.481,1.166,0.481
		c0.455,0,0.868-0.186,1.165-0.481c0.295-0.295,0.48-0.709,0.48-1.164s-0.186-0.867-0.48-1.164c-0.297-0.295-0.71-0.48-1.165-0.48
		c-0.456,0-0.869,0.187-1.166,0.48c-0.295,0.297-0.479,0.709-0.479,1.164S245.081,330.638,245.376,330.933L245.376,330.933z
		 M135.695,330.933c0.297,0.297,0.709,0.481,1.164,0.481s0.867-0.186,1.163-0.481c0.297-0.295,0.481-0.709,0.481-1.164
		s-0.185-0.867-0.481-1.164c-0.295-0.295-0.708-0.48-1.163-0.48s-0.867,0.187-1.164,0.48c-0.295,0.297-0.48,0.709-0.48,1.164
		S135.4,330.638,135.695,330.933L135.695,330.933z M135.695,385.712c0.297,0.295,0.709,0.479,1.164,0.479s0.867-0.186,1.163-0.479
		c0.297-0.298,0.481-0.711,0.481-1.164c0-0.455-0.185-0.867-0.481-1.164c-0.295-0.297-0.708-0.48-1.163-0.48
		s-0.867,0.185-1.164,0.48c-0.295,0.297-0.48,0.709-0.48,1.164C135.215,385.001,135.4,385.414,135.695,385.712L135.695,385.712z
		 M246.54,367.933c0.455,0,0.868-0.187,1.164-0.482c0.295-0.295,0.48-0.707,0.48-1.164c0-0.452-0.186-0.866-0.48-1.161
		c-0.296-0.298-0.709-0.482-1.164-0.482s-0.869,0.186-1.164,0.482c-0.297,0.295-0.481,0.709-0.481,1.161
		c0,0.457,0.185,0.869,0.481,1.164C245.671,367.746,246.085,367.933,246.54,367.933L246.54,367.933z M250.03,369.776
		c-0.894,0.894-2.128,1.447-3.49,1.447c-1.361,0-2.598-0.555-3.489-1.447c-0.894-0.893-1.447-2.127-1.447-3.49
		c0-1.36,0.554-2.596,1.447-3.487c0.893-0.896,2.129-1.445,3.489-1.445c0.613,0,1.203,0.111,1.746,0.316l9.366-11.132
		c-0.436-0.735-0.688-1.596-0.688-2.51c0-1.36,0.555-2.596,1.447-3.49c0.895-0.893,2.128-1.446,3.49-1.446
		c1.363,0,2.598,0.555,3.491,1.446c0.515,0.517,0.917,1.146,1.166,1.847h15.776v3.291h-15.778c-0.248,0.698-0.649,1.328-1.164,1.844
		c-0.895,0.893-2.128,1.447-3.491,1.447c-0.613,0-1.201-0.113-1.744-0.32l-9.366,11.135c0.437,0.734,0.687,1.592,0.687,2.506
		C251.477,367.649,250.923,368.884,250.03,369.776L250.03,369.776z M151.057,367.449c0.296,0.297,0.709,0.482,1.164,0.482
		c0.456,0,0.868-0.187,1.164-0.482c0.297-0.295,0.481-0.707,0.481-1.164c0-0.452-0.185-0.866-0.481-1.161
		c-0.296-0.298-0.708-0.482-1.164-0.482c-0.455,0-0.868,0.186-1.164,0.482c-0.295,0.295-0.48,0.709-0.48,1.161
		C150.576,366.742,150.761,367.155,151.057,367.449L151.057,367.449z M261.901,349.675c0.456,0,0.869-0.187,1.164-0.482
		c0.297-0.297,0.481-0.709,0.481-1.164s-0.185-0.867-0.481-1.164c-0.295-0.295-0.708-0.479-1.164-0.479
		c-0.455,0-0.868,0.186-1.164,0.479c-0.297,0.297-0.48,0.709-0.48,1.164s0.185,0.867,0.48,1.164l-0.003,0.004
		C261.031,349.49,261.444,349.675,261.901,349.675L261.901,349.675z M136.859,352.964c-1.361,0-2.596-0.554-3.489-1.445
		c-0.894-0.896-1.448-2.129-1.448-3.49c0-1.36,0.555-2.596,1.448-3.49c0.895-0.893,2.128-1.446,3.489-1.446
		c1.362,0,2.596,0.555,3.49,1.446c0.894,0.896,1.445,2.13,1.445,3.49c0,1.361-0.552,2.596-1.445,3.49
		C139.456,352.41,138.221,352.964,136.859,352.964L136.859,352.964z M135.695,349.19c0.297,0.297,0.709,0.482,1.164,0.482
		s0.867-0.187,1.163-0.482c0.297-0.295,0.481-0.707,0.481-1.162s-0.185-0.867-0.481-1.164c-0.295-0.295-0.708-0.479-1.163-0.479
		s-0.867,0.186-1.164,0.479c-0.295,0.297-0.48,0.709-0.48,1.164S135.4,348.896,135.695,349.19L135.695,349.19z M196.413,349.192
		c0.297,0.297,0.71,0.482,1.165,0.482c0.454,0,0.869-0.187,1.164-0.482c0.297-0.297,0.482-0.709,0.482-1.164
		s-0.186-0.867-0.482-1.164c-0.295-0.295-0.71-0.479-1.164-0.479c-0.455,0-0.868,0.186-1.165,0.479
		c-0.295,0.297-0.479,0.709-0.479,1.164S196.118,348.896,196.413,349.192L196.413,349.192z M276.097,367.455
		c0.297,0.293,0.71,0.478,1.167,0.478c0.456,0,0.868-0.187,1.164-0.48c0.297-0.297,0.481-0.709,0.481-1.166
		c0-0.453-0.185-0.866-0.481-1.162c-0.296-0.297-0.708-0.481-1.164-0.481c-0.455,0-0.868,0.186-1.165,0.481
		c-0.295,0.296-0.48,0.71-0.48,1.162c0,0.457,0.186,0.869,0.48,1.166L276.097,367.455L276.097,367.455z M106.136,389.483
		c-1.362,0-2.597-0.553-3.49-1.447c-0.895-0.891-1.447-2.127-1.447-3.487c0-1.361,0.554-2.599,1.447-3.492
		c0.894-0.892,2.128-1.445,3.49-1.445s2.598,0.555,3.489,1.445c0.894,0.895,1.447,2.131,1.447,3.492c0,1.36-0.554,2.598-1.447,3.487
		C108.733,388.931,107.499,389.483,106.136,389.483L106.136,389.483z M104.971,385.712c0.297,0.297,0.71,0.479,1.165,0.479
		s0.868-0.184,1.163-0.479c0.298-0.298,0.482-0.711,0.482-1.164c0-0.455-0.185-0.869-0.482-1.164
		c-0.295-0.297-0.708-0.482-1.163-0.482c-0.454,0-0.868,0.187-1.165,0.482c-0.296,0.295-0.48,0.709-0.48,1.164
		C104.491,385.001,104.676,385.414,104.971,385.712L104.971,385.712z M230.015,367.451c0.297,0.295,0.71,0.48,1.164,0.48
		s0.867-0.187,1.165-0.48c0.296-0.297,0.48-0.709,0.48-1.166c0-0.452-0.185-0.866-0.48-1.164c-0.298-0.295-0.711-0.479-1.165-0.479
		s-0.867,0.186-1.164,0.479c-0.295,0.298-0.48,0.712-0.48,1.164C229.535,366.742,229.72,367.155,230.015,367.451L230.015,367.451z
		 M214.654,385.712c0.297,0.297,0.708,0.479,1.164,0.479c0.454,0,0.867-0.184,1.164-0.479c0.295-0.298,0.479-0.711,0.479-1.164
		c0-0.457-0.182-0.871-0.478-1.168l-0.003,0.004c-0.297-0.297-0.71-0.482-1.164-0.482c-0.456,0-0.867,0.187-1.164,0.482
		c-0.297,0.295-0.48,0.709-0.48,1.164C214.173,385.001,214.357,385.414,214.654,385.712L214.654,385.712z M120.334,349.19
		c0.297,0.297,0.708,0.482,1.165,0.482c0.454,0,0.867-0.187,1.163-0.482c0.296-0.295,0.482-0.707,0.482-1.162
		s-0.187-0.867-0.482-1.164c-0.295-0.295-0.708-0.479-1.163-0.479c-0.456,0-0.868,0.186-1.165,0.479
		c-0.297,0.297-0.481,0.709-0.481,1.164S120.037,348.896,120.334,349.19L120.334,349.19z"/>
</g>
</svg>
